<svg version="1.1" xmlns="http://www.w3.org/2000/svg" xmlns:xlink="http://www.w3.org/1999/xlink" width="77.93297" height="76.19018" viewBox="0,0,77.93297,76.19018"><g transform="translate(-201.03363,-141.90737)"><g data-paper-data="{&quot;isPaintingLayer&quot;:true}" fill-rule="nonzero" stroke="#000000" stroke-width="2.5" stroke-linejoin="miter" stroke-miterlimit="10" stroke-dasharray="" stroke-dashoffset="0" style="mix-blend-mode: normal"><path d="M240.56846,216.84286c-20.83024,0.32133 -37.97094,-15.91323 -38.28483,-36.26093c-0.31389,-20.34768 16.3179,-37.10324 37.14814,-37.42456c20.83024,-0.32133 37.97094,15.91323 38.28483,36.26093c0.31389,20.34768 -16.3179,37.10324 -37.14814,37.42456z" fill="#ffffff" stroke-linecap="butt"/><path d="M230.84672,187.818l-0.65517,-23.58651" fill="none" stroke-linecap="round"/><path d="M250.10069,163.24964l0.08166,24.17799" fill="none" stroke-linecap="round"/><path d="M251.20786,202.59015c0,4.88161 -4.27573,8.83893 -9.55011,8.83893c-5.27438,0 -9.55011,-3.95733 -9.55011,-8.83893c0,-4.88161 4.27573,-8.83893 9.55011,-8.83893c5.27438,0 9.55011,3.95733 9.55011,8.83893z" fill="none" stroke-linecap="butt"/></g></g></svg>