<svg version="1.1" xmlns="http://www.w3.org/2000/svg" xmlns:xlink="http://www.w3.org/1999/xlink" width="77.93297" height="76.19018" viewBox="0,0,77.93297,76.19018"><g transform="translate(-201.03364,-141.90739)"><g data-paper-data="{&quot;isPaintingLayer&quot;:true}" fill-rule="nonzero" stroke="#000000" stroke-width="2.5" stroke-linejoin="miter" stroke-miterlimit="10" stroke-dasharray="" stroke-dashoffset="0" style="mix-blend-mode: normal"><path d="M240.56848,216.84289c-20.83024,0.32133 -37.97094,-15.91323 -38.28483,-36.26093c-0.31389,-20.34768 16.3179,-37.10324 37.14814,-37.42456c20.83024,-0.32133 37.97094,15.91323 38.28483,36.26093c0.31389,20.34768 -16.3179,37.10324 -37.14814,37.42456z" fill="#ffffff" stroke-linecap="butt"/><path d="M230.19158,164.23152l0.65517,23.58651" fill="none" stroke-linecap="round"/><path d="M250.10071,163.24964l0.08166,24.17799" fill="none" stroke-linecap="round"/><path d="M257.57581,197.16648c0,0 0.01435,3.70007 -2.00743,5.5973c-1.63997,1.53894 -4.9902,1.16453 -6.57949,1.2185c-3.38867,0.11506 -5.58692,-2.78076 -8.20212,-2.69197c-3.01784,0.10247 -6.62771,3.11407 -9.95964,3.2272c-1.65137,0.05607 -4.3129,-0.92917 -5.09192,-2.83381c-0.31452,-0.76896 0.57321,-3.6278 0.57321,-3.6278" fill="none" stroke-linecap="round"/></g></g></svg>