<svg version="1.1" xmlns="http://www.w3.org/2000/svg" xmlns:xlink="http://www.w3.org/1999/xlink" width="87.34829" height="81.66057" viewBox="0,0,87.34829,81.66057"><defs><linearGradient x1="203.55533" y1="179.37696" x2="278.99703" y2="179.37696" gradientUnits="userSpaceOnUse" id="color-1"><stop offset="0" stop-color="#fcf2ff"/><stop offset="1" stop-color="#ffffff"/></linearGradient></defs><g transform="translate(-196.37587,-135.81384)"><g data-paper-data="{&quot;isPaintingLayer&quot;:true}" fill-rule="nonzero" stroke="#000000" stroke-linejoin="miter" stroke-miterlimit="10" stroke-dasharray="" stroke-dashoffset="0" style="mix-blend-mode: normal"><path d="M241.84453,216.21971c-20.83024,0.32133 -37.97094,-15.91323 -38.28483,-36.26093c-0.31389,-20.34768 16.3179,-37.10324 37.14814,-37.42456c20.83024,-0.32133 37.97094,15.91323 38.28483,36.26093c0.31389,20.34768 -16.3179,37.10324 -37.14814,37.42456z" fill="url(#color-1)" stroke-width="2.5" stroke-linecap="butt"/><path d="M282.07015,182.03677c0,0 -23.63787,-19.03575 -29.88018,-21.75864c-2.71984,-1.1864 -6.68138,-4.54765 -6.68138,-4.54765c0,0 -3.3305,7.08036 -5.50847,9.63232c-3.82544,4.48231 -22.6402,20.22275 -22.6402,20.22275c0,0 0.563,-8.11727 -1.01219,-13.5848c-0.94723,-3.28781 -3.7114,-4.6577 -4.89888,-5.42892c-1.21939,-0.79195 -11.90963,8.27489 -13.57298,6.33178c-0.59503,-0.6951 1.57674,-5.685 3.54066,-9.31144c1.54936,-2.86092 2.94052,-4.59947 2.94052,-4.59947c0,0 1.03673,-1.98697 3.34938,-4.75806c2.69897,-3.23397 6.91005,-7.42319 9.7846,-9.04342c2.12545,-1.19801 6.51848,-3.93736 10.57187,-5.35597c5.54254,-1.93976 10.68521,-2.42362 10.68521,-2.42362c0,0 11.46824,-0.70691 16.6844,1.68036c3.13121,1.43308 11.02785,4.32452 15.1833,7.55342c2.30313,1.78959 5.92705,2.19462 8.03242,7.30229c2.53502,6.14991 3.57593,27.40038 3.57593,27.40038" fill="#9e7509" stroke-width="3" stroke-linecap="round"/><path d="M237.10599,168.83411l0.23386,18.94275" fill="none" stroke-width="3" stroke-linecap="round"/><path d="M254.64557,169.30183l-0.46772,18.47503" fill="none" stroke-width="3" stroke-linecap="round"/><path d="M242.25093,170.23728l-8.419,-7.01584" fill="none" stroke-width="3" stroke-linecap="round"/><path d="M262.36299,162.05213l-10.75761,7.95128" fill="none" stroke-width="3" stroke-linecap="round"/><path d="M253.71013,202.04239c0,0 -19.13204,-0.16352 -23.61625,-0.20185c-1.78581,-0.01526 -4.44709,-3.30607 -4.44709,-3.30607" fill="none" stroke-width="3" stroke-linecap="round"/></g></g></svg>