<svg version="1.1" xmlns="http://www.w3.org/2000/svg" xmlns:xlink="http://www.w3.org/1999/xlink" width="77.93297" height="76.19018" viewBox="0,0,77.93297,76.19018"><defs><linearGradient x1="202.27933" y1="180.00018" x2="277.72103" y2="180.00018" gradientUnits="userSpaceOnUse" id="color-1"><stop offset="0" stop-color="#fcf2ff"/><stop offset="1" stop-color="#ffffff"/></linearGradient></defs><g transform="translate(-201.0337,-141.90743)"><g data-paper-data="{&quot;isPaintingLayer&quot;:true}" fill-rule="nonzero" stroke="#000000" stroke-width="2.5" stroke-linejoin="miter" stroke-miterlimit="10" stroke-dasharray="" stroke-dashoffset="0" style="mix-blend-mode: normal"><path d="M240.56854,216.84292c-20.83024,0.32133 -37.97094,-15.91323 -38.28483,-36.26093c-0.31389,-20.34768 16.3179,-37.10324 37.14814,-37.42456c20.83024,-0.32133 37.97094,15.91323 38.28483,36.26093c0.31389,20.34768 -16.3179,37.10324 -37.14814,37.42456z" fill="url(#color-1)" stroke-linecap="butt"/><path d="M231.16669,188.69446v-24.33333" fill="none" stroke-linecap="round"/><path d="M248.72225,165.25l-0.33333,22.55556" fill="none" stroke-linecap="round"/><path d="M221.27279,152.56706l16.60159,11.94505" fill="none" stroke-linecap="round"/><path d="M257.91776,152.16215l-14.77947,12.95734" fill="none" stroke-linecap="round"/><path d="M225.50185,205.66332c0,0 24.32049,-0.24225 28.26837,-0.29834c1.12042,-0.01592 0.67713,-0.1129 0.67713,-0.1129c0,0 -1.15811,-4.64975 -5.25235,-7.60506c-1.66016,-1.19834 -9.98246,-2.13037 -11.95965,-2.0215c-1.55921,0.08586 -4.15701,0.69669 -7.0113,2.65207c-4.42,3.028 -4.75754,7.3388 -4.75754,7.3388" fill="none" stroke-linecap="round"/></g></g></svg>