<svg version="1.1" xmlns="http://www.w3.org/2000/svg" xmlns:xlink="http://www.w3.org/1999/xlink" width="77.93297" height="76.19018" viewBox="0,0,77.93297,76.19018"><defs><linearGradient x1="202.27934" y1="180.00021" x2="277.72103" y2="180.00021" gradientUnits="userSpaceOnUse" id="color-1"><stop offset="0" stop-color="#fcf2ff"/><stop offset="1" stop-color="#ffffff"/></linearGradient></defs><g transform="translate(-201.03372,-141.90746)"><g data-paper-data="{&quot;isPaintingLayer&quot;:true}" fill-rule="nonzero" stroke="#000000" stroke-width="2.5" stroke-linejoin="miter" stroke-miterlimit="10" stroke-dasharray="" stroke-dashoffset="0" style="mix-blend-mode: normal"><path d="M240.56855,216.84295c-20.83024,0.32133 -37.97094,-15.91323 -38.28483,-36.26093c-0.31389,-20.34768 16.3179,-37.10324 37.14814,-37.42456c20.83024,-0.32133 37.97094,15.91323 38.28483,36.26093c0.31389,20.34768 -16.3179,37.10324 -37.14814,37.42456z" fill="url(#color-1)" stroke-linecap="butt"/><path d="M231.1667,188.69449v-24.33333" fill="none" stroke-linecap="round"/><path d="M248.72229,165.25l-0.33333,22.55556" fill="none" stroke-linecap="round"/><path d="M254.25725,197.48768c0,0 -21.59373,0.68073 -26.92722,0.64517c-2.55504,-0.01703 -5.66858,-2.26483 -5.66858,-2.26483" fill="none" stroke-linecap="round"/><path d="M235.83354,165.2968c0,0 -3.41665,-2.50653 -4.99006,-2.64335c-1.52973,-0.13302 -4.32304,1.83352 -4.32304,1.83352" fill="none" stroke-linecap="round"/><path d="M253.37883,166.57491c0,0 -3.41665,-2.50653 -4.99006,-2.64335c-1.52973,-0.13302 -4.32304,1.83352 -4.32304,1.83352" fill="none" stroke-linecap="round"/></g></g></svg>