<svg version="1.1" xmlns="http://www.w3.org/2000/svg" xmlns:xlink="http://www.w3.org/1999/xlink" width="77.93297" height="76.19018" viewBox="0,0,77.93297,76.19018"><g transform="translate(-201.03355,-141.90732)"><g data-paper-data="{&quot;isPaintingLayer&quot;:true}" fill-rule="nonzero" stroke="#000000" stroke-width="2.5" stroke-linejoin="miter" stroke-miterlimit="10" stroke-dasharray="" stroke-dashoffset="0" style="mix-blend-mode: normal"><path d="M240.56839,216.84281c-20.83024,0.32133 -37.97094,-15.91323 -38.28483,-36.26093c-0.31389,-20.34768 16.3179,-37.10324 37.14814,-37.42456c20.83024,-0.32133 37.97094,15.91323 38.28483,36.26093c0.31389,20.34768 -16.3179,37.10324 -37.14814,37.42456z" fill="#ffffff" stroke-linecap="butt"/><path d="M230.19148,163.99777l0.65517,23.58651" fill="none" stroke-linecap="round"/><path d="M250.10062,163.24963l0.08166,24.17799" fill="none" stroke-linecap="round"/><path d="M258.58893,198.91075c0,0 -21.62825,0.33305 -27.57861,0.53509c-2.84725,0.09668 -6.3145,1.95395 -6.3145,1.95395" fill="none" stroke-linecap="round"/><path d="M222.91872,160.23573l14.07273,-0.40791" fill="none" stroke-linecap="round"/><path d="M241.58693,157.12217c0,0 4.71011,-1.79905 9.8105,-1.37119c3.20436,0.10838 8.54523,2.187 8.54523,2.187" fill="none" stroke-linecap="round"/></g></g></svg>