<svg version="1.1" xmlns="http://www.w3.org/2000/svg" xmlns:xlink="http://www.w3.org/1999/xlink" width="84.34142" height="77.16696" viewBox="0,0,84.34142,77.16696"><g transform="translate(-195.125,-141.41896)"><g data-paper-data="{&quot;isPaintingLayer&quot;:true}" fill-rule="nonzero" stroke-linejoin="miter" stroke-miterlimit="10" stroke-dasharray="" stroke-dashoffset="0" style="mix-blend-mode: normal"><path d="M240.57588,217.33118c-21.10636,0.3256 -38.47425,-16.12416 -38.7923,-36.74158c-0.31804,-20.61739 16.5342,-37.59506 37.64054,-37.92063c21.10636,-0.3256 38.47425,16.12416 38.7923,36.74158c0.31804,20.61739 -16.5342,37.59506 -37.64054,37.92063z" fill="#ffffff" stroke="#000000" stroke-width="2.5" stroke-linecap="butt"/><path d="M197.125,184.50007l-2,-0.25" fill="none" stroke="none" stroke-width="0" stroke-linecap="round"/><path d="M228.98724,163.74719l0.57413,23.39568" fill="none" stroke="#000000" stroke-width="2.5" stroke-linecap="round"/><path d="M248.19994,162.31187l0.14353,23.9698" fill="none" stroke="#000000" stroke-width="2.5" stroke-linecap="round"/><path d="M255.24168,198.22634c0,0 -2.39182,3.19814 -4.01697,3.23739c-4.59812,0.11107 -26.41176,0.63797 -26.41176,0.63797" fill="none" stroke="#000000" stroke-width="2.5" stroke-linecap="round"/><path d="M223.96363,163.02952c0,0 2.75109,-1.18646 4.30712,-1.20808c1.84069,-0.02557 6.02717,1.06454 6.02717,1.06454" fill="none" stroke="#000000" stroke-width="2.5" stroke-linecap="round"/><path d="M242.74573,162.16833c0,0 3.01847,-1.29179 4.73655,-1.29179c2.05038,0 6.74599,1.29179 6.74599,1.29179" fill="none" stroke="#000000" stroke-width="2.5" stroke-linecap="round"/></g></g></svg>