<svg version="1.1" xmlns="http://www.w3.org/2000/svg" xmlns:xlink="http://www.w3.org/1999/xlink" width="77.93297" height="76.19018" viewBox="0,0,77.93297,76.19018"><g transform="translate(-201.03365,-141.90739)"><g data-paper-data="{&quot;isPaintingLayer&quot;:true}" fill-rule="nonzero" stroke="#000000" stroke-linejoin="miter" stroke-miterlimit="10" stroke-dasharray="" stroke-dashoffset="0" style="mix-blend-mode: normal"><path d="M240.56849,216.84289c-20.83024,0.32133 -37.97094,-15.91323 -38.28483,-36.26093c-0.31389,-20.34768 16.3179,-37.10324 37.14814,-37.42456c20.83024,-0.32133 37.97094,15.91323 38.28483,36.26093c0.31389,20.34768 -16.3179,37.10324 -37.14814,37.42456z" fill="#ffffff" stroke-width="2.5" stroke-linecap="butt"/><path d="M257.21342,199.78143c0,0 -3.09598,-1.91992 -5.78389,-1.82865c-5.54273,0.1882 -25.4586,0.86442 -25.4586,0.86442" fill="none" stroke-width="2.5" stroke-linecap="round"/><path d="M238.50564,168.10525c0,9.10266 -5.48656,16.48183 -12.25458,16.48183c-6.76801,0 -12.25458,-7.37917 -12.25458,-16.48183c0,-4.81977 -2.40076,2.9568 0.05143,-0.057c2.17903,-2.67808 20.39798,-0.73731 23.5824,-0.73731c3.11404,0 -1.33761,-1.81361 0.82425,0.75985c2.5367,3.01968 0.05107,-4.87998 0.05107,0.03445z" fill="#000000" stroke-width="2.5" stroke-linecap="butt"/><path d="M264.04237,167.96801c0,9.10267 -4.75712,16.77361 -11.52514,16.77361c-6.76801,0 -12.25458,-7.37916 -12.25458,-16.48183c0,-4.81977 -2.40076,2.9568 0.05143,-0.05699c2.17903,-2.67808 20.39798,-0.73731 23.5824,-0.73731c3.11404,0 -1.33761,-1.81361 0.82425,0.75985c2.5367,3.01968 -0.67836,-5.17176 -0.67836,-0.25733z" fill="#000000" stroke-width="2.5" stroke-linecap="butt"/><path d="M211.71005,167.26603l55.2223,0.21716" fill="none" stroke-width="6" stroke-linecap="round"/></g></g></svg>