<svg version="1.1" xmlns="http://www.w3.org/2000/svg" xmlns:xlink="http://www.w3.org/1999/xlink" width="77.93297" height="76.19018" viewBox="0,0,77.93297,76.19018"><g transform="translate(-201.03355,-141.90726)"><g data-paper-data="{&quot;isPaintingLayer&quot;:true}" fill-rule="nonzero" stroke-linejoin="miter" stroke-miterlimit="10" stroke-dasharray="" stroke-dashoffset="0" style="mix-blend-mode: normal"><path d="M240.56839,216.84276c-20.83024,0.32133 -37.97094,-15.91323 -38.28483,-36.26093c-0.31389,-20.34768 16.3179,-37.10324 37.14814,-37.42456c20.83024,-0.32133 37.97094,15.91323 38.28483,36.26093c0.31389,20.34768 -16.3179,37.10324 -37.14814,37.42456z" fill="#ffffff" stroke="#000000" stroke-width="2.5" stroke-linecap="butt"/><path d="M231.23394,183.97355l-0.20395,-24.67826" fill="none" stroke="#000000" stroke-width="2.5" stroke-linecap="round"/><path d="M246.93841,158.9846l0.20395,24.67826" fill="none" stroke="#000000" stroke-width="2.5" stroke-linecap="round"/><path d="M262.66492,182.84629c1.11803,0.55902 0.55902,1.67705 0.55902,1.67705l-0.32442,0.57455c-4.02705,4.82568 -6.66005,11.43935 -13.05461,13.54878c-2.30182,0.75932 -4.85611,0.56766 -7.239,0.56766c-10.0873,0 -21.47863,-1.0855 -25.82726,-11.78576c0,0 -0.46424,-1.1606 0.69636,-1.62483c1.1606,-0.46424 1.62483,0.69636 1.62483,0.69636c3.79263,9.66656 14.62035,10.21424 23.50607,10.21424c2.08046,0 4.42019,0.24567 6.42766,-0.43234c5.75151,-1.94252 8.28699,-8.38873 11.94539,-12.78456l0.00891,-0.09212c0,0 0.55902,-1.11803 1.67705,-0.55902z" fill="#000000" stroke="none" stroke-width="0.5" stroke-linecap="butt"/></g></g></svg>