<svg version="1.1" xmlns="http://www.w3.org/2000/svg" xmlns:xlink="http://www.w3.org/1999/xlink" width="482.16667" height="364.16667" viewBox="0,0,482.16667,364.16667"><g transform="translate(1.41663,2.91666)"><g data-paper-data="{&quot;isPaintingLayer&quot;:true}" fill-rule="nonzero" stroke-linejoin="miter" stroke-miterlimit="10" stroke-dasharray="" stroke-dashoffset="0" style="mix-blend-mode: normal"><path d="M-0.16662,264.33334v-266h479v266z" fill="#caffff" stroke="#000000" stroke-width="2.5" stroke-linecap="butt"/><path d="M1.50005,360.00001v-97h478v97z" fill="#00d01b" stroke="#000000" stroke-width="2.5" stroke-linecap="butt"/><text transform="translate(101.33338,74.21522) scale(1.08049,1.08049)" font-size="40" xml:space="preserve" data-paper-data="{&quot;index&quot;:null}" fill="#000000" fill-rule="nonzero" stroke="none" stroke-width="1" stroke-linecap="butt" stroke-linejoin="miter" stroke-miterlimit="10" stroke-dasharray="" stroke-dashoffset="0" font-family="Pixel" font-weight="normal" text-anchor="start" style="mix-blend-mode: normal"><tspan x="0" dy="0">Tactigun! </tspan></text><path d="M111.56836,260.84277c-20.83024,0.32133 -37.97094,-15.91323 -38.28483,-36.26093c-0.31389,-20.34768 16.3179,-37.10324 37.14814,-37.42456c20.83024,-0.32133 37.97094,15.91323 38.28483,36.26093c0.31389,20.34768 -16.3179,37.10324 -37.14814,37.42456z" fill="#ffffff" stroke="#000000" stroke-width="2.5" stroke-linecap="butt"/><path d="M111.34662,231.58425l-0.65517,-23.58651" fill="none" stroke="#000000" stroke-width="2.5" stroke-linecap="round"/><path d="M126.68225,230.92758l-0.08166,-24.17799" fill="none" stroke="#000000" stroke-width="2.5" stroke-linecap="round"/><path d="M128.75402,246.15861l-31.44568,1.06771" fill="none" stroke="#000000" stroke-width="2.5" stroke-linecap="round"/><text transform="translate(178.83339,109.98773) scale(0.68947,0.68947)" font-size="40" xml:space="preserve" fill="#000000" fill-rule="nonzero" stroke="none" stroke-width="1" stroke-linecap="butt" stroke-linejoin="miter" stroke-miterlimit="10" stroke-dasharray="" stroke-dashoffset="0" font-family="Pixel" font-weight="normal" text-anchor="start" style="mix-blend-mode: normal"><tspan x="0" dy="0">PVE!</tspan></text><path d="M128.75,197.91669l-14,11l-14.5,-10" fill="none" stroke="#000000" stroke-width="2.5" stroke-linecap="round"/><path d="M248.58638,224.06273c1.25287,-20.31151 19.12474,-35.73749 39.91795,-34.4549c20.7932,1.28259 36.63376,18.78806 35.38088,39.09956c-1.25288,20.31151 -19.12474,35.73749 -39.91794,34.4549c-20.7932,-1.28258 -36.63376,-18.78806 -35.38089,-39.09956z" data-paper-data="{&quot;index&quot;:null}" fill="#ababab" stroke="#000000" stroke-width="2.5" stroke-linecap="butt"/><path d="M260.64416,214.81456c0.43599,-7.0682 12.61304,-12.06878 27.1982,-11.16913c14.58516,0.89965 26.05533,7.35887 25.61935,14.42707c-0.43599,7.0682 -12.61304,12.06878 -27.19819,11.16913c-14.58516,-0.89965 -26.05533,-7.35887 -25.61935,-14.42706z" data-paper-data="{&quot;index&quot;:null}" fill="#ababab" stroke="#000000" stroke-width="2.5" stroke-linecap="butt"/><path d="M289.91575,216.31425c0.25259,-4.09506 3.68612,-7.21561 7.66899,-6.96993c3.98287,0.24568 7.00685,3.76453 6.75426,7.8596c-0.25259,4.09507 -3.68612,7.21561 -7.66899,6.96993c-3.98287,-0.24568 -7.00685,-3.76453 -6.75426,-7.8596z" data-paper-data="{&quot;index&quot;:null}" fill="#ababab" stroke="#000000" stroke-width="2.5" stroke-linecap="butt"/><path d="M269.98255,215.49254c0.25259,-4.09506 3.73158,-7.2128 7.77056,-6.96367c4.03897,0.24913 7.10843,3.7708 6.85584,7.86586c-0.25259,4.09507 -3.73159,7.21281 -7.77057,6.96367c-4.03897,-0.24913 -7.10842,-3.7708 -6.85583,-7.86587z" data-paper-data="{&quot;index&quot;:null}" fill="#ababab" stroke="#000000" stroke-width="2.5" stroke-linecap="butt"/><path d="M266.61925,240.26494c0.22145,-3.59018 9.90533,-5.91435 21.62956,-5.19117c11.72422,0.72319 21.04906,4.21987 20.82761,7.81005c-0.22145,3.59019 -9.90534,5.91437 -21.62956,5.19119c-11.72422,-0.72319 -21.04906,-4.21988 -20.82761,-7.81007z" data-paper-data="{&quot;index&quot;:null}" fill="#ababab" stroke="#000000" stroke-width="2.5" stroke-linecap="butt"/><path d="M299.31165,216.99578c-0.08501,1.37809 -1.27108,2.42634 -2.64917,2.34134c-1.37809,-0.085 -2.42635,-1.27108 -2.34134,-2.64917c0.08501,-1.37809 1.27108,-2.42635 2.64917,-2.34135c1.37809,0.085 2.42635,1.27109 2.34134,2.64918z" data-paper-data="{&quot;index&quot;:null}" fill="#000000" stroke="none" stroke-width="0.5" stroke-linecap="butt"/><path d="M279.02227,215.33643c-0.08501,1.37809 -1.27108,2.42635 -2.64917,2.34134c-1.37809,-0.085 -2.42635,-1.27108 -2.34134,-2.64917c0.08501,-1.37809 1.27108,-2.42634 2.64917,-2.34134c1.37809,0.085 2.42635,1.27108 2.34134,2.64917z" data-paper-data="{&quot;index&quot;:null}" fill="#000000" stroke="none" stroke-width="0.5" stroke-linecap="butt"/><path d="M289.89696,216.61897l10.86424,-4.22387" data-paper-data="{&quot;index&quot;:null}" fill="none" stroke="#000000" stroke-width="2.5" stroke-linecap="round"/><path d="M284.36194,217.09322l-12.26916,-6.05864" data-paper-data="{&quot;index&quot;:null}" fill="none" stroke="#000000" stroke-width="2.5" stroke-linecap="round"/><path d="M279.15877,235.32874l-0.61399,9.95407" data-paper-data="{&quot;index&quot;:null}" fill="none" stroke="#000000" stroke-width="2.5" stroke-linecap="round"/><path d="M286.07821,235.55164l-0.2829,11.19799" data-paper-data="{&quot;index&quot;:null}" fill="none" stroke="#000000" stroke-width="2.5" stroke-linecap="round"/><path d="M293.5148,247.22579l0.49857,-11.38861" data-paper-data="{&quot;index&quot;:null}" fill="none" stroke="#000000" stroke-width="2.5" stroke-linecap="round"/><path d="M300.85762,237.27894l-0.14506,8.96341" data-paper-data="{&quot;index&quot;:null}" fill="none" stroke="#000000" stroke-width="2.5" stroke-linecap="round"/><path d="M307.67947,242.38983l-39.44759,-1.82149" data-paper-data="{&quot;index&quot;:null}" fill="none" stroke="#000000" stroke-width="2.5" stroke-linecap="round"/><path d="M288.3508,188.79085l1.25571,-17.05159" data-paper-data="{&quot;index&quot;:null}" fill="none" stroke="#000000" stroke-width="2.5" stroke-linecap="round"/><path d="M291.92368,171.47436c-0.08501,1.37809 -1.27109,2.42634 -2.64918,2.34134c-1.37809,-0.085 -2.42635,-1.27108 -2.34134,-2.64917c0.08501,-1.37809 1.27108,-2.42635 2.64917,-2.34135c1.37809,0.085 2.42635,1.27109 2.34134,2.64918z" data-paper-data="{&quot;index&quot;:null}" fill="#000000" stroke="none" stroke-width="0.5" stroke-linecap="butt"/><path d="M349.70124,227.05059c-0.34922,-20.34712 16.25343,-37.13152 37.08308,-37.48903c20.82965,-0.35751 37.99852,15.84728 38.34775,36.19438c0.34922,20.34712 -16.25344,37.13152 -37.08309,37.48902c-20.82965,0.35751 -37.99852,-15.84727 -38.34774,-36.19438z" data-paper-data="{&quot;index&quot;:null}" fill="#ababab" stroke="#000000" stroke-width="2.5" stroke-linecap="butt"/><path d="M360.99395,216.88232c-0.12153,-7.08059 11.62429,-13.02382 26.23502,-13.27459c14.61073,-0.25077 26.55359,5.28589 26.67511,12.36648c0.12153,7.08059 -11.62429,13.02382 -26.23502,13.27459c-14.61073,0.25077 -26.55358,-5.28589 -26.67511,-12.36648z" data-paper-data="{&quot;index&quot;:null}" fill="#ababab" stroke="#000000" stroke-width="2.5" stroke-linecap="butt"/><path d="M390.29278,216.07412c-0.07041,-4.10224 3.10693,-7.48328 7.09678,-7.55176c3.98985,-0.06848 7.28135,3.20153 7.35176,7.30378c0.07041,4.10225 -3.10693,7.48328 -7.09678,7.55176c-3.98985,0.06848 -7.28134,-3.20153 -7.35175,-7.30378z" data-paper-data="{&quot;index&quot;:null}" fill="#ababab" stroke="#000000" stroke-width="2.5" stroke-linecap="butt"/><path d="M370.35672,216.82341c-0.07041,-4.10224 3.15247,-7.48406 7.19853,-7.55351c4.04606,-0.06945 7.3831,3.19978 7.45351,7.30202c0.07041,4.10225 -3.15248,7.48406 -7.19854,7.55351c-4.04604,0.06945 -7.38308,-3.19978 -7.45349,-7.30202z" data-paper-data="{&quot;index&quot;:null}" fill="#ababab" stroke="#000000" stroke-width="2.5" stroke-linecap="butt"/><path d="M368.95307,241.78364c-0.06173,-3.59648 9.40925,-6.67542 21.15403,-6.877c11.74478,-0.20158 21.31584,2.55053 21.37757,6.14702c0.06173,3.59649 -9.40925,6.67543 -21.15403,6.87702c-11.74478,0.20158 -21.31584,-2.55054 -21.37757,-6.14703z" data-paper-data="{&quot;index&quot;:null}" fill="#ababab" stroke="#000000" stroke-width="2.5" stroke-linecap="butt"/><path d="M399.71317,216.01422c0.02369,1.3805 -1.07622,2.51884 -2.45673,2.54253c-1.38051,0.0237 -2.51884,-1.07622 -2.54253,-2.45673c-0.02369,-1.3805 1.07622,-2.51884 2.45673,-2.54253c1.38051,-0.0237 2.51884,1.07622 2.54253,2.45673z" data-paper-data="{&quot;index&quot;:null}" fill="#000000" stroke="none" stroke-width="0.5" stroke-linecap="butt"/><path d="M379.35615,215.95649c0.02369,1.3805 -1.07622,2.51884 -2.45673,2.54253c-1.38051,0.0237 -2.51884,-1.07622 -2.54253,-2.45673c-0.02369,-1.3805 1.07622,-2.51884 2.45673,-2.54253c1.38051,-0.0237 2.51884,1.07622 2.54253,2.45673z" data-paper-data="{&quot;index&quot;:null}" fill="#000000" stroke="none" stroke-width="0.5" stroke-linecap="butt"/><path d="M390.29802,216.37937l10.4982,-5.06563" data-paper-data="{&quot;index&quot;:null}" fill="none" stroke="#000000" stroke-width="2.5" stroke-linecap="round"/><path d="M372.10964,212.21322l12.70784,5.07446" data-paper-data="{&quot;index&quot;:null}" fill="none" stroke="#000000" stroke-width="2.5" stroke-linecap="round"/><path d="M381.06531,235.87607l0.17114,9.97153" data-paper-data="{&quot;index&quot;:null}" fill="none" stroke="#000000" stroke-width="2.5" stroke-linecap="round"/><path d="M388.57993,246.73936l-0.5991,-11.18553" data-paper-data="{&quot;index&quot;:null}" fill="none" stroke="#000000" stroke-width="2.5" stroke-linecap="round"/><path d="M396.31296,246.60663l-0.39909,-11.39253" data-paper-data="{&quot;index&quot;:null}" fill="none" stroke="#000000" stroke-width="2.5" stroke-linecap="round"/><path d="M402.85034,236.11285l0.56068,8.94704" data-paper-data="{&quot;index&quot;:null}" fill="none" stroke="#000000" stroke-width="2.5" stroke-linecap="round"/><path d="M410.05319,240.67111l-39.46861,1.28809" data-paper-data="{&quot;index&quot;:null}" fill="none" stroke="#000000" stroke-width="2.5" stroke-linecap="round"/><path d="M386.567,188.75919l-0.08989,-17.09752" data-paper-data="{&quot;index&quot;:null}" fill="none" stroke="#000000" stroke-width="2.5" stroke-linecap="round"/><path d="M388.76625,171.21526c0.02369,1.3805 -1.07622,2.51884 -2.45673,2.54253c-1.38051,0.0237 -2.51884,-1.07622 -2.54253,-2.45673c-0.02369,-1.3805 1.07622,-2.51884 2.45673,-2.54254c1.38051,-0.0237 2.51884,1.07623 2.54253,2.45673z" data-paper-data="{&quot;index&quot;:null}" fill="#000000" stroke="none" stroke-width="0.5" stroke-linecap="butt"/></g></g></svg>