<svg version="1.1" xmlns="http://www.w3.org/2000/svg" xmlns:xlink="http://www.w3.org/1999/xlink" width="1124" height="726" viewBox="0,0,1124,726"><defs><linearGradient x1="237.66667" y1="95" x2="237.66667" y2="302" gradientUnits="userSpaceOnUse" id="color-1"><stop offset="0" stop-color="#00dada"/><stop offset="1" stop-color="#999999"/></linearGradient><linearGradient x1="99.53051" y1="194.51677" x2="218.02692" y2="161.87143" gradientUnits="userSpaceOnUse" id="color-2"><stop offset="0" stop-color="#fcf2ff"/><stop offset="1" stop-color="#ffffff"/></linearGradient><linearGradient x1="355.77933" y1="272.75016" x2="413.30621" y2="272.75016" gradientUnits="userSpaceOnUse" id="color-3"><stop offset="0" stop-color="#fcf2ff"/><stop offset="1" stop-color="#ffffff"/></linearGradient><linearGradient x1="268.30622" y1="273.25016" x2="210.77933" y2="273.25016" gradientUnits="userSpaceOnUse" id="color-4"><stop offset="0" stop-color="#fcf2ff"/><stop offset="1" stop-color="#ffffff"/></linearGradient></defs><g transform="translate(226.5,101.79334)"><g data-paper-data="{&quot;isPaintingLayer&quot;:true}" stroke-linejoin="miter" stroke-miterlimit="10" stroke-dasharray="" stroke-dashoffset="0" style="mix-blend-mode: normal"><path d="M-226.5,624.20666v-726h1124v726z" fill="#571ab1" fill-rule="nonzero" stroke="none" stroke-width="0" stroke-linecap="butt"/><path d="M-51,198.5c0,-91.173 73.91033,-165.08333 165.08334,-165.08333c91.173,0 165.08334,73.91033 165.08334,165.08334c0,91.173 -73.91033,165.08334 -165.08334,165.08334c-91.173,0 -165.08334,-73.91033 -165.08334,-165.08334z" fill="#0077b8" fill-rule="evenodd" stroke="none" stroke-width="1" stroke-linecap="butt"/><path d="M-48.63067,170.56717c-0.27061,1.58156 -0.51716,3.17514 -0.73966,4.76873c0.2225,-1.62365 0.46906,-3.21724 0.73966,-4.76873z" fill="#74b140" fill-rule="evenodd" stroke="none" stroke-width="1" stroke-linecap="butt"/><path d="M-47.33175,168.72703c-0.49403,0.55775 -0.93304,1.16192 -1.31095,1.80406c0.21649,-1.25883 0.445,-2.50964 0.68554,-3.75244v-0.03608c0.24655,-1.25081 0.50514,-2.4896 0.77574,-3.72839c0.393,0.16029 0.75829,0.3815 1.08243,0.65547c0.6675,0.57129 1.40115,1.59358 1.20271,2.53169c-0.23453,1.11852 -1.68379,1.71386 -2.43548,2.52568z" fill="#74b140" fill-rule="evenodd" stroke="none" stroke-width="1" stroke-linecap="butt"/><path d="M-28.76198,119.07334c-0.83439,0.77908 -1.81007,1.39144 -2.87447,1.80406c0.60537,-1.14257 1.22676,-2.27311 1.86419,-3.39163c4.44642,-7.83478 9.52676,-15.29241 15.19017,-22.29816c0.91406,-1.13456 1.84214,-2.25909 2.78426,-3.37359c1.16183,0.32345 2.19785,0.99247 2.97068,1.91832c1.17865,1.43723 0.98622,2.20095 0.22851,3.40366c0.69847,-0.0865 1.38335,-0.26024 2.03859,-0.51716c0.78887,-0.20368 1.61654,-0.20368 2.40541,0c1.56352,0.43899 2.8023,1.66575 3.75244,2.92859c1.54548,2.05061 2.53169,4.50413 3.65622,6.8013l3.57203,7.29441c1.0223,2.08068 2.96467,6.58481 -0.04209,8.09421c-1.11713,0.48492 -2.41404,0.27853 -3.32548,-0.52919c-0.64345,-0.4871 -1.56953,-1.90629 -2.4896,-2.32723c0.3075,2.58319 1.02618,5.10057 2.12879,7.45677c0.17863,0.33184 0.14568,0.73768 -0.08417,1.03634c-0.22985,0.29866 -0.6137,0.43446 -0.98022,0.34677c-0.84416,-0.18442 -1.7159,-0.20484 -2.56778,-0.06014c0.43297,1.99048 0.39088,4.04109 -1.41318,5.38211c-0.25347,0.14405 -0.55905,0.16376 -0.82892,0.05346c-0.26987,-0.1103 -0.47417,-0.33838 -0.55419,-0.61873c-1.90091,-5.69176 -6.18628,-10.27351 -11.7384,-12.55023c-0.38285,-0.1346 -0.63903,-0.49621 -0.63903,-0.90203c0,-0.40582 0.25618,-0.76743 0.63903,-0.90203c2.14082,-0.56527 4.45602,-0.51716 6.5367,-1.29291c1.09188,-0.34124 2.03274,-1.04847 2.66399,-2.0025c0.52318,-0.9802 -0.01203,-1.96642 -0.30068,-2.95866c-1.01027,-3.44575 -2.49561,-8.20846 -6.87947,-8.30468c-4.25156,-0.11426 -3.34953,5.09346 -4.45001,7.81758c-0.94412,2.24906 -2.91055,3.94487 -5.41217,3.09697c-0.90804,-0.30669 -1.90629,-1.09446 -2.83237,-0.41493c-0.494,0.49055 -0.87384,1.08392 -1.1125,1.73791c-0.54723,1.1546 -0.99825,2.34528 -1.90629,3.27136z" fill="#74b140" fill-rule="evenodd" stroke="none" stroke-width="1" stroke-linecap="butt"/><path d="M31.25903,273.66307c1.43723,5.00325 -3.90278,7.61312 -5.52042,11.61813c-1.97845,4.87697 -0.04209,10.4455 -2.24305,15.32848c-0.88003,1.97607 -2.47675,3.54485 -4.46805,4.38987c-2.43548,1.08845 -4.90704,1.62365 -6.87346,3.55399c-3.59609,3.52994 -5.0694,8.99022 -7.43873,13.58456c-1.90629,-1.66575 -3.71035,-3.38562 -5.5144,-5.13555c-2.98271,-2.89251 -5.8692,-5.87522 -8.6234,-8.98421c-4.43107,-4.98963 -8.55588,-10.24304 -12.35178,-15.73139c-9.89562,-14.29699 -17.45856,-30.07443 -22.4064,-46.74314l0.06615,0.03608c3.6442,-2.97068 5.90528,-9.05036 11.53394,-7.49285c0.27924,0.08354 0.50556,0.28916 0.61542,0.55914c0.10987,0.26998 0.09142,0.57521 -0.05015,0.82999c-0.15034,0.32473 -0.29466,0.65547 -0.445,0.98622l9.62164,1.23277c2.65798,0.33676 6.17589,0.17439 8.07015,2.3573c0.81183,0.93811 1.22676,2.14683 2.01453,3.09697c0.99357,1.0912 2.25652,1.90205 3.66224,2.35129c2.31521,0.85993 4.8469,1.14858 7.12603,2.14683c1.91967,0.75894 3.57963,2.05557 4.78075,3.7344c0.52782,0.78955 0.85595,1.69551 0.95615,2.63994c0.13831,1.40717 -0.3548,2.20095 1.05237,3.1571c1.40717,0.95615 3.1571,1.61764 4.67852,2.40541c1.26885,0.66149 2.53169,1.37108 3.8246,1.97244c2.66399,1.27487 5.29792,0.80581 8.02204,1.59358c1.02864,0.31616 1.95853,0.8919 2.70007,1.67176c0.33964,0.39471 0.70315,0.76824 1.08845,1.11852c0.75169,0.58933 1.65372,0.5773 2.55575,0.74568c1.76798,0.33074 3.09095,1.20872 3.56602,2.9767z" fill="#74b140" fill-rule="evenodd" stroke="none" stroke-width="1" stroke-linecap="butt"/><path d="M-49.45362,202.5441c-0.46115,-0.26386 -1.02398,-0.27855 -1.49827,-0.03909c-0.04811,-1.335 -0.04811,-2.66399 -0.04811,-4.00501c0,-1.2468 0.02405,-2.49561 0.07216,-3.74643c0,-0.39689 0,-0.7998 0,-1.20271c0.03007,-0.86595 0.06014,-1.73791 0.10223,-2.60386c0.02405,-0.54122 0.07818,-1.08243 0.07818,-1.61764c0.04811,-0.94412 0.10824,-1.83413 0.17439,-2.74818c0.04811,-0.74568 0.11426,-1.48534 0.17439,-2.225l0.1323,-0.95014c0.24456,-2.7101 0.55524,-5.40416 0.9321,-8.08218c0.40892,0.48108 1.04635,0.64946 1.96642,0.10223c0.92007,-0.54723 1.31696,-1.5996 1.62967,-2.56176c0.60135,-1.84014 0.99825,-5.64069 3.33751,-6.24204c1.92433,-0.4871 2.82034,1.78 2.91656,3.27136c0.01016,1.13154 -0.12731,2.25957 -0.40892,3.35555c2.6219,-2.14683 6.68704,-4.8469 2.3573,-7.30042c-1.36014,-0.70584 -2.42563,-1.87148 -3.00676,-3.2894c-0.79379,-1.71987 -1.77399,-2.70609 -3.69832,-3.00676c-0.68873,-0.10137 -1.38466,-0.14562 -2.08068,-0.1323c0.64946,-2.68203 1.37108,-5.34603 2.14683,-7.97995c0.06615,-0.21649 0.1323,-0.43297 0.19243,-0.64345c0.23453,-0.78176 0.47507,-1.56352 0.72162,-2.33926c0.0902,-0.27061 0.18642,-0.58331 0.28264,-0.87196c0.37284,-1.1546 0.7577,-2.30919 1.1546,-3.45176l0.60135,-1.6898l0.57129,-1.56352c0.25858,-0.67953 0.51716,-1.36507 0.78176,-2.0446c0.15635,-0.40291 0.30669,-0.80581 0.46304,-1.20271c0.47507,0.3548 0.93811,0.70358 1.37108,1.04034c4.52217,3.59008 8.23252,9.26684 7.02981,15.17814c1.34703,0 2.44149,-1.11852 2.85041,-2.45352c0.51716,-1.71386 0.00601,-3.59008 -0.39088,-5.27988c-0.07594,-0.28438 -0.01666,-0.5879 0.1607,-0.82282c0.17735,-0.23492 0.45303,-0.37505 0.74735,-0.37989c2.19551,0.32469 4.34001,-0.84649 5.25355,-2.86914c0.91354,-2.02265 0.37443,-4.4059 -1.32071,-5.83844c-0.20548,-0.20708 -0.30368,-0.49751 -0.26605,-0.78679c0.03763,-0.28928 0.20687,-0.54492 0.45849,-0.69253c3.40977,-1.39676 5.81007,-4.51302 6.29015,-8.16637c0.00994,-0.33368 0.1921,-0.63835 0.48134,-0.80503c0.28924,-0.16668 0.64418,-0.17152 0.93785,-0.01281c3.0669,1.31095 6.60285,3.01879 8.01002,6.26609c0.7998,1.82811 0.09622,4.54021 2.1769,5.50238c2.46555,1.13656 4.95515,-0.79379 6.8013,-2.24906c0.27568,-0.25285 0.67293,-0.32299 1.01854,-0.17985c0.34561,0.14314 0.57692,0.47363 0.59308,0.84735c0.79303,7.2721 2.827,14.35439 6.01353,20.9391c0.20736,0.37108 0.14302,0.83475 -0.15757,1.13534c-0.30059,0.30059 -0.76426,0.36493 -1.13534,0.15757c-1.71386,-0.91406 -3.93285,1.38311 -5.41217,2.05663c-1.70183,0.77574 -3.36156,0.64946 -5.12352,0.1323c-2.26109,-0.66149 -4.25156,-1.35304 -6.61488,-0.75169c-1.64801,0.42317 -3.13371,1.32505 -4.2696,2.59183l5.75495,0.1323c0.2945,0.00537 0.57029,0.14532 0.74852,0.37981c0.17823,0.2345 0.23922,0.53771 0.16554,0.82289c-0.5629,2.85761 0.43293,5.79929 2.61588,7.72738c0.22931,0.24116 0.31676,0.58418 0.23086,0.90568c-0.0859,0.3215 -0.33277,0.57521 -0.65181,0.66986c-1.56953,0.49311 -3.14507,1.09446 -4.74467,1.47933c-0.81659,0.28915 -1.72179,0.17544 -2.44149,-0.30669c-0.80581,-0.60737 -1.28088,-1.65973 -1.72588,-2.59784c-0.16722,0.29556 -0.3691,0.57011 -0.60135,0.81784c-0.99825,1.05237 -2.3573,1.20872 -3.67426,1.65372c-1.85818,0.62541 -3.999,2.38136 -2.96467,4.57028c0.16163,0.29411 0.15832,0.65119 -0.0087,0.94226c-0.16703,0.29107 -0.47366,0.47409 -0.80914,0.48295c-3.67303,0.35474 -7.03992,2.20011 -9.31495,5.10548c-0.49311,0.60737 -1.35304,0.18041 -1.57554,-0.42095c-0.00325,-0.01992 -0.00325,-0.04022 0,-0.06014c0.04811,1.22075 0.46906,2.4896 0.36683,3.69231c-0.12615,1.19071 -0.61529,2.31385 -1.40115,3.21724c-1.93636,2.36332 -4.93109,3.13906 -7.39062,4.76873c-5.81508,3.84264 -0.37885,11.47381 -3.84264,16.56125c-0.15052,0.24989 -0.40689,0.41741 -0.6962,0.45489c-0.28931,0.03748 -0.5799,-0.05917 -0.78914,-0.26246c-1.32929,-1.56959 -2.13829,-3.51328 -2.31521,-5.56251c-0.09622,-1.2448 0.39689,-2.44751 0.30669,-3.65021c-0.03389,-0.53023 -0.33174,-1.008 -0.79288,-1.27186z" fill="#74b140" fill-rule="evenodd" stroke="none" stroke-width="1" stroke-linecap="butt"/><path d="M-42.66525,222.56012c-1.62365,-0.445 -3.2473,-0.58331 -4.55224,-1.74994c-0.86595,-0.76973 -1.39514,-1.71386 -2.54372,-2.08669c-0.15034,-1.23879 -0.28865,-2.47757 -0.41493,-3.72839c0.64946,0.21649 1.27487,0.49912 1.80406,0.72764c1.15452,0.5006 2.26149,1.1044 3.30744,1.80406c0.92608,0.62541 1.77399,1.52744 2.76622,2.03257c1.32298,0.6675 2.89251,0.36683 4.32974,0.3548c1.43723,-0.01203 2.86845,0.04811 4.30569,0.13831c0.74568,0.05412 1.34102,1.04635 0.6675,1.61163c-1.37108,1.1546 -2.95264,2.42345 -4.81082,2.58582c-1.92433,0.16237 -3.10899,-1.19068 -4.85893,-1.6898z" fill="#74b140" fill-rule="evenodd" stroke="none" stroke-width="1" stroke-linecap="butt"/><path d="M-29.21901,224.22587c1.76798,0.04811 4.04109,0.99223 2.91055,3.14507c-0.16728,0.29244 -0.48101,0.47006 -0.81784,0.46304c-1.96041,-0.12628 -3.53595,0.445 -5.41217,0.75169c-0.89638,0.18788 -1.83067,0.02426 -2.60987,-0.45703c-0.27746,-0.03985 -0.52712,-0.18997 -0.69238,-0.41638c-0.16527,-0.22641 -0.23218,-0.50992 -0.18559,-0.78633c0.02249,-0.38882 0.25213,-0.73559 0.60135,-0.90804c0.56527,-0.7096 1.17865,-1.56352 2.02656,-1.80406c1.22676,-0.3548 2.92257,-0.02405 4.1794,0.01203z" fill="#74b140" fill-rule="evenodd" stroke="none" stroke-width="1" stroke-linecap="butt"/><path d="M-9.94565,89.583c1.17064,-1.35906 2.37334,-2.69406 3.60812,-4.00501c0.13119,0.18925 0.24395,0.39061 0.33676,0.60135c0.90203,2.0025 -0.52919,3.54197 -2.55575,3.54197c-0.46585,-0.01119 -0.93022,-0.05741 -1.38912,-0.13831z" fill="#74b140" fill-rule="evenodd" stroke="none" stroke-width="1" stroke-linecap="butt"/><path d="M-2.15647,84.26878c-0.3554,0.14557 -0.76342,0.06437 -1.036,-0.20619c-0.32674,-0.25933 -0.67475,-0.49066 -1.04034,-0.69156c0.90604,-0.92608 1.8221,-1.84615 2.74818,-2.76021c0,0.14432 0,0.28865 0,0.445c-0.02405,0.78176 -0.07818,1.5575 -0.07818,2.33926c-0.00447,0.38404 -0.23827,0.72812 -0.59367,0.87369z" fill="#74b140" fill-rule="evenodd" stroke="none" stroke-width="1" stroke-linecap="butt"/><path d="M-0.02333,79.19163c1.13054,-1.07642 2.27913,-2.14082 3.43372,-3.19318c0.07216,-0.06014 0.14432,-0.12027 0.21047,-0.18642c1.06439,-0.95615 2.14082,-1.89426 3.22926,-2.82636l0.48108,-0.40892c1.04635,-0.88199 2.10473,-1.76196 3.17514,-2.63994l0.36683,-0.29466c1.17865,-0.94612 2.36933,-1.87622 3.57203,-2.79028c2.20696,0.49912 4.69656,0.42696 6.33224,2.33325c0.22901,0.24152 0.31694,0.58426 0.23248,0.90621c-0.08446,0.32195 -0.32933,0.57736 -0.64742,0.67535l-4.81082,1.34102c-1.26284,0.34878 -2.76622,0.55324 -3.89677,1.2448c-1.0223,0.61939 -1.37108,1.78 -2.53169,2.225c-0.97419,0.37885 -1.96041,0.18642 -2.96467,0.18642c-2.07467,0.03608 -1.335,1.04635 -2.07467,2.34528c-0.38536,0.65609 -1.05022,1.09932 -1.80406,1.20271c-0.77574,0.16237 -1.56352,-0.12027 -2.30318,-0.12027z" fill="#74b140" fill-rule="evenodd" stroke="none" stroke-width="1" stroke-linecap="butt"/><path d="M53.76165,119.86712c-1.14843,0.21407 -2.25243,0.62069 -3.26534,1.20271c-0.89602,0.57129 -1.48534,1.41919 -2.24906,2.1348c-1.44926,1.34703 -2.89852,1.43723 -4.81082,1.34703c-4.73265,-0.2225 -6.85542,4.46805 -8.34076,8.23853c-1.28088,3.2473 -2.68203,6.50062 -5.76096,8.41894c-0.29367,0.16539 -0.65274,0.16393 -0.94507,-0.00382c-0.29233,-0.16775 -0.47475,-0.47702 -0.48014,-0.81402c-0.13965,-1.7323 -1.22802,-3.24443 -2.82636,-3.92683c-0.81784,-0.34277 -1.80406,-0.43899 -2.40541,-1.13656c-0.74568,-0.82385 -0.4871,-1.69581 -0.42696,-2.68805c0.09622,-1.74392 -0.57129,-3.09697 -1.31696,-4.64244c-1.04635,-2.16487 -1.67176,-4.24555 -1.37108,-6.65096c0.28865,-2.33926 1.23879,-4.52217 2.17088,-6.66299c1.07041,-2.53169 2.35129,-5.19569 2.40541,-8.01603c0.05412,-3.30744 -1.81609,-5.88724 -3.55399,-8.50914c-1.50338,-2.27913 -0.98622,-5.2919 -2.86244,-7.31245c-1.72832,-1.88041 -4.44616,-2.48305 -6.80731,-1.5094c-0.25347,0.14405 -0.55905,0.16376 -0.82892,0.05346c-0.26987,-0.1103 -0.47417,-0.33838 -0.55419,-0.61873c-0.24437,-1.03631 -0.04139,-2.12763 0.55926,-3.00676l-2.225,-0.72764c-0.31804,-0.09613 -0.56339,-0.35045 -0.648,-0.67176c-0.08461,-0.32129 0.00362,-0.66349 0.23307,-0.90379c0.37927,-0.47499 0.83687,-0.88173 1.35304,-1.20271c-1.01185,-0.90679 -1.59838,-2.19542 -1.61764,-3.55399c0.00328,-0.52006 0.42406,-0.94085 0.94412,-0.94412l5.91731,-0.03007l-0.78176,-2.9346c-0.07849,-0.28459 -0.02022,-0.58949 0.15766,-0.8251c0.17788,-0.23561 0.45518,-0.37515 0.75038,-0.3776c3.30143,0.36683 5.74893,-0.69156 8.7136,-1.89426c2.08068,-0.85993 4.45602,-0.81784 6.67501,-0.76973c1.97932,-0.03292 3.94555,0.32681 5.78501,1.05838c0.94445,0.42194 1.80122,1.01759 2.52568,1.75595l0.54122,0.60135c0.4871,0.38487 0.64946,0.38487 0.4871,0c0.09622,-0.21649 -0.16237,-0.90804 -0.1323,-1.20271c0.14432,-1.58757 1.65973,-2.52568 3.10298,-2.70007c1.44325,-0.17439 2.82636,0.29466 4.2696,-0.07216c1.26284,-0.33074 2.42946,-1.02831 3.66825,-1.4673c1.87021,-0.66149 4.19744,-0.87196 5.6888,0.68554c0.65926,0.67102 1.0304,1.57297 1.03433,2.51365c3.01278,-0.60135 8.07015,-1.49737 8.46103,1.80406c0.08551,0.69761 -0.15389,1.39587 -0.64946,1.89426c0.61131,-0.01834 1.2213,0.06705 1.80406,0.25257c0.31809,0.09799 0.56296,0.35341 0.64742,0.67536c0.08446,0.32195 -0.00347,0.66468 -0.23248,0.90619c-1.75595,1.81007 0.95014,0.75169 1.85217,0.47507c0.95223,-0.28818 1.94697,-0.41024 2.94061,-0.36081c1.98388,0.09937 3.88241,0.83768 5.41217,2.10473c0.24453,0.23838 0.33912,0.59137 0.24655,0.92007c-0.71561,2.89852 -4.17339,1.93034 -5.69481,3.88474c-0.90203,1.1546 -0.75169,2.91055 -0.96818,4.28764c-0.23372,1.27957 -0.74031,2.49378 -1.48534,3.56001c-1.89426,3.13906 0.82385,7.4688 -0.92007,10.74617c-0.74756,1.48196 -2.53846,2.10025 -4.04109,1.39514l-0.72162,1.00426c2.36232,2.14845 2.60147,5.78086 0.54122,8.22049c-0.17729,0.21704 -0.45719,0.32258 -0.73365,0.27662c0.26711,0.28724 0.31128,0.71678 0.10824,1.05237c-1.93034,3.48183 -5.89326,3.85467 -9.33901,4.6665z" fill="#74b140" fill-rule="evenodd" stroke="none" stroke-width="1" stroke-linecap="butt"/><path d="M64.97688,134.78668c-1.7319,-0.13831 -4.20346,-0.52919 -5.27988,-2.06264c-1.20271,-1.71987 -0.10223,-4.60636 -1.87622,-5.97143c-0.51778,-0.71821 -0.51778,-1.6872 0,-2.40541c0.9802,-1.68379 2.23102,-1.17264 3.23528,-0.91406c0.88038,0.23184 1.66785,0.72952 2.25507,1.42521c1.02831,1.19068 1.66575,1.81609 3.33751,1.37108c2.25507,-0.60135 4.10724,-2.61588 6.61488,-2.1769c1.86419,0.34277 1.63568,1.84014 1.32899,3.34953c-0.41493,2.06264 -0.91406,4.60035 -2.77825,5.83913c-2.05577,1.23169 -4.45172,1.77325 -6.83738,1.54548z" fill="#74b140" fill-rule="evenodd" stroke="none" stroke-width="1" stroke-linecap="butt"/><path d="M107.50043,92.68854c-0.31299,-0.08524 -0.56084,-0.32429 -0.65738,-0.63398c-0.45703,-2.18892 -3.0669,-3.13305 -2.6219,-5.70082c0.37885,-2.24305 2.40541,-3.1992 4.46805,-2.8444c0.27202,0.04136 0.5013,0.22477 0.60135,0.48108c0.96216,-0.39088 1.89426,-1.51541 2.49561,-1.99048c0.70587,-0.58002 1.5252,-1.00606 2.40541,-1.25081c1.83413,-0.4871 3.80656,-0.17439 5.61062,0.27662c1.29291,0.32473 3.03683,0.70358 3.34953,2.24305c0.24054,1.26284 -0.84189,2.53771 -1.93636,2.86244c-1.09446,0.32473 -2.18892,-0.05412 -3.22926,-0.33676c-0.70358,-0.17439 -1.0223,-0.39689 -1.73791,0c-0.91406,0.52919 -0.55926,0.79379 -0.55926,1.7319c0.03007,1.85818 -0.29466,3.84866 -1.90629,5.01528c-0.96216,0.69156 -2.50764,0.97419 -3.39764,0c-0.40477,-0.44069 -0.5647,-1.05339 -0.42696,-1.63568l-0.04811,0.05412c-0.43899,0.5352 -1.03433,1.02831 -1.52142,1.51541c-0.24026,0.21796 -0.5751,0.29827 -0.88809,0.21303z" fill="#74b140" fill-rule="evenodd" stroke="none" stroke-width="1" stroke-linecap="butt"/><path d="M182.73977,239.51225c-2.32122,10.66198 -11.94286,16.98821 -17.35504,25.91229c-1.49486,2.36283 -2.53691,4.98324 -3.07291,7.72738c-0.56527,3.2473 0.24054,6.29015 0.73365,9.47732c0.60737,3.96893 0.18642,8.89401 -3.88474,10.87847c-1.02831,0.50514 -2.21298,0.67351 -3.07291,1.5996c-0.85993,0.92608 -0.98622,2.29717 -1.08845,3.49987c-0.16838,1.99048 -0.20446,3.90278 -0.92007,5.80305c-1.56352,4.17339 -4.60636,7.78752 -7.31846,11.26334c-2.44149,3.13305 -4.3117,7.31846 -7.71535,9.53144c-2.18291,1.43122 -5.14758,1.59358 -7.67927,1.80406c-2.24906,0.18041 -5.39413,0.64946 -7.53495,-0.30068c-1.42521,-0.63142 -2.18291,-2.72413 -2.78426,-4.02906c-0.90089,-1.96424 -1.63121,-4.00232 -2.18291,-6.0917c-1.34102,-4.87697 -2.59183,-9.69982 -4.05312,-14.58882c-1.46129,-4.889 -2.4896,-9.9584 -1.74994,-15.06388c0.41493,-2.87447 1.21473,-5.6888 0.9321,-8.61738c-0.24604,-2.46243 -1.07023,-4.83194 -2.40541,-6.91556c-1.19669,-1.86419 -3.25332,-3.21122 -4.15535,-5.23778c-0.90203,-2.02656 -0.12628,-4.01102 0.60135,-5.94738c0.46304,-1.18466 1.04034,-2.63392 0.60135,-3.90879c-0.48108,-1.40115 -1.98446,-1.37108 -3.1571,-1.80406c-1.53946,-0.56527 -2.72413,-1.66575 -3.99298,-2.66399c-0.96818,-0.76372 -2.14683,-1.7319 -3.48183,-1.41919c-0.91406,0.21649 -1.63568,0.99223 -2.40541,1.52744c-1.68379,1.17264 -3.52393,1.26284 -5.50839,1.13054c-1.53946,-0.10824 -3.0248,-0.25858 -4.51015,0.27662c-0.98622,0.3548 -1.89426,0.90804 -2.8444,1.34703c-1.56953,0.71561 -3.23528,1.19669 -4.95515,0.71561c-1.96642,-0.54723 -3.47582,-2.05663 -4.85292,-3.47582c-1.80406,-1.85818 -3.71636,-3.68028 -5.37008,-5.66474c-1.5094,-1.80406 -1.45527,-3.6021 -2.05663,-5.74893c-0.57129,-1.9544 -2.40541,-2.62791 -3.60812,-4.11927c-0.99085,-1.15944 -1.0604,-2.8461 -0.16838,-4.08318c0.60737,-0.95615 1.45527,-1.67777 1.50338,-2.88048c0.02487,-1.28527 -0.7108,-2.46424 -1.87622,-3.00676c-0.28835,-0.17208 -0.46612,-0.48206 -0.46906,-0.81784c-0.17862,-3.38715 1.05104,-6.69745 3.39764,-9.14657c0.6675,-0.67953 1.49737,-1.17264 2.15284,-1.84615c0.90804,-0.9321 0.72162,-1.81007 0.90804,-2.92859c0.18302,-1.13062 1.04804,-2.02919 2.17088,-2.25507c1.3771,-0.38487 2.74217,-0.16237 3.69231,-1.44325c0.71561,-0.97419 0.94412,-2.29717 1.20271,-3.45778c0.51716,-2.40541 1.05838,-4.78075 2.92257,-6.54873c4.63042,-4.38386 11.45577,-2.5798 17.12051,-2.9767c2.15331,-0.17976 4.24296,-0.81957 6.12778,-1.87622c1.16662,-0.60135 2.42946,-1.28689 3.78251,-1.28689c2.88048,-0.06014 3.63818,2.41744 4.78075,4.51015c0.97419,1.79203 2.54372,2.0446 4.34778,2.64595c1.22971,0.40557 2.37357,1.0356 3.37359,1.85818c1.35304,1.08845 2.70609,2.76622 4.47406,3.15109c0.89602,0.19243 2.53169,-0.09622 3.07893,-0.9802c-0.65547,-1.64771 0.7096,-3.36757 2.47757,-3.55399c1.60561,-0.18041 3.32548,0.58331 4.81082,1.0223l5.35805,1.57554c2.72413,0.80581 5.84515,1.40115 7.84765,3.39764c2.0025,1.99649 3.67426,4.45602 5.37609,6.7111c1.8836,2.45006 3.60705,5.01918 5.15961,7.6913c1.4673,2.59784 2.4896,5.38211 3.87271,8.01002c1.44926,2.7542 3.84264,4.43197 5.69481,6.83738c1.44325,1.87021 2.32723,5.03934 4.81082,5.779c2.20696,0.64946 4.65447,-0.91406 6.61488,-1.6898c1.85818,-0.73365 3.78852,-1.20271 5.71285,-0.42696c0.44276,0.17941 0.69171,0.65188 0.58933,1.11852z" fill="#74b140" fill-rule="evenodd" stroke="none" stroke-width="1" stroke-linecap="butt"/><path d="M180.82145,289.70115c-0.45567,1.94799 -1.18236,3.82244 -2.15886,5.56853c-1.1125,2.1769 -2.49561,3.999 -3.04886,6.44049c-0.41493,1.82811 -0.68554,3.7344 -1.71987,5.34603c-1.27487,1.97845 -5.15359,4.04109 -6.3563,0.77574c-1.03433,-2.8444 -0.54122,-6.47055 1.58757,-8.61738c-0.7519,-2.752 -0.18553,-5.69709 1.53345,-7.97394c1.18466,-1.53345 2.82636,-2.12277 4.28764,-3.42771c1.46129,-1.30494 2.34528,-3.10899 3.21122,-4.81082c0.22011,-0.3621 0.65338,-0.53468 1.06217,-0.42307c0.40878,0.11161 0.69425,0.48044 0.69979,0.90415c-0.11426,2.15886 1.30494,3.9569 0.90203,6.21799z" fill="#74b140" fill-rule="evenodd" stroke="none" stroke-width="1" stroke-linecap="butt"/><path d="M77.18434,152.45443c0.15534,-0.41427 0.60311,-0.63946 1.02831,-0.51716c0.42508,-0.09428 0.86778,-0.07143 1.28088,0.06615c0.28887,0.08649 0.51486,0.31248 0.60135,0.60135c0.73039,0.30828 1.38344,0.77447 1.9123,1.36507c1.02831,1.19669 1.05838,2.88048 1.28689,4.37183c0.18041,1.16061 0.42095,2.27311 -0.87797,2.78426c-1.86376,0.66723 -3.79596,1.12507 -5.76096,1.36507c-1.16061,0.15635 -2.36933,-0.03007 -2.82034,-1.32899c-0.45101,-1.29892 0.39689,-2.27913 1.23277,-3.10298c0.47036,-0.40322 0.82176,-0.9272 1.01629,-1.51541c0.02168,-0.57961 0.00762,-1.16002 -0.04209,-1.73791c0.02726,-0.64585 0.23566,-1.27102 0.60135,-1.80406c0.15402,-0.20675 0.33619,-0.39094 0.54122,-0.54723z" fill="#74b140" fill-rule="evenodd" stroke="none" stroke-width="1" stroke-linecap="butt"/><path d="M84.89368,150.79469c-0.71405,-1.65226 -0.88258,-3.48918 -0.48108,-5.2438c0.2225,-1.0223 0.73966,-1.74392 1.84014,-1.80406c2.1348,-0.12027 2.56778,0.52318 3.39163,2.59784c0.87196,2.20095 2.78426,3.72839 3.65021,5.96542c0.44499,1.08035 0.6244,2.25167 0.52318,3.41568c-0.06014,0.58933 -0.2646,1.09446 -0.37885,1.69581c-0.21047,1.06439 0.04811,1.94838 0.15635,3.00676c0.21649,2.0446 -0.86595,2.50163 -2.58582,3.15109c-1.4673,0.54122 -4.73265,1.64169 -5.89927,-0.06014c-1.04635,-1.57554 0.48108,-4.59433 1.20271,-6.01353c0.85392,-1.61163 1.41318,-2.73014 0.25257,-4.3117c-0.64691,-0.73345 -1.2078,-1.53849 -1.67176,-2.3994z" fill="#74b140" fill-rule="evenodd" stroke="none" stroke-width="1" stroke-linecap="butt"/><path d="M236.5909,244.3772c0.36873,0.95659 0.49876,1.98861 0.37885,3.00676c0.05364,1.04102 -0.01702,2.08471 -0.21047,3.10899c-0.42095,1.67176 -2.32122,2.4896 -3.60812,1.07041c-0.67351,-0.73966 -0.74568,-1.7319 -0.74568,-2.68203c-0.04209,-1.41919 0,-2.8444 0,-4.2696c0.00256,-0.15334 0.04173,-0.30385 0.11426,-0.43899c0.01739,-0.20696 0.10429,-0.40194 0.24655,-0.55324c1.14257,-1.27487 3.11501,-0.68554 3.8246,0.7577z" fill="#74b140" fill-rule="evenodd" stroke="none" stroke-width="1" stroke-linecap="butt"/><path d="M268.5107,256.96952c-0.3548,0.92608 -0.67953,1.79804 -1.07642,2.77224c-0.39689,0.97419 -0.79379,1.94838 -1.20271,2.91055c-0.7096,-1.08243 -1.41318,-2.16487 -2.12879,-3.2473l-2.81433,-4.26359c-0.85993,-1.29892 -1.68379,-2.76021 -3.21724,-3.33149c-0.99223,-0.01203 -1.34102,-1.58757 -0.24655,-1.84615h0.07216c0.08127,-0.02868 0.16644,-0.04491 0.25257,-0.04811c2.38737,-0.40291 4.15535,1.01027 5.72488,2.73014c1.45681,1.53348 3.00512,2.97737 4.63643,4.32373z" fill="#74b140" fill-rule="evenodd" stroke="none" stroke-width="1" stroke-linecap="butt"/><path d="M156.85154,98.88593c2.33926,-2.77825 4.81082,-5.46028 7.21623,-8.19042l3.60812,-4.0892c0.95014,-1.08845 1.84615,-2.33926 3.04886,-3.18717c1.60561,-1.12453 3.92683,-1.2448 4.81082,0.77574c0.88399,2.02054 -0.39689,3.9569 -2.02054,5.09346c-2.82636,1.97845 -10.4936,8.79178 -7.28238,12.45401c1.16061,1.32298 0,5.03934 -0.69156,5.28589c-0.51716,1.10048 -3.33149,0.82987 -3.24129,0.60135c-1.91832,-0.46304 -2.14082,-0.51115 -3.60812,-1.92433c-1.85818,-1.78602 -3.71035,-4.52217 -1.84014,-6.81934z" fill="#74b140" fill-rule="evenodd" stroke="none" stroke-width="1" stroke-linecap="butt"/><path d="M279.14863,198.5c-0.00401,1.2468 -0.02004,2.49361 -0.04811,3.74041c0,0.27061 0,0.54122 0,0.80581c-0.03007,1.07041 -0.07216,2.12879 -0.12027,3.19318c-0.02405,0.51115 -0.07818,1.0223 -0.07818,1.52744c-0.03608,0.7096 -0.08419,1.41919 -0.1323,2.12277c-0.06615,0.94412 -0.1323,1.83413 -0.21047,2.74818c-0.04209,0.15034 -0.04209,0.29466 -0.04209,0.445c-0.12828,1.47531 -0.27662,2.94261 -0.445,4.4019c-0.12428,1.12253 -0.2626,2.24105 -0.41493,3.35555c-0.20847,1.5074 -0.43497,3.01078 -0.67953,4.51015c-0.03608,0.24655 -0.07818,0.49311 -0.12027,0.73966c-0.19243,1.1145 -0.39288,2.225 -0.60135,3.33149c-0.0902,0.46906 -0.17439,0.93811 -0.27061,1.40115c-0.11426,0.58331 -0.23453,1.14858 -0.3548,1.74994c-0.19243,0.92608 -0.39689,1.85217 -0.60135,2.77224c-0.09622,0.42095 -0.19845,0.84189 -0.30068,1.26284c-0.20446,0.81784 -0.39689,1.61163 -0.60135,2.40541l-0.25257,1.0223c-0.59334,2.28915 -1.23679,4.56025 -1.93034,6.81333c-0.36882,1.20271 -0.75369,2.40541 -1.1546,3.60812v0.04811c-0.40491,1.20271 -0.81784,2.40541 -1.23879,3.60812c-1.83309,-2.30109 -3.33873,-4.84492 -4.47406,-7.559c-1.1174,-2.76243 -1.87726,-5.65632 -2.26109,-8.61137c-0.43297,-2.98271 -0.76973,-5.98947 -2.15886,-8.67151c-1.1546,0.9321 -2.65798,1.46129 -3.80055,0.11426c-0.82987,-0.97419 -1.13054,-2.42946 -1.68379,-3.57203c-0.67822,-1.38813 -1.45389,-2.72649 -2.32122,-4.00501c-0.9802,-1.44325 -2.0025,-3.40366 -3.94487,-3.16312c-1.12453,0.13831 -1.87622,0.55324 -3.04886,0.16838c-0.77644,-0.26016 -1.46548,-0.73063 -1.99048,-1.35906c-0.60042,2.19001 -1.73241,4.19783 -3.29541,5.84515c-1.31696,1.29892 -2.92859,2.09872 -3.92683,3.70433c-0.79521,1.39715 -1.32911,2.92755 -1.57554,4.51616c-1.01629,5.32197 -0.69156,12.38787 -6.42846,15.13605c-0.45178,0.25073 -1.02084,0.10252 -1.29291,-0.33676c-2.40541,-4.54021 -4.81082,-9.10448 -6.47055,-13.97544c-1.30494,-3.79454 -1.44325,-8.2686 -3.00676,-12.02705c-0.10223,0.54122 -0.20446,1.08845 -0.30068,1.62967c-0.08359,0.3245 -0.33698,0.5779 -0.66149,0.66149c-2.06865,0.28264 -3.36757,-0.89602 -4.47406,-2.53169c-1.53946,-2.27913 -2.86845,-4.7146 -4.25758,-7.12002l-0.15034,0.03007c-3.10899,0.33074 -6.21799,0.69156 -9.33299,0.99825c-1.98446,0.18642 -3.93886,0.24655 -5.59258,-1.01629c-0.99223,-0.73365 -1.68379,-1.83413 -2.79629,-2.36933c-0.35492,-0.16609 -0.72839,-0.28925 -1.1125,-0.36683c2.18892,2.99474 2.8444,8.03407 6.72914,8.80982c0.50115,0.1404 0.79607,0.65786 0.66149,1.16061c-4.47406,11.11901 -16.6695,14.38436 -27.27736,16.69956c-0.28518,0.07368 -0.58839,0.01269 -0.82289,-0.16554c-0.2345,-0.17823 -0.37445,-0.45402 -0.37981,-0.74852c-0.43899,-4.72062 -5.52042,-7.50488 -7.48684,-11.56401c-1.19068,-2.44751 -1.83413,-5.07542 -3.17514,-7.48083c-1.10649,-1.97244 -3.86068,-6.75319 -6.64495,-6.25407c-0.50094,0.12123 -1.00964,-0.16869 -1.16061,-0.66149c-0.68554,-2.6219 -4.19143,-4.17339 -3.13906,-7.28839c0.52919,-1.58757 2.10473,-2.71811 3.00676,-4.0892c0.99232,-1.53867 1.63105,-3.27824 1.87021,-5.09346c-3.57203,-0.09622 -7.14407,-0.18041 -10.7161,-0.28264c-2.51365,-0.04811 -4.56427,-0.43297 -5.52042,-3.00676c-0.40291,-1.08845 -0.42696,-2.29717 -0.84189,-3.3796c-0.33074,-0.87196 -1.59358,-2.92257 -2.66399,-1.11852c-0.33676,0.51716 -0.06014,1.75595 0,2.32122c0.18041,1.67777 0.16838,3.97494 -1.56953,4.93109c-2.03859,1.12453 -3.49987,-1.07041 -4.12528,-2.67602c-0.62541,-1.60561 -0.82987,-3.3796 -1.57554,-4.93711c-0.79379,-1.65372 -2.24906,-2.63392 -3.68629,-3.67426l-4.72062,-3.41568c-0.28865,-0.21047 -1.88825,-1.66575 -2.19494,-1.56352c-1.17264,0.38487 0.12628,1.43723 0.47507,1.84615c2.29285,2.61752 5.11529,4.71845 8.28063,6.16386c0.31825,0.19765 0.49174,0.56294 0.44384,0.9345c-0.0479,0.37156 -0.30837,0.68091 -0.66634,0.79138c-1.50338,0.28264 -1.84615,2.23102 -2.40541,3.43372c-0.46089,1.0806 -1.26087,1.98189 -2.27913,2.56778c-2.15713,1.15514 -4.81956,0.7323 -6.51265,-1.03433c-0.25825,-0.27395 -0.33172,-0.67394 -0.18765,-1.02177c0.14407,-0.34784 0.47883,-0.57874 0.85515,-0.58985c0.63037,-0.01574 1.25729,-0.0984 1.87021,-0.24655c0.59107,-0.10946 1.11569,-0.44625 1.46129,-0.93811l-0.50514,-1.55149c-0.52919,-0.45703 -1.84014,-0.38487 -2.52568,-0.82385c-1.35304,-0.87797 -2.03859,-2.41744 -2.63994,-3.84264c-0.32679,-0.97739 -0.83024,-1.88647 -1.48534,-2.68203c-0.39994,-0.47541 -0.91866,-0.83644 -1.50338,-1.04635c-1.07642,-0.28865 -1.37108,0.46906 -1.97244,1.1546c-0.82385,0.92608 -1.74994,1.80406 -3.10298,1.20271c-1.23277,-0.55324 -1.76196,-2.07467 -1.87622,-3.32548c-0.04811,-0.51115 0.15635,-2.95264 -0.32473,-3.21122c-0.34878,-0.18041 -0.49912,1.74994 -0.49912,1.94838c0,1.13054 0.06615,2.45953 -0.60135,3.43974c-0.26139,0.40031 -0.63915,0.71092 -1.08243,0.89c-0.22235,0.07938 -0.45561,0.124 -0.69156,0.1323l0.60135,0.33074c0.28327,0.17391 0.45589,0.48245 0.45589,0.81483c0,0.33238 -0.17262,0.64092 -0.45589,0.81483c-1.47097,1.0381 -2.81161,2.24953 -3.99298,3.60812c-1.13054,1.40717 -1.29892,2.88649 -1.94237,4.48008c-0.99223,2.37534 -4.73265,3.12102 -7.00576,3.15109c-2.77825,0.06014 -4.94312,-1.68379 -5.9594,-4.20947c-1.14257,-2.83838 -0.49912,-5.89927 0.29466,-8.75569h-0.5352c-1.20271,-0.04811 -1.20271,-1.93636 0,-1.88825c2.01056,0.10224 4.0263,-0.00863 6.01353,-0.33074c1.60561,-0.27061 3.71636,-0.5773 4.95515,-1.70784c1.93034,-1.74392 0.10824,-3.34953 -1.20271,-4.63643l-4.00501,-3.94487c-0.25825,-0.27395 -0.33172,-0.67394 -0.18765,-1.02177c0.14407,-0.34784 0.47883,-0.57874 0.85515,-0.58985c2.54372,0 5.17163,-0.04811 7.61312,-0.84791c2.91055,-0.95014 4.28163,-2.91656 5.52042,-5.59258c1.86419,-4.0471 5.74893,-6.64495 10.13881,-5.41217c0.25784,-0.09867 0.54869,-0.05286 0.76372,0.12027c1.13054,0.82385 2.17088,1.41919 3.43974,0.51716c0.43899,-0.31872 0.7577,-0.79379 1.23277,-1.10048c1.09633,-0.62951 2.31805,-1.00937 3.57805,-1.1125c1.45527,-0.19243 3.00075,-0.18041 4.39589,-0.67351c2.3573,-0.82987 2.79028,-2.74818 2.40541,-4.9792c-0.49912,-2.92257 1.30494,-4.81683 4.10724,-5.32798c1.78,-0.33074 3.57805,-0.18041 5.30994,-0.78176c1.37686,-0.5035 2.61378,-1.32812 3.60812,-2.40541c-3.05559,-0.70328 -6.26053,-0.32499 -9.0684,1.07041c-0.94412,0.47507 -1.81007,1.10048 -2.89852,0.65547c-0.91684,-0.47002 -1.63246,-1.25614 -2.01453,-2.21298c-0.90203,-1.9123 -0.64946,-4.1794 0.10824,-6.0917c0.41298,-1.0462 0.97613,-2.02668 1.67176,-2.91055c0.78176,-1.01027 1.99649,-2.14683 2.23703,-3.34953c0.24054,-1.20271 -0.72162,-2.48359 -2.00852,-1.80406c-0.6704,0.43893 -1.19565,1.06672 -1.5094,1.80406c-0.5141,1.14212 -1.11731,2.24198 -1.80406,3.2894c-0.85993,1.16662 -1.96041,2.17088 -2.70007,3.4217c-1.01629,1.71386 -0.86595,3.09697 0.07818,4.77474c1.29892,2.31521 0.19243,3.97494 -0.19845,6.41643c-0.38487,2.20696 -0.84791,4.35981 -3.00676,5.45427c-1.64771,0.83588 -3.54197,0.445 -4.37183,-1.28088c-0.5352,-1.12453 -0.50514,-2.45352 -0.81784,-3.65622c-0.27159,-1.04927 -0.67574,-2.05965 -1.20271,-3.00676c-1.64771,2.07467 -2.80832,5.12954 -5.85718,5.02731c-3.30744,-0.10824 -5.28589,-4.20947 -5.92332,-6.9817c-0.76372,-3.31345 0.83588,-5.56251 3.67426,-7.07792c3.6021,-1.92433 6.05562,-4.39589 8.58732,-7.57704c2.80035,-3.43019 5.41014,-7.01164 7.81758,-10.72813c1.7319,-2.73014 3.83062,-5.13555 7.3786,-4.81082c3.81258,0.34277 7.31846,2.9346 10.92658,4.05913c3.10899,0.96216 6.86143,1.2448 9.52543,3.28339c0.96818,0.76372 2.14082,1.87021 1.6898,3.16913c-0.42153,1.02795 -1.25818,1.82966 -2.30318,2.20696c-2.9346,1.20872 -5.53846,-0.42696 -8.34678,-1.02831c1.11545,2.64134 3.53087,4.50708 6.36832,4.91906c0.86037,0.13463 1.73875,0.0999 2.58582,-0.10223c1.39514,-0.3548 1.84014,-1.51541 2.40541,-2.71811l2.73615,-5.74893c0.46304,-0.96216 2.10473,-0.2646 1.72588,0.72764c-0.03602,0.07239 -0.06815,0.14667 -0.09622,0.2225v0.04209c-0.28865,0.82385 0.33676,1.21473 1.88825,1.16662c0.11426,-0.18642 0.23453,-0.37284 0.3548,-0.55926c0.2151,-0.43267 0.37279,-0.89157 0.46906,-1.36507c0.20529,-0.69913 0.51334,-1.36387 0.91406,-1.97244c0.85448,-1.10031 2.01588,-1.92272 3.33751,-2.36332c3.9569,-1.52744 8.52718,-2.01453 12.73665,-2.67001c0.03608,-1.81007 1.59358,-2.95866 3.47582,-2.89251c1.39986,0.15979 2.77872,0.46823 4.11325,0.92007l3.81258,0.92608c-1.25081,-2.41142 -2.51967,-4.82285 -3.60812,-7.28839c-0.76372,-1.7319 -1.06439,-4.03508 0.76973,-5.23778c2.02054,-1.335 3.93285,0.58331 4.81082,2.27311c0.71561,1.3771 1.32298,2.51967 2.65798,3.40967c0.69794,0.45133 1.43686,0.8359 2.20696,1.14858c-0.18041,-1.99649 0.23453,-4.16737 2.12879,-4.72062c-0.21094,-0.78326 -0.2902,-1.59616 -0.23453,-2.40541c0.00652,-0.33516 0.18812,-0.64244 0.47857,-0.80983c0.29045,-0.16739 0.64736,-0.17042 0.94062,-0.00801c2.03257,1.19068 4.23352,2.42946 6.58481,2.35129c-1.79804,-1.79203 -4.36582,-3.25332 -4.05913,-6.11576c0.29466,-2.53169 2.56778,-3.65622 4.81082,-4.20947c-0.87196,-1.74994 -0.20446,-3.98697 1.16662,-5.4663c2.29115,-2.47757 5.82711,-3.93285 8.87597,-5.2017c0.93811,-0.38487 1.88825,-0.7577 2.83237,-1.12453c1.22676,-0.46906 2.21899,-0.96216 2.26109,-2.33325c0.03007,-1.08243 -0.21047,-2.29115 0.39088,-3.27136c0.36247,-0.73849 1.13328,-1.18674 1.9544,-1.13656c0.97018,0.8018 1.93436,1.60361 2.89251,2.40541c0.94212,0.8018 1.87622,1.60361 2.8023,2.40541l0.06615,0.05412c0.91807,0.81383 1.82811,1.63768 2.73014,2.47156l0.06615,0.06014c0.90604,0.84189 1.80206,1.6918 2.68805,2.54974c0.39088,0.40892 0.7998,0.7998 1.20271,1.20271c8.53064,8.43191 16.12013,17.76554 22.63491,27.83662c0.72162,1.1105 1.42721,2.22902 2.11676,3.35555c-0.00114,0.01401 -0.00114,0.02808 0,0.04209c0.68153,1.11852 1.35104,2.24305 2.00852,3.37359l0.05412,0.08419c0.64345,1.1125 1.29892,2.24305 1.90027,3.37359l0.07818,0.1323c0.60135,1.11852 1.20271,2.24305 1.80406,3.37359l0.10223,0.18642c0.57129,1.1125 1.13054,2.23703 1.68379,3.36156l0.12027,0.24655c0.5372,1.1145 1.06239,2.23102 1.57554,3.34953c0.04811,0.10824 0.10223,0.21047 0.15034,0.3127c0.49912,1.10048 0.98622,2.21298 1.4673,3.32548l0.16838,0.38487c0.46304,1.08845 0.90804,2.18291 1.35304,3.28339l0.18642,0.46906c0.43297,1.07642 0.84189,2.16487 1.25081,3.25332c0.06615,0.18041 0.13831,0.36081 0.20446,0.54723c0.39689,1.06439 0.76973,2.1348 1.14257,3.21122l0.2225,0.63142c0.3528,1.05437 0.69757,2.11075 1.03433,3.16913c0.07818,0.24054 0.16237,0.47507 0.23453,0.71561c0.33676,1.03433 0.63142,2.08068 0.93811,3.12102c0.07818,0.27061 0.16237,0.5352 0.23453,0.7998c0.29466,1.01629 0.56527,2.03859 0.83588,3.0669c0.08419,0.30068 0.16838,0.59534 0.24655,0.90203c0.25858,0.99825 0.49912,2.0025 0.73966,3.00676c0.07818,0.33074 0.16237,0.66149 0.24054,0.99223c0.22851,0.98622 0.43899,1.97244 0.64946,2.96467c0.07818,0.36081 0.16237,0.71561 0.23453,1.07041c0.19845,0.96818 0.37885,1.93636 0.56527,2.91055c0.07216,0.38487 0.15034,0.77574 0.2225,1.16662c0.16838,0.94412 0.32473,1.90027 0.47507,2.85643c0.06615,0.41493 0.14432,0.82987 0.21047,1.2448c0.13831,0.93811 0.2646,1.88223 0.39689,2.82636c0.06014,0.43899 0.12628,0.87196 0.18041,1.31095c0.12027,0.93811 0.2225,1.87622 0.32473,2.81433c0.05412,0.45101 0.10824,0.90203 0.15635,1.35304c0.09622,0.93811 0.17439,1.88223 0.25257,2.82034c0.03608,0.46304 0.08419,0.92007 0.12027,1.38311c0.07818,0.97419 0.1323,1.96041 0.19243,2.94663c0.02405,0.42696 0.07818,0.84791 0.07818,1.27487c0.05412,1.06439 0.12027,2.12879 0.12027,3.19318c0.01203,0.3548 0.04209,0.7096 0.04209,1.05838c0,1.44325 0.002,2.87045 0.00601,4.28163zM160.616,178.55915c-0.64605,-0.77663 -1.50519,-1.3473 -2.47156,-1.64169c-0.66149,-0.24655 -1.35906,-0.39088 -2.02656,-0.63743c-0.52361,-0.16154 -1.01005,-0.4252 -1.43122,-0.77574c-0.17319,-0.15186 -0.27249,-0.37102 -0.27249,-0.60135c0,-0.23033 0.0993,-0.4495 0.27249,-0.60135c0.31872,-1.31696 1.9123,-3.50589 -0.49311,-3.88474c-1.30494,-0.18642 -2.91055,0.36683 -4.20947,0.60135c-1.3751,0.24855 -2.74818,0.51115 -4.11927,0.78777c-0.23167,-0.22029 -0.55762,-0.31112 -0.86983,-0.24242c-0.31221,0.0687 -0.5699,0.288 -0.68768,0.58519c-1.10048,2.97068 -2.59784,6.37434 -2.90453,9.55549c-0.19845,2.08669 1.52744,3.23528 3.4698,2.44149c1.40717,-0.57129 2.47156,-1.60561 3.98095,-2.0446c1.72588,-0.49311 3.22325,-0.54122 4.6665,0.60135c1.58757,1.25683 4.37785,1.11852 6.18191,0.30068c1.79203,-0.82385 2.08669,-2.92257 0.91406,-4.444zM173.35265,184.4524c0.21649,2.16487 2.10473,3.8667 3.87872,4.92508c1.53345,0.91406 3.68028,1.30494 4.99724,-0.34878c1.31696,-1.65372 0.16838,-3.10899 -0.88399,-4.41393c-0.41493,-0.51115 -0.64345,-0.10223 -0.29466,-0.85392c0.11426,-0.19243 0.46304,-0.39689 0.60135,-0.57129c0.27629,-0.33359 0.48099,-0.72047 0.60135,-1.13656c0.24006,-0.80496 0.00764,-1.67653 -0.60135,-2.25507c-1.02831,-0.90804 -2.3573,-0.95615 -3.22926,-2.19494c-0.83946,-1.32878 -1.21972,-2.89631 -1.08243,-4.46204c0.9408,-0.76094 1.2281,-2.07255 0.69156,-3.1571c-0.76372,-1.65372 -2.88048,-2.11075 -4.52217,-1.65372c-4.60636,1.28689 -4.7567,6.52468 -2.27311,9.80205c0.64345,0.84189 3.03082,2.55575 2.8023,3.75845c-0.18041,0.9321 -0.77574,1.48534 -0.68554,2.56176zM187.79715,207.19556h-0.16838c-2.14474,0.11632 -4.28776,-0.258 -6.26609,-1.09446c-2.21298,-1.02831 -3.42771,-2.65197 -5.03332,-4.37183c-0.40892,-0.43899 -1.31696,-1.41318 -2.03257,-1.01027c-0.82987,0.46304 0.07216,1.84014 0.34277,2.35129c0.58835,1.14102 1.27657,2.2277 2.05663,3.2473c1.49737,1.85217 3.52393,3.50589 6.01353,3.60812c2.08669,0.08419 4.25758,-0.81183 5.08744,-2.73014z" fill="#74b140" fill-rule="nonzero" stroke="none" stroke-width="1" stroke-linecap="butt"/><text transform="translate(120,45.34011) scale(0.99362,0.99362)" font-size="40" xml:space="preserve" fill="#ffffff" fill-rule="nonzero" stroke="none" stroke-width="1" stroke-linecap="butt" stroke-linejoin="miter" stroke-miterlimit="10" stroke-dasharray="" stroke-dashoffset="0" font-family="Pixel" font-weight="normal" text-anchor="start" style="mix-blend-mode: normal"><tspan x="0" dy="0">Tactigun! 2:</tspan></text><path d="M-39.83333,301l189,-206l121,98l80,-92l165,201" fill="url(#color-1)" fill-rule="nonzero" stroke="#ff9292" stroke-width="5" stroke-linecap="round"/><path d="M175.61413,235.81713c-32.57905,9.51843 -66.52704,-8.56404 -75.82498,-40.38838c-9.29793,-31.82431 9.57514,-65.33925 42.15419,-74.85767c32.57905,-9.51843 66.52704,8.56405 75.82498,40.38839c9.29793,31.82431 -9.57514,65.33925 -42.15419,74.85767z" fill="url(#color-2)" fill-rule="nonzero" stroke="#000000" stroke-width="5" stroke-linecap="butt"/><path d="M150.58634,150.26448l0.1292,39.64411" fill="none" fill-rule="nonzero" stroke="#000000" stroke-width="5" stroke-linecap="round"/><path d="M180.8097,183.48022l0.45059,-36.74918" fill="none" fill-rule="nonzero" stroke="#000000" stroke-width="5" stroke-linecap="round"/><path d="M190.97154,205.42331l-46.34459,12.39224" fill="none" fill-rule="nonzero" stroke="#000000" stroke-width="5" stroke-linecap="round"/><path d="M66.62113,240.44023l-9.85823,-17.88689l-32.20203,18.28876l-11.09402,-19.78277l49.89701,-29.82285l21.58421,37.25774z" data-paper-data="{&quot;index&quot;:null}" fill="#000000" fill-rule="nonzero" stroke="#000000" stroke-width="5" stroke-linecap="round"/><path d="M-115.72447,494.5v-192.49399h716.45195v192.49399z" fill="#2ec745" fill-rule="nonzero" stroke="#000000" stroke-width="0.5" stroke-linecap="butt"/><path d="M384.97616,300.84403c-15.88378,0.24502 -28.95415,-12.13438 -29.1935,-27.6502c-0.23935,-15.5158 12.44296,-28.2925 28.32674,-28.53752c15.88378,-0.24502 28.95414,12.13438 29.19349,27.65021c0.23935,15.51581 -12.44295,28.29249 -28.32673,28.53751z" fill="url(#color-3)" fill-rule="nonzero" stroke="#000000" stroke-width="2.5" stroke-linecap="butt"/><path d="M371.80693,277.37986v-18.555" fill="none" fill-rule="nonzero" stroke="#000000" stroke-width="2.5" stroke-linecap="round"/><path d="M387.19364,261.00266l-0.25418,17.19939" fill="none" fill-rule="nonzero" stroke="#000000" stroke-width="2.5" stroke-linecap="round"/><path d="M395.68412,289.03863l-22.4524,-0.16945" fill="none" fill-rule="nonzero" stroke="#000000" stroke-width="2.5" stroke-linecap="round"/><path d="M391.25,257l-11.5,6l-11,-7.5" fill="none" fill-rule="nonzero" stroke="#000000" stroke-width="2.5" stroke-linecap="round"/><path d="M334.51682,276.35712l1.92153,-7.32687l-12.89588,-3.43139l2.07586,-8.15277l20.35313,4.92022l-3.73106,15.53281z" data-paper-data="{&quot;index&quot;:null}" fill="#000000" fill-rule="nonzero" stroke="#000000" stroke-width="5" stroke-linecap="round"/><path d="M210.78266,272.80652c0.23935,-15.51582 13.30972,-27.89523 29.19349,-27.6502c15.88377,0.24502 28.56609,13.02171 28.32674,28.53752c-0.23935,15.51582 -13.30973,27.89523 -29.1935,27.6502c-15.88377,-0.24502 -28.56608,-13.02171 -28.32673,-28.53751z" data-paper-data="{&quot;index&quot;:null}" fill="url(#color-4)" fill-rule="nonzero" stroke="#000000" stroke-width="2.5" stroke-linecap="butt"/><path d="M252.27861,259.32486v18.555" data-paper-data="{&quot;index&quot;:null}" fill="none" fill-rule="nonzero" stroke="#000000" stroke-width="2.5" stroke-linecap="round"/><path d="M236.8919,261.50266l0.25418,17.19939" data-paper-data="{&quot;index&quot;:null}" fill="none" fill-rule="nonzero" stroke="#000000" stroke-width="2.5" stroke-linecap="round"/><path d="M228.40142,289.53863l22.45239,-0.16945" data-paper-data="{&quot;index&quot;:null}" fill="none" fill-rule="nonzero" stroke="#000000" stroke-width="2.5" stroke-linecap="round"/><path d="M279.08752,280.61133l-0.2619,-15.48059l20.90219,-0.06844l0.25198,8.15175l-13.31195,0.33928l0.281,7.33851z" data-paper-data="{&quot;index&quot;:null}" fill="#000000" fill-rule="nonzero" stroke="#000000" stroke-width="5" stroke-linecap="round"/><text transform="translate(158.5,75.73183) scale(0.5,0.5)" font-size="40" xml:space="preserve" fill="#ffffff" fill-rule="nonzero" stroke="none" stroke-width="1" stroke-linecap="butt" stroke-linejoin="miter" stroke-miterlimit="10" stroke-dasharray="" stroke-dashoffset="0" font-family="Pixel" font-weight="normal" text-anchor="start" style="mix-blend-mode: normal"><tspan x="0" dy="0">World Premiere!</tspan></text><path d="M351.02573,71.05448c0,-1.38071 1.11929,-2.5 2.5,-2.5c1.38071,0 2.5,1.11929 2.5,2.5c0,1.38071 -1.11929,2.5 -2.5,2.5c-1.38071,0 -2.5,-1.11929 -2.5,-2.5z" fill="#ffffff" fill-rule="nonzero" stroke="none" stroke-width="0.5" stroke-linecap="butt"/><path d="M407.30545,83.11442c0,-1.38071 1.11929,-2.5 2.5,-2.5c1.38071,0 2.5,1.11929 2.5,2.5c0,1.38071 -1.11929,2.5 -2.5,2.5c-1.38071,0 -2.5,-1.11929 -2.5,-2.5z" fill="#ffffff" fill-rule="nonzero" stroke="none" stroke-width="0.5" stroke-linecap="butt"/><path d="M417.3554,42.91462c0,-1.38071 1.11929,-2.5 2.5,-2.5c1.38071,0 2.5,1.11929 2.5,2.5c0,1.38071 -1.11929,2.5 -2.5,2.5c-1.38071,0 -2.5,-1.11929 -2.5,-2.5z" fill="#ffffff" fill-rule="nonzero" stroke="none" stroke-width="0.5" stroke-linecap="butt"/><path d="M460.57018,127.33419c0,-1.38071 1.11929,-2.5 2.5,-2.5c1.38071,0 2.5,1.11929 2.5,2.5c0,1.38071 -1.11929,2.5 -2.5,2.5c-1.38071,0 -2.5,-1.11929 -2.5,-2.5z" fill="#ffffff" fill-rule="nonzero" stroke="none" stroke-width="0.5" stroke-linecap="butt"/><path d="M436.4503,133.36416c0,-1.38071 1.11929,-2.5 2.5,-2.5c1.38071,0 2.5,1.11929 2.5,2.5c0,1.38071 -1.11929,2.5 -2.5,2.5c-1.38071,0 -2.5,-1.11929 -2.5,-2.5z" fill="#ffffff" fill-rule="nonzero" stroke="none" stroke-width="0.5" stroke-linecap="butt"/><path d="M308.81595,106.2293c0,-1.38071 1.11929,-2.5 2.5,-2.5c1.38071,0 2.5,1.11929 2.5,2.5c0,1.38071 -1.11929,2.5 -2.5,2.5c-1.38071,0 -2.5,-1.11929 -2.5,-2.5z" fill="#ffffff" fill-rule="nonzero" stroke="none" stroke-width="0.5" stroke-linecap="butt"/><path d="M288.71605,130.34918c0,-1.38071 1.11929,-2.5 2.5,-2.5c1.38071,0 2.5,1.11929 2.5,2.5c0,1.38071 -1.11929,2.5 -2.5,2.5c-1.38071,0 -2.5,-1.11929 -2.5,-2.5z" fill="#ffffff" fill-rule="nonzero" stroke="none" stroke-width="0.5" stroke-linecap="butt"/><path d="M276.65611,94.16936c0,-1.38071 1.11929,-2.5 2.5,-2.5c1.38071,0 2.5,1.11929 2.5,2.5c0,1.38071 -1.11929,2.5 -2.5,2.5c-1.38071,0 -2.5,-1.11929 -2.5,-2.5z" fill="#ffffff" fill-rule="nonzero" stroke="none" stroke-width="0.5" stroke-linecap="butt"/><path d="M329.92084,81.10443c0,-1.38071 1.11929,-2.5 2.5,-2.5c1.38071,0 2.5,1.11929 2.5,2.5c0,1.38071 -1.11929,2.5 -2.5,2.5c-1.38071,0 -2.5,-1.11929 -2.5,-2.5z" fill="#ffffff" fill-rule="nonzero" stroke="none" stroke-width="0.5" stroke-linecap="butt"/><path d="M393.23552,119.29424c0,-1.38071 1.11929,-2.5 2.5,-2.5c1.38071,0 2.5,1.11929 2.5,2.5c0,1.38071 -1.11929,2.5 -2.5,2.5c-1.38071,0 -2.5,-1.11929 -2.5,-2.5z" fill="#ffffff" fill-rule="nonzero" stroke="none" stroke-width="0.5" stroke-linecap="butt"/><path d="M395.24551,59.99954c0,-1.38071 1.11929,-2.5 2.5,-2.5c1.38071,0 2.5,1.11929 2.5,2.5c0,1.38071 -1.11929,2.5 -2.5,2.5c-1.38071,0 -2.5,-1.11929 -2.5,-2.5z" fill="#ffffff" fill-rule="nonzero" stroke="none" stroke-width="0.5" stroke-linecap="butt"/><path d="M389.21554,33.86967c0,-1.38071 1.11929,-2.5 2.5,-2.5c1.38071,0 2.5,1.11929 2.5,2.5c0,1.38071 -1.11929,2.5 -2.5,2.5c-1.38071,0 -2.5,-1.11929 -2.5,-2.5z" fill="#ffffff" fill-rule="nonzero" stroke="none" stroke-width="0.5" stroke-linecap="butt"/><path d="M37.46732,34.87466c0,-1.38071 1.11929,-2.5 2.5,-2.5c1.38071,0 2.5,1.11929 2.5,2.5c0,1.38071 -1.11929,2.5 -2.5,2.5c-1.38071,0 -2.5,-1.11929 -2.5,-2.5z" fill="#ffffff" fill-rule="nonzero" stroke="none" stroke-width="0.5" stroke-linecap="butt"/><path d="M103.79698,21.80973c0,-1.38071 1.11929,-2.5 2.5,-2.5c1.38071,0 2.5,1.11929 2.5,2.5c0,1.38071 -1.11929,2.5 -2.5,2.5c-1.38071,0 -2.5,-1.11929 -2.5,-2.5z" fill="#ffffff" fill-rule="nonzero" stroke="none" stroke-width="0.5" stroke-linecap="butt"/><path d="M23.39739,53.96957c0,-1.38071 1.11929,-2.5 2.5,-2.5c1.38071,0 2.5,1.11929 2.5,2.5c0,1.38071 -1.11929,2.5 -2.5,2.5c-1.38071,0 -2.5,-1.11929 -2.5,-2.5z" fill="#ffffff" fill-rule="nonzero" stroke="none" stroke-width="0.5" stroke-linecap="butt"/><path d="M54.55223,23.81972c0,-1.38071 1.11929,-2.5 2.5,-2.5c1.38071,0 2.5,1.11929 2.5,2.5c0,1.38071 -1.11929,2.5 -2.5,2.5c-1.38071,0 -2.5,-1.11929 -2.5,-2.5z" fill="#ffffff" fill-rule="nonzero" stroke="none" stroke-width="0.5" stroke-linecap="butt"/><path d="M437.4553,187.63389c0,-1.38071 1.11929,-2.5 2.5,-2.5c1.38071,0 2.5,1.11929 2.5,2.5c0,1.38071 -1.11929,2.5 -2.5,2.5c-1.38071,0 -2.5,-1.11929 -2.5,-2.5z" fill="#ffffff" fill-rule="nonzero" stroke="none" stroke-width="0.5" stroke-linecap="butt"/><path d="M7.31747,25.82971c0,-1.38071 1.11929,-2.5 2.5,-2.5c1.38071,0 2.5,1.11929 2.5,2.5c0,1.38071 -1.11929,2.5 -2.5,2.5c-1.38071,0 -2.5,-1.11929 -2.5,-2.5z" fill="#ffffff" fill-rule="nonzero" stroke="none" stroke-width="0.5" stroke-linecap="butt"/><path d="M487.39062,212.75876c0,-1.38071 1.11929,-2.5 2.5,-2.5c1.38071,0 2.5,1.11929 2.5,2.5c0,1.38071 -1.11929,2.5 -2.5,2.5c-1.38071,0 -2.5,-1.11929 -2.5,-2.5z" fill="#ffffff" fill-rule="nonzero" stroke="none" stroke-width="0.5" stroke-linecap="butt"/><path d="M490.4056,173.56396c0,-1.38071 1.11929,-2.5 2.5,-2.5c1.38071,0 2.5,1.11929 2.5,2.5c0,1.38071 -1.11929,2.5 -2.5,2.5c-1.38071,0 -2.5,-1.11929 -2.5,-2.5z" fill="#ffffff" fill-rule="nonzero" stroke="none" stroke-width="0.5" stroke-linecap="butt"/><path d="M513.52049,105.22431c0,-1.38071 1.11929,-2.5 2.5,-2.5c1.38071,0 2.5,1.11929 2.5,2.5c0,1.38071 -1.11929,2.5 -2.5,2.5c-1.38071,0 -2.5,-1.11929 -2.5,-2.5z" fill="#ffffff" fill-rule="nonzero" stroke="none" stroke-width="0.5" stroke-linecap="butt"/><path d="M494.42558,72.05947c0,-1.38071 1.11929,-2.5 2.5,-2.5c1.38071,0 2.5,1.11929 2.5,2.5c0,1.38071 -1.11929,2.5 -2.5,2.5c-1.38071,0 -2.5,-1.11929 -2.5,-2.5z" fill="#ffffff" fill-rule="nonzero" stroke="none" stroke-width="0.5" stroke-linecap="butt"/><path d="M482.36565,44.92461c0,-1.38071 1.11929,-2.5 2.5,-2.5c1.38071,0 2.5,1.11929 2.5,2.5c0,1.38071 -1.11929,2.5 -2.5,2.5c-1.38071,0 -2.5,-1.11929 -2.5,-2.5z" fill="#ffffff" fill-rule="nonzero" stroke="none" stroke-width="0.5" stroke-linecap="butt"/><path d="M445.18083,75.07446c0,-1.38071 1.11929,-2.5 2.5,-2.5c1.38071,0 2.5,1.11929 2.5,2.5c0,1.38071 -1.11929,2.5 -2.5,2.5c-1.38071,0 -2.5,-1.11929 -2.5,-2.5z" fill="#ffffff" fill-rule="nonzero" stroke="none" stroke-width="0.5" stroke-linecap="butt"/><path d="M448.19582,24.82471c0,-1.38071 1.11929,-2.5 2.5,-2.5c1.38071,0 2.5,1.11929 2.5,2.5c0,1.38071 -1.11929,2.5 -2.5,2.5c-1.38071,0 -2.5,-1.11929 -2.5,-2.5z" fill="#ffffff" fill-rule="nonzero" stroke="none" stroke-width="0.5" stroke-linecap="butt"/><path d="M509.50051,12.76477c0,-1.38071 1.11929,-2.5 2.5,-2.5c1.38071,0 2.5,1.11929 2.5,2.5c0,1.38071 -1.11929,2.5 -2.5,2.5c-1.38071,0 -2.5,-1.11929 -2.5,-2.5z" fill="#ffffff" fill-rule="nonzero" stroke="none" stroke-width="0.5" stroke-linecap="butt"/><path d="M540.65535,171.55397c0,-1.38071 1.11929,-2.5 2.5,-2.5c1.38071,0 2.5,1.11929 2.5,2.5c0,1.38071 -1.11929,2.5 -2.5,2.5c-1.38071,0 -2.5,-1.11929 -2.5,-2.5z" fill="#ffffff" fill-rule="nonzero" stroke="none" stroke-width="0.5" stroke-linecap="butt"/><path d="M525.58043,247.93358c0,-1.38071 1.11929,-2.5 2.5,-2.5c1.38071,0 2.5,1.11929 2.5,2.5c0,1.38071 -1.11929,2.5 -2.5,2.5c-1.38071,0 -2.5,-1.11929 -2.5,-2.5z" fill="#ffffff" fill-rule="nonzero" stroke="none" stroke-width="0.5" stroke-linecap="butt"/><path d="M521.56045,144.41911c0,-1.38071 1.11929,-2.5 2.5,-2.5c1.38071,0 2.5,1.11929 2.5,2.5c0,1.38071 -1.11929,2.5 -2.5,2.5c-1.38071,0 -2.5,-1.11929 -2.5,-2.5z" fill="#ffffff" fill-rule="nonzero" stroke="none" stroke-width="0.5" stroke-linecap="butt"/><path d="M554.72528,118.28924c0,-1.38071 1.11929,-2.5 2.5,-2.5c1.38071,0 2.5,1.11929 2.5,2.5c0,1.38071 -1.11929,2.5 -2.5,2.5c-1.38071,0 -2.5,-1.11929 -2.5,-2.5z" fill="#ffffff" fill-rule="nonzero" stroke="none" stroke-width="0.5" stroke-linecap="butt"/><path d="M553.72028,202.70881c0,-1.38071 1.11929,-2.5 2.5,-2.5c1.38071,0 2.5,1.11929 2.5,2.5c0,1.38071 -1.11929,2.5 -2.5,2.5c-1.38071,0 -2.5,-1.11929 -2.5,-2.5z" fill="#ffffff" fill-rule="nonzero" stroke="none" stroke-width="0.5" stroke-linecap="butt"/><path d="M548.69531,301.19832c0,-1.38071 1.11929,-2.5 2.5,-2.5c1.38071,0 2.5,1.11929 2.5,2.5c0,1.38071 -1.11929,2.5 -2.5,2.5c-1.38071,0 -2.5,-1.11929 -2.5,-2.5z" fill="#ffffff" fill-rule="nonzero" stroke="none" stroke-width="0.5" stroke-linecap="butt"/><path d="M590.9051,273.05846c0,-1.38071 1.11929,-2.5 2.5,-2.5c1.38071,0 2.5,1.11929 2.5,2.5c0,1.38071 -1.11929,2.5 -2.5,2.5c-1.38071,0 -2.5,-1.11929 -2.5,-2.5z" fill="#ffffff" fill-rule="nonzero" stroke="none" stroke-width="0.5" stroke-linecap="butt"/><path d="M564.77523,235.87365c0,-1.38071 1.11929,-2.5 2.5,-2.5c1.38071,0 2.5,1.11929 2.5,2.5c0,1.38071 -1.11929,2.5 -2.5,2.5c-1.38071,0 -2.5,-1.11929 -2.5,-2.5z" fill="#ffffff" fill-rule="nonzero" stroke="none" stroke-width="0.5" stroke-linecap="butt"/><path d="M584.87513,203.71381c0,-1.38071 1.11929,-2.5 2.5,-2.5c1.38071,0 2.5,1.11929 2.5,2.5c0,1.38071 -1.11929,2.5 -2.5,2.5c-1.38071,0 -2.5,-1.11929 -2.5,-2.5z" fill="#ffffff" fill-rule="nonzero" stroke="none" stroke-width="0.5" stroke-linecap="butt"/><path d="M569.8002,142.40912c0,-1.38071 1.11929,-2.5 2.5,-2.5c1.38071,0 2.5,1.11929 2.5,2.5c0,1.38071 -1.11929,2.5 -2.5,2.5c-1.38071,0 -2.5,-1.11929 -2.5,-2.5z" fill="#ffffff" fill-rule="nonzero" stroke="none" stroke-width="0.5" stroke-linecap="butt"/><path d="M571.81019,52.96457c0,-1.38071 1.11929,-2.5 2.5,-2.5c1.38071,0 2.5,1.11929 2.5,2.5c0,1.38071 -1.11929,2.5 -2.5,2.5c-1.38071,0 -2.5,-1.11929 -2.5,-2.5z" fill="#ffffff" fill-rule="nonzero" stroke="none" stroke-width="0.5" stroke-linecap="butt"/><path d="M552.71529,21.80973c0,-1.38071 1.11929,-2.5 2.5,-2.5c1.38071,0 2.5,1.11929 2.5,2.5c0,1.38071 -1.11929,2.5 -2.5,2.5c-1.38071,0 -2.5,-1.11929 -2.5,-2.5z" fill="#ffffff" fill-rule="nonzero" stroke="none" stroke-width="0.5" stroke-linecap="butt"/><path d="M534.62538,41.90963c0,-1.38071 1.11929,-2.5 2.5,-2.5c1.38071,0 2.5,1.11929 2.5,2.5c0,1.38071 -1.11929,2.5 -2.5,2.5c-1.38071,0 -2.5,-1.11929 -2.5,-2.5z" fill="#ffffff" fill-rule="nonzero" stroke="none" stroke-width="0.5" stroke-linecap="butt"/><path d="M535.63038,-35.47498c0,-1.38071 1.11929,-2.5 2.5,-2.5c1.38071,0 2.5,1.11929 2.5,2.5c0,1.38071 -1.11929,2.5 -2.5,2.5c-1.38071,0 -2.5,-1.11929 -2.5,-2.5z" fill="#ffffff" fill-rule="nonzero" stroke="none" stroke-width="0.5" stroke-linecap="butt"/><path d="M455.23078,-29.44501c0,-1.38071 1.11929,-2.5 2.5,-2.5c1.38071,0 2.5,1.11929 2.5,2.5c0,1.38071 -1.11929,2.5 -2.5,2.5c-1.38071,0 -2.5,-1.11929 -2.5,-2.5z" fill="#ffffff" fill-rule="nonzero" stroke="none" stroke-width="0.5" stroke-linecap="butt"/><path d="M398.95107,-44.51994c0,-1.38071 1.11929,-2.5 2.5,-2.5c1.38071,0 2.5,1.11929 2.5,2.5c0,1.38071 -1.11929,2.5 -2.5,2.5c-1.38071,0 -2.5,-1.11929 -2.5,-2.5z" fill="#ffffff" fill-rule="nonzero" stroke="none" stroke-width="0.5" stroke-linecap="butt"/><path d="M466.28573,-54.56989c0,-1.38071 1.11929,-2.5 2.5,-2.5c1.38071,0 2.5,1.11929 2.5,2.5c0,1.38071 -1.11929,2.5 -2.5,2.5c-1.38071,0 -2.5,-1.11929 -2.5,-2.5z" fill="#ffffff" fill-rule="nonzero" stroke="none" stroke-width="0.5" stroke-linecap="butt"/><path d="M487.39062,-26.43003c0,-1.38071 1.11929,-2.5 2.5,-2.5c1.38071,0 2.5,1.11929 2.5,2.5c0,1.38071 -1.11929,2.5 -2.5,2.5c-1.38071,0 -2.5,-1.11929 -2.5,-2.5z" fill="#ffffff" fill-rule="nonzero" stroke="none" stroke-width="0.5" stroke-linecap="butt"/><path d="M548.69531,-27.43502c0,-1.38071 1.11929,-2.5 2.5,-2.5c1.38071,0 2.5,1.11929 2.5,2.5c0,1.38071 -1.11929,2.5 -2.5,2.5c-1.38071,0 -2.5,-1.11929 -2.5,-2.5z" fill="#ffffff" fill-rule="nonzero" stroke="none" stroke-width="0.5" stroke-linecap="butt"/><path d="M554.72528,-53.56489c0,-1.38071 1.11929,-2.5 2.5,-2.5c1.38071,0 2.5,1.11929 2.5,2.5c0,1.38071 -1.11929,2.5 -2.5,2.5c-1.38071,0 -2.5,-1.11929 -2.5,-2.5z" fill="#ffffff" fill-rule="nonzero" stroke="none" stroke-width="0.5" stroke-linecap="butt"/><path d="M356.74128,-31.455c0,-1.38071 1.11929,-2.5 2.5,-2.5c1.38071,0 2.5,1.11929 2.5,2.5c0,1.38071 -1.11929,2.5 -2.5,2.5c-1.38071,0 -2.5,-1.11929 -2.5,-2.5z" fill="#ffffff" fill-rule="nonzero" stroke="none" stroke-width="0.5" stroke-linecap="butt"/><path d="M258.25178,-32.46c0,-1.38071 1.11929,-2.5 2.5,-2.5c1.38071,0 2.5,1.11929 2.5,2.5c0,1.38071 -1.11929,2.5 -2.5,2.5c-1.38071,0 -2.5,-1.11929 -2.5,-2.5z" fill="#ffffff" fill-rule="nonzero" stroke="none" stroke-width="0.5" stroke-linecap="butt"/><path d="M278.35168,-37.48497c0,-1.38071 1.11929,-2.5 2.5,-2.5c1.38071,0 2.5,1.11929 2.5,2.5c0,1.38071 -1.11929,2.5 -2.5,2.5c-1.38071,0 -2.5,-1.11929 -2.5,-2.5z" fill="#ffffff" fill-rule="nonzero" stroke="none" stroke-width="0.5" stroke-linecap="butt"/><path d="M309.50652,-48.53992c0,-1.38071 1.11929,-2.5 2.5,-2.5c1.38071,0 2.5,1.11929 2.5,2.5c0,1.38071 -1.11929,2.5 -2.5,2.5c-1.38071,0 -2.5,-1.11929 -2.5,-2.5z" fill="#ffffff" fill-rule="nonzero" stroke="none" stroke-width="0.5" stroke-linecap="butt"/><path d="M337.64638,-50.54991c0,-1.38071 1.11929,-2.5 2.5,-2.5c1.38071,0 2.5,1.11929 2.5,2.5c0,1.38071 -1.11929,2.5 -2.5,2.5c-1.38071,0 -2.5,-1.11929 -2.5,-2.5z" fill="#ffffff" fill-rule="nonzero" stroke="none" stroke-width="0.5" stroke-linecap="butt"/><path d="M252.22181,-54.56989c0,-1.38071 1.11929,-2.5 2.5,-2.5c1.38071,0 2.5,1.11929 2.5,2.5c0,1.38071 -1.11929,2.5 -2.5,2.5c-1.38071,0 -2.5,-1.11929 -2.5,-2.5z" fill="#ffffff" fill-rule="nonzero" stroke="none" stroke-width="0.5" stroke-linecap="butt"/><path d="M192.92711,-32.46c0,-1.38071 1.11929,-2.5 2.5,-2.5c1.38071,0 2.5,1.11929 2.5,2.5c0,1.38071 -1.11929,2.5 -2.5,2.5c-1.38071,0 -2.5,-1.11929 -2.5,-2.5z" fill="#ffffff" fill-rule="nonzero" stroke="none" stroke-width="0.5" stroke-linecap="butt"/><path d="M138.65738,-59.59486c0,-1.38071 1.11929,-2.5 2.5,-2.5c1.38071,0 2.5,1.11929 2.5,2.5c0,1.38071 -1.11929,2.5 -2.5,2.5c-1.38071,0 -2.5,-1.11929 -2.5,-2.5z" fill="#ffffff" fill-rule="nonzero" stroke="none" stroke-width="0.5" stroke-linecap="butt"/><path d="M104.48756,-7.33512c0,-1.38071 1.11929,-2.5 2.5,-2.5c1.38071,0 2.5,1.11929 2.5,2.5c0,1.38071 -1.11929,2.5 -2.5,2.5c-1.38071,0 -2.5,-1.11929 -2.5,-2.5z" fill="#ffffff" fill-rule="nonzero" stroke="none" stroke-width="0.5" stroke-linecap="butt"/><path d="M79.36268,-43.51494c0,-1.38071 1.11929,-2.5 2.5,-2.5c1.38071,0 2.5,1.11929 2.5,2.5c0,1.38071 -1.11929,2.5 -2.5,2.5c-1.38071,0 -2.5,-1.11929 -2.5,-2.5z" fill="#ffffff" fill-rule="nonzero" stroke="none" stroke-width="0.5" stroke-linecap="butt"/><path d="M60.26778,-8.34012c0,-1.38071 1.11929,-2.5 2.5,-2.5c1.38071,0 2.5,1.11929 2.5,2.5c0,1.38071 -1.11929,2.5 -2.5,2.5c-1.38071,0 -2.5,-1.11929 -2.5,-2.5z" fill="#ffffff" fill-rule="nonzero" stroke="none" stroke-width="0.5" stroke-linecap="butt"/><path d="M-41.23671,-37.48497c0,-1.38071 1.11929,-2.5 2.5,-2.5c1.38071,0 2.5,1.11929 2.5,2.5c0,1.38071 -1.11929,2.5 -2.5,2.5c-1.38071,0 -2.5,-1.11929 -2.5,-2.5z" fill="#ffffff" fill-rule="nonzero" stroke="none" stroke-width="0.5" stroke-linecap="butt"/><path d="M33.13292,-49.54491c0,-1.38071 1.11929,-2.5 2.5,-2.5c1.38071,0 2.5,1.11929 2.5,2.5c0,1.38071 -1.11929,2.5 -2.5,2.5c-1.38071,0 -2.5,-1.11929 -2.5,-2.5z" fill="#ffffff" fill-rule="nonzero" stroke="none" stroke-width="0.5" stroke-linecap="butt"/><path d="M-59.32662,41.90963c0,-1.38071 1.11929,-2.5 2.5,-2.5c1.38071,0 2.5,1.11929 2.5,2.5c0,1.38071 -1.11929,2.5 -2.5,2.5c-1.38071,0 -2.5,-1.11929 -2.5,-2.5z" fill="#ffffff" fill-rule="nonzero" stroke="none" stroke-width="0.5" stroke-linecap="butt"/><path d="M-28.17177,14.77476c0,-1.38071 1.11929,-2.5 2.5,-2.5c1.38071,0 2.5,1.11929 2.5,2.5c0,1.38071 -1.11929,2.5 -2.5,2.5c-1.38071,0 -2.5,-1.11929 -2.5,-2.5z" fill="#ffffff" fill-rule="nonzero" stroke="none" stroke-width="0.5" stroke-linecap="butt"/><path d="M-79.42651,11.75978c0,-1.38071 1.11929,-2.5 2.5,-2.5c1.38071,0 2.5,1.11929 2.5,2.5c0,1.38071 -1.11929,2.5 -2.5,2.5c-1.38071,0 -2.5,-1.11929 -2.5,-2.5z" fill="#ffffff" fill-rule="nonzero" stroke="none" stroke-width="0.5" stroke-linecap="butt"/><path d="M-81.4365,108.23929c0,-1.38071 1.11929,-2.5 2.5,-2.5c1.38071,0 2.5,1.11929 2.5,2.5c0,1.38071 -1.11929,2.5 -2.5,2.5c-1.38071,0 -2.5,-1.11929 -2.5,-2.5z" fill="#ffffff" fill-rule="nonzero" stroke="none" stroke-width="0.5" stroke-linecap="butt"/><path d="M-73.39654,133.36416c0,-1.38071 1.11929,-2.5 2.5,-2.5c1.38071,0 2.5,1.11929 2.5,2.5c0,1.38071 -1.11929,2.5 -2.5,2.5c-1.38071,0 -2.5,-1.11929 -2.5,-2.5z" fill="#ffffff" fill-rule="nonzero" stroke="none" stroke-width="0.5" stroke-linecap="butt"/><path d="M-78.42152,183.61391c0,-1.38071 1.11929,-2.5 2.5,-2.5c1.38071,0 2.5,1.11929 2.5,2.5c0,1.38071 -1.11929,2.5 -2.5,2.5c-1.38071,0 -2.5,-1.11929 -2.5,-2.5z" fill="#ffffff" fill-rule="nonzero" stroke="none" stroke-width="0.5" stroke-linecap="butt"/><path d="M-67.36657,233.86366c0,-1.38071 1.11929,-2.5 2.5,-2.5c1.38071,0 2.5,1.11929 2.5,2.5c0,1.38071 -1.11929,2.5 -2.5,2.5c-1.38071,0 -2.5,-1.11929 -2.5,-2.5z" fill="#ffffff" fill-rule="nonzero" stroke="none" stroke-width="0.5" stroke-linecap="butt"/><path d="M-71.38655,270.04347c0,-1.38071 1.11929,-2.5 2.5,-2.5c1.38071,0 2.5,1.11929 2.5,2.5c0,1.38071 -1.11929,2.5 -2.5,2.5c-1.38071,0 -2.5,-1.11929 -2.5,-2.5z" fill="#ffffff" fill-rule="nonzero" stroke="none" stroke-width="0.5" stroke-linecap="butt"/><path d="M-81.4365,240.89862c0,-1.38071 1.11929,-2.5 2.5,-2.5c1.38071,0 2.5,1.11929 2.5,2.5c0,1.38071 -1.11929,2.5 -2.5,2.5c-1.38071,0 -2.5,-1.11929 -2.5,-2.5z" fill="#ffffff" fill-rule="nonzero" stroke="none" stroke-width="0.5" stroke-linecap="butt"/><path d="M-85.45648,217.78374c0,-1.38071 1.11929,-2.5 2.5,-2.5c1.38071,0 2.5,1.11929 2.5,2.5c0,1.38071 -1.11929,2.5 -2.5,2.5c-1.38071,0 -2.5,-1.11929 -2.5,-2.5z" fill="#ffffff" fill-rule="nonzero" stroke="none" stroke-width="0.5" stroke-linecap="butt"/><path d="M-31.18676,72.05947c0,-1.38071 1.11929,-2.5 2.5,-2.5c1.38071,0 2.5,1.11929 2.5,2.5c0,1.38071 -1.11929,2.5 -2.5,2.5c-1.38071,0 -2.5,-1.11929 -2.5,-2.5z" fill="#ffffff" fill-rule="nonzero" stroke="none" stroke-width="0.5" stroke-linecap="butt"/><path d="M-47.26668,104.21931c0,-1.38071 1.11929,-2.5 2.5,-2.5c1.38071,0 2.5,1.11929 2.5,2.5c0,1.38071 -1.11929,2.5 -2.5,2.5c-1.38071,0 -2.5,-1.11929 -2.5,-2.5z" fill="#ffffff" fill-rule="nonzero" stroke="none" stroke-width="0.5" stroke-linecap="butt"/><path d="M-16.11183,44.92461c0,-1.38071 1.11929,-2.5 2.5,-2.5c1.38071,0 2.5,1.11929 2.5,2.5c0,1.38071 -1.11929,2.5 -2.5,2.5c-1.38071,0 -2.5,-1.11929 -2.5,-2.5z" fill="#ffffff" fill-rule="nonzero" stroke="none" stroke-width="0.5" stroke-linecap="butt"/></g></g></svg>