<svg version="1.1" xmlns="http://www.w3.org/2000/svg" xmlns:xlink="http://www.w3.org/1999/xlink" width="806.42475" height="657.07968" viewBox="0,0,806.42475,657.07968"><g transform="translate(161.75619,201.12291)"><g data-paper-data="{&quot;isPaintingLayer&quot;:true}" fill-rule="nonzero" stroke-linejoin="miter" stroke-miterlimit="10" stroke-dasharray="" stroke-dashoffset="0" style="mix-blend-mode: normal"><path d="M-145.6618,338.75078v-537.62369h768.52561v537.62369z" fill="#baffeb" stroke="#000000" stroke-width="4.5" stroke-linecap="butt"/><path d="M250.6279,294.83107c-77.98509,1.12888 -142.15713,-55.90571 -143.33228,-127.39042c-0.57433,-34.93691 14.00507,-66.85947 38.16701,-90.50087c25.27597,-24.73142 61.03849,-40.40043 100.90969,-40.97757c77.98509,-1.12888 142.15713,55.90571 143.33228,127.39042c1.17515,71.48464 -61.09161,130.34959 -139.0767,131.47844z" fill="#73ff00" stroke="#000000" stroke-width="0" stroke-linecap="butt"/><path d="M214.23122,187.16555l-2.45285,-88.30412" fill="#73ff00" stroke="#000000" stroke-width="0" stroke-linecap="round"/><path d="M286.62073,185.70411l-0.30572,-90.51853" fill="#73ff00" stroke="#000000" stroke-width="0" stroke-linecap="round"/><path d="M197.24055,244.85214l117.7276,-3.99734" fill="#73ff00" stroke="#000000" stroke-width="0" stroke-linecap="round"/><path d="M154.23378,281.6428l203.4141,-6.90674" fill="none" stroke="#000000" stroke-width="6" stroke-linecap="round"/><path d="M-128.61859,447.26727v-318.31831c0,0 116.75505,-73.56298 204.14041,-46.34175c66.3284,20.66182 112.93073,113.90932 166.73046,113.90932c57.45715,0 138.82662,-67.56756 214.71472,-67.56756c20.35789,0 73.13825,28.52853 91.5916,28.52853c67.11743,0 84.08408,-28.52852 84.08408,-28.52852v318.31832z" fill="#62ad7d" stroke="#000000" stroke-width="1" stroke-linecap="butt"/><text transform="translate(126.56959,51.76237) scale(1.13774,1.13774)" font-size="40" xml:space="preserve" data-paper-data="{&quot;index&quot;:null}" fill="#000000" fill-rule="nonzero" stroke="none" stroke-width="1" stroke-linecap="butt" stroke-linejoin="miter" stroke-miterlimit="10" stroke-dasharray="" stroke-dashoffset="0" font-family="Pixel" font-weight="normal" text-anchor="start" style="mix-blend-mode: normal"><tspan x="0" dy="0">Tactigun!</tspan></text><text transform="translate(184.50005,84.00005) scale(0.5,0.5)" font-size="40" xml:space="preserve" fill="#000000" fill-rule="nonzero" stroke="none" stroke-width="1" stroke-linecap="butt" stroke-linejoin="miter" stroke-miterlimit="10" stroke-dasharray="" stroke-dashoffset="0" font-family="Pixel" font-weight="normal" text-anchor="start" style="mix-blend-mode: normal"><tspan x="0" dy="0">Season 3</tspan></text><path d="M639.26744,360.75005c0,15.55376 28.67636,81.00523 -46.12297,90.49165c-62.64779,7.9453 -226.05616,3.25721 -315.76826,3.25721c-78.41375,0 -342.84657,4.31964 -401.69789,-1.9122c-88.87056,-9.41062 8.38925,-70.13778 8.38925,-87.33216c0,-28.58074 201.99085,-56.2545 398.81615,-56.2545c196.8253,0 356.38372,23.16926 356.38372,51.75z" fill="#eeff92" stroke="none" stroke-width="0" stroke-linecap="butt"/><path d="M117.64446,314.65936c-25.00483,3.39712 -47.96536,-13.64979 -51.2838,-38.07538c-3.31843,-24.42556 14.26188,-46.98033 39.26671,-50.37744c25.00483,-3.39713 47.96537,13.64979 51.2838,38.07538c3.31843,24.42556 -14.26188,46.98033 -39.26671,50.37744z" data-paper-data="{&quot;index&quot;:null}" fill="#ffffff" stroke="#000000" stroke-width="3" stroke-linecap="butt"/><path d="M110.8171,272.50359c0,0 -1.29929,-8.7522 -1.97839,-13.32667c-0.72077,-4.85521 -2.22866,-15.01256 -2.22866,-15.01256" data-paper-data="{&quot;index&quot;:null}" fill="none" stroke="#000000" stroke-width="3" stroke-linecap="round"/><path d="M128.81524,269.89906l-3.32628,-26.90988" data-paper-data="{&quot;index&quot;:null}" fill="none" stroke="#000000" stroke-width="3" stroke-linecap="round"/><path d="M100.02672,304.84475c0,0 2.78001,-5.1624 6.17924,-5.68849c6.7169,-1.03955 29.98426,-4.64056 29.98426,-4.64056" data-paper-data="{&quot;index&quot;:null}" fill="none" stroke="#000000" stroke-width="3" stroke-linecap="round"/><path d="M95.06797,239.26465l18,6.5" fill="none" stroke="#000000" stroke-width="3" stroke-linecap="round"/><path d="M118.06797,245.76465l16,-10" fill="none" stroke="#000000" stroke-width="3" stroke-linecap="round"/><path d="M160.63583,296.63543c0.55004,2.11843 -11.26283,-11.29976 -25.12795,-8.07141c-5.87762,1.36855 -5.99039,-0.98293 -13.17298,0.20012c-5.53334,0.9114 -14.54417,4.56078 -21.84658,3.0863c-8.66218,-1.74904 -17.73057,14.74348 -22.88657,14.69421c-5.35402,-0.05117 -0.06172,-14.86281 -0.36919,-16.04703c-0.7832,-3.01646 18.13999,-8.68323 42.26614,-12.65707c9.06274,-1.49273 17.29073,-1.49442 24.07382,-0.75474c5.95909,0.64983 13.55347,3.44265 16.34625,8.19488c2.49103,4.23878 0.48653,10.46684 0.71706,11.35474z" fill="#2c7543" stroke="#000000" stroke-width="2.5" stroke-linecap="butt"/><path d="M74.95261,232.65981c0,0 -2.74062,-6.89302 -2.76709,-10.20586c-0.0295,-3.69263 2.5982,-10.93441 2.5982,-10.93441c0,0 11.74073,-1.71124 17.27522,-3.26617c5.91811,-1.66271 18.27118,-6.76011 18.27118,-6.76011c0,0 5.37324,5.31981 7.44013,7.73029c2.22761,2.59791 5.4795,7.33704 5.4795,7.33704c0,0 7.11172,-4.04689 10.59336,-5.22139c2.92781,-0.98769 8.92432,-1.36274 8.92432,-1.36274c0,0 1.22322,4.91929 -0.19335,9.3837c-0.83133,2.61997 -3.2113,4.75127 -5.57555,6.52528c-9.45786,7.09669 -27.06987,12.41831 -35.84469,14.99288c-6.61143,1.93982 -19.75136,5.38159 -28.9501,6.19832c-4.11232,0.36512 -8.48466,0.76981 -11.89079,-0.5777c-5.98016,-2.36583 -7.58854,-6.8048 -7.58854,-6.8048c0,0 3.60949,-2.45717 6.25716,-3.35141c3.49594,-1.18075 12.89005,-3.11548 12.89005,-3.11548" fill="#854124" stroke="#854124" stroke-width="3" stroke-linecap="round"/><path d="M107.18977,229.51394c-1.44937,1.64916 -8.48391,-2.27822 -8.48391,-2.27822c0,0 -4.66987,6.56919 -6.68738,5.70015c-2.01886,-0.86855 -0.45623,-8.7751 -0.45623,-8.7751c0,0 -7.68983,-2.41197 -7.48677,-4.599c0.2026,-2.1885 8.20401,-3.14511 8.20401,-3.14511c0,0 -0.08397,-8.058 2.05857,-8.54274c2.14581,-0.48428 5.52917,6.83111 5.52917,6.83111c0,0 7.6377,-2.57009 8.75847,-0.67985c1.12454,1.88754 -4.78694,7.36689 -4.78694,7.36689c0,0 4.80463,6.47136 3.351,8.12187z" fill="#ffff00" stroke="#000000" stroke-width="1.28786" stroke-linecap="butt"/><path d="M102.01335,225.2877c-0.73013,0.82939 -4.26636,-1.14528 -4.26636,-1.14528c0,0 -2.34589,3.30117 -3.35928,2.86427c-1.01333,-0.43691 -0.2292,-4.40806 -0.2292,-4.40806c0,0 -3.86296,-1.21424 -3.76185,-2.31146c0.10211,-1.09916 4.12145,-1.57949 4.12145,-1.57949c0,0 -0.04163,-4.05 1.03661,-4.29224c1.07641,-0.24328 2.7746,3.4325 2.7746,3.4325c0,0 3.84014,-1.29107 4.40323,-0.34215c0.56643,0.94942 -2.40327,3.70122 -2.40327,3.70122c0,0 2.4114,3.25217 1.68406,4.08068z" fill="#ffffff" stroke="none" stroke-width="2.57572" stroke-linecap="butt"/><path d="M143.86014,210.85338c0,0 -27.27463,18.40402 -42.15195,22.70274c-14.74666,4.26096 -46.72342,2.97728 -46.72342,2.97728" fill="none" stroke="#000000" stroke-width="0.5" stroke-linecap="round"/><path d="M360.71913,310.8416c-26.35245,0.40652 -48.03724,-20.13191 -48.43434,-45.8739c-0.3971,-25.74196 20.64386,-46.93951 46.99631,-47.34601c26.35245,-0.40652 48.03724,20.13191 48.43434,45.8739c0.3971,25.74196 -20.64386,46.93951 -46.99631,47.34601z" fill="#ffffff" stroke="#000000" stroke-width="3" stroke-linecap="butt"/><path d="M338.33656,243.98704l0.82886,29.83942" fill="none" stroke="#000000" stroke-width="3" stroke-linecap="round"/><path d="M364.1459,275.1094l-0.10331,-30.5877" fill="none" stroke="#000000" stroke-width="3" stroke-linecap="round"/><path d="M382.46078,289.28518c0,0 -1.13114,2.1835 -3.53187,3.3875c-1.36473,0.68443 -3.79104,0.72669 -5.02629,0.68475c-7.01575,-0.23821 -32.18619,-1.09286 -32.18619,-1.09286" data-paper-data="{&quot;index&quot;:null}" fill="none" stroke="#000000" stroke-width="3" stroke-linecap="round"/><path d="M332.64108,244.70919c0,0 6.19282,-2.0767 8.94577,-1.69642c0.62731,0.08666 8.55423,2.19642 8.55423,2.19642" fill="none" stroke="#000000" stroke-width="3" stroke-linecap="round"/><path d="M356.88627,242.97338c0,0 6.16782,-1.77579 8.94576,-1.69642c3.51408,-0.8756 8.55424,2.19642 8.55424,2.19642" fill="none" stroke="#000000" stroke-width="3" stroke-linecap="round"/><path d="M282.71333,287.2183l1.94443,-14.6841l-29.7811,-3.58819l1.6838,-10.70339l41.96774,5.13972l-3.27143,25.44362z" data-paper-data="{&quot;index&quot;:null}" fill="#000000" stroke="#000000" stroke-width="4" stroke-linecap="round"/><path d="M172.07019,284.78644l1.74601,-32.38388c0,0 6.4532,0.54119 11.17858,0.93748c8.18817,0.68669 33.56505,2.8149 33.56505,2.8149l-0.41418,13.69724l-31.73896,-2.7361l-0.94893,18.7031z" data-paper-data="{&quot;index&quot;:null}" fill="#40cccc" stroke="#000000" stroke-width="2" stroke-linecap="round"/><path d="M194.6521,268.15948l-0.93332,8.66667l-7.73334,-0.95238" fill="#40cccc" stroke="#000000" stroke-width="2" stroke-linecap="round"/><path d="M203.98543,265.4928v-7.33333" fill="none" stroke="#000000" stroke-width="1.5" stroke-linecap="round"/><path d="M208.6521,258.15947l-0.33334,7" fill="none" stroke="#000000" stroke-width="1.5" stroke-linecap="round"/><path d="M212.98543,258.4928l-0.66667,6.33333" fill="none" stroke="#000000" stroke-width="1.5" stroke-linecap="round"/><path d="M180.9048,252.83555l0.77136,-3.63103l23.91911,1.55276l-0.27136,2.63103z" fill="#000000" stroke="#000000" stroke-width="1.5" stroke-linecap="butt"/><path d="M244.55113,196.5128c-6.13217,0.09459 -11.17818,-4.68466 -11.27059,-10.67478c-0.09241,-5.99011 4.80379,-10.92273 10.93596,-11.01733c6.13217,-0.09459 11.17818,4.68465 11.27059,10.67477c0.09241,5.99011 -4.80379,10.92274 -10.93596,11.01734z" fill="#ffffff" stroke="#000000" stroke-width="1.5" stroke-linecap="butt"/><path d="M244.69629,178.95587l0.19287,6.94358" fill="none" stroke="#000000" stroke-width="1.5" stroke-linecap="round"/><path d="M249.5573,178.53563l0.02404,7.11771" fill="none" stroke="#000000" stroke-width="1.5" stroke-linecap="round"/><path d="M249.61037,192.18996l-9.25722,0.31432" fill="none" stroke="#000000" stroke-width="1.5" stroke-linecap="round"/><path d="M240.65358,179.26674l1.8,-1" fill="none" stroke="#000000" stroke-width="1.5" stroke-linecap="round"/><path d="M251.45358,178.46674l-2.8,-0.6" fill="none" stroke="#000000" stroke-width="1.5" stroke-linecap="round"/><path d="M307.93363,171.37969c1.20809,2.53835 0.05056,5.61311 -2.58542,6.86766c-2.63598,1.25456 -5.75221,0.21383 -6.96031,-2.32452c-1.20809,-2.53835 -0.05056,-5.61311 2.58542,-6.86767c2.63598,-1.25456 5.75221,-0.21383 6.96031,2.32453z" fill="#eeeeee" stroke="#000000" stroke-width="1.5" stroke-linecap="butt"/><path d="M294.73895,177.5276c1.20809,2.53835 0.05056,5.61311 -2.58542,6.86767c-2.63598,1.25456 -5.75222,0.21383 -6.96031,-2.32452c-1.20809,-2.53835 -0.05055,-5.61311 2.58543,-6.86766c2.63598,-1.25456 5.75221,-0.21384 6.96031,2.32452z" fill="#eeeeee" stroke="#000000" stroke-width="1.5" stroke-linecap="butt"/><path d="M290.29945,163.85279c-5.31608,2.63143 -11.70938,0.55493 -14.27985,-4.63799c-2.57047,-5.19292 -0.34472,-11.53581 4.97136,-14.16724c5.31608,-2.63143 11.70938,-0.55493 14.27985,4.638c2.57047,5.19292 0.34472,11.53581 -4.97136,14.16724z" fill="#ffffff" stroke="#000000" stroke-width="1.5" stroke-linecap="butt"/><path d="M284.21988,157.52008l-3.05452,-5.98386" fill="none" stroke="#000000" stroke-width="1.5" stroke-linecap="round"/><path d="M286.19239,148.90777l2.97944,6.20609" fill="none" stroke="#000000" stroke-width="1.5" stroke-linecap="round"/><path d="M293.18922,159.14344l-7.95394,4.12224" fill="none" stroke="#000000" stroke-width="1.5" stroke-linecap="round"/><path d="M280.74045,181.04629l-12.30472,-13.33091l37.87103,-17.76315l2.60573,17.44527z" fill="#9e9e9e" stroke="#000000" stroke-width="1.5" stroke-linecap="butt"/><path d="M319.16905,158.30472l-6.81159,3.24187" fill="none" stroke="#000000" stroke-width="1.5" stroke-linecap="round"/><path d="M311.55861,157.74953l5.63717,-2.68293" fill="none" stroke="#000000" stroke-width="1.5" stroke-linecap="round"/><path d="M310.22281,154.64017l5.57563,-2.50959" fill="none" stroke="#000000" stroke-width="1.5" stroke-linecap="round"/><path d="M161.56483,120.15145c-5.73619,-4.47989 -6.83875,-12.65394 -2.46263,-18.25725c4.37611,-5.6033 12.57376,-6.514 18.30995,-2.0341c5.73619,4.47989 6.83874,12.65394 2.46263,18.25725c-4.37611,5.6033 -12.57375,6.514 -18.30994,2.0341z" fill="#ffffff" stroke="#000000" stroke-width="1.5" stroke-linecap="butt"/><path d="M174.11766,105.15981l-4.99344,6.55908" fill="none" stroke="#000000" stroke-width="1.5" stroke-linecap="round"/><path d="M177.87781,107.97642l-5.27913,6.59421" fill="none" stroke="#000000" stroke-width="1.5" stroke-linecap="round"/><path d="M167.66634,114.86324c0,1.71208 -1.47746,3.1 -3.3,3.1c-1.82254,0 -3.3,-1.38792 -3.3,-3.1c0,-1.71208 1.47746,-3.1 3.3,-3.1c1.82254,0 3.3,1.38792 3.3,3.1z" fill="none" stroke="#000000" stroke-width="1.5" stroke-linecap="butt"/><path d="M69.51305,79.94122c-7.31669,-1.41423 -12.12814,-8.35462 -10.74667,-15.50182c1.38146,-7.14719 8.43271,-11.79468 15.7494,-10.38045c7.31669,1.41423 12.12814,8.35462 10.74667,15.50182c-1.38146,7.14719 -8.43271,11.79468 -15.7494,10.38045z" fill="#ffffff" stroke="#000000" stroke-width="1.5" stroke-linecap="butt"/><path d="M73.25309,61.92841l-1.49936,8.30619" fill="none" stroke="#000000" stroke-width="1.5" stroke-linecap="round"/><path d="M79.77856,62.87569l-1.74351,8.47125" fill="none" stroke="#000000" stroke-width="1.5" stroke-linecap="round"/><path d="M65.01831,75.37862c0,0 2.08262,-0.97439 3.24583,-0.77182c2.02751,0.35308 8.34227,1.45277 8.34227,1.45277" fill="none" stroke="#000000" stroke-width="1.5" stroke-linecap="round"/><path d="M82.53949,61.7112l-7,0.75l-6.5,-4" fill="none" stroke="#000000" stroke-width="1.5" stroke-linecap="round"/><path d="M89.19028,78.19704l3.37292,-7.79376l12.81201,5.63637l-1.33136,3.33065l-9.08165,-4.01649l-1.93054,4.50751z" data-paper-data="{&quot;index&quot;:null}" fill="#000000" stroke="#000000" stroke-width="2.5" stroke-linecap="round"/><path d="M105.16245,78.10692l0.35474,-0.68414l46.52162,24.12232l-0.35474,0.68414z" fill="#00b70f" stroke="#000000" stroke-width="0.5" stroke-linecap="butt"/><path d="M159.85219,96.59094c1.43476,0.49005 1.99658,1.16691 1.59659,1.94307c-0.69394,1.34655 -4.33439,3.68579 -5.32243,6.57859c-1.17512,3.44051 0.81012,7.93902 -0.1666,9.05088c-0.31787,0.36186 -0.78452,-0.07313 -1.748,-0.40221c-3.92391,-1.34023 -5.84222,-6.51726 -4.28466,-11.07749c1.55756,-4.56023 6.00118,-7.43307 9.92509,-6.09284z" fill="#ff0000" stroke="#000000" stroke-width="1.5" stroke-linecap="butt"/><path d="M183.64488,124.68046l3.12526,-7.89633l12.98351,5.22921l-1.22558,3.371l-9.20389,-3.72786l-1.78732,4.56619z" data-paper-data="{&quot;index&quot;:null}" fill="#000000" stroke="#000000" stroke-width="2.5" stroke-linecap="round"/><path d="M430.20861,130.44494c-6.89493,0.10636 -12.5686,-5.26737 -12.6725,-12.00257c-0.1039,-6.7352 5.40132,-12.28138 12.29625,-12.38774c6.89493,-0.10636 12.56859,5.26736 12.67249,12.00257c0.1039,6.7352 -5.40131,12.28138 -12.29624,12.38774z" fill="#ffffff" stroke="#000000" stroke-width="1.5" stroke-linecap="butt"/><path d="M429.79749,120.4867l-0.21686,-7.80727" fill="none" stroke="#000000" stroke-width="1.5" stroke-linecap="round"/><path d="M435.1181,112.70529l0.02703,8.00305" fill="none" stroke="#000000" stroke-width="1.5" stroke-linecap="round"/><path d="M426.19016,124.87181l10.4087,-0.67739" fill="none" stroke="#000000" stroke-width="1.5" stroke-linecap="round"/></g></g></svg>