<svg version="1.1" xmlns="http://www.w3.org/2000/svg" xmlns:xlink="http://www.w3.org/1999/xlink" width="773.02561" height="548.70719" viewBox="0,0,773.02561,548.70719"><defs><radialGradient cx="71.2553" cy="61.53413" r="45.52948" gradientUnits="userSpaceOnUse" id="color-1"><stop offset="0" stop-color="#ffffff"/><stop offset="1" stop-color="#ffffff"/></radialGradient><radialGradient cx="398.25531" cy="97.53413" r="45.52947" gradientUnits="userSpaceOnUse" id="color-2"><stop offset="0" stop-color="#ffffff"/><stop offset="1" stop-color="#ffffff"/></radialGradient><radialGradient cx="-57.37834" cy="31.9996" r="45.52948" gradientUnits="userSpaceOnUse" id="color-3"><stop offset="0" stop-color="#ffffff"/><stop offset="1" stop-color="#ffffff"/></radialGradient><radialGradient cx="539.21325" cy="-26.06347" r="45.52948" gradientUnits="userSpaceOnUse" id="color-4"><stop offset="0" stop-color="#ffffff"/><stop offset="1" stop-color="#ffffff"/></radialGradient><radialGradient cx="541.21025" cy="141.09869" r="45.52948" gradientUnits="userSpaceOnUse" id="color-5"><stop offset="0" stop-color="#ffffff"/><stop offset="1" stop-color="#ffffff"/></radialGradient><radialGradient cx="-67.90387" cy="167.11971" r="45.52948" gradientUnits="userSpaceOnUse" id="color-6"><stop offset="0" stop-color="#ffffff"/><stop offset="1" stop-color="#ffffff"/></radialGradient></defs><g transform="translate(144.27561,91.74022)"><g data-paper-data="{&quot;isPaintingLayer&quot;:true}" fill-rule="nonzero" stroke-linejoin="miter" stroke-miterlimit="10" stroke-dasharray="" stroke-dashoffset="0" style="mix-blend-mode: normal"><path d="M-142.02561,451.15185v-540.64207h768.52561v540.64207z" fill="#7effff" stroke="#000000" stroke-width="4.5" stroke-linecap="butt"/><path d="M1.1681,343l46.66666,-126l51.33334,-113c0,0 22.71586,18.73481 32.16995,26.55262c7.33643,6.06667 19.83005,16.44738 19.83005,16.44738l45,-47l273,226" fill="#00d6d6" stroke="#000000" stroke-width="2" stroke-linecap="round"/><path d="M187.4454,114.00326l9.16666,-9.83333l3.83334,3.16667l15.33334,13z" fill="#ffffff" stroke="#ffffff" stroke-width="4.5" stroke-linecap="butt"/><text transform="translate(126.56956,51.76235) scale(1.13774,1.13774)" font-size="40" xml:space="preserve" data-paper-data="{&quot;index&quot;:null}" fill="#000000" fill-rule="nonzero" stroke="none" stroke-width="1" stroke-linecap="butt" stroke-linejoin="miter" stroke-miterlimit="10" stroke-dasharray="" stroke-dashoffset="0" font-family="Pixel" font-weight="normal" text-anchor="start" style="mix-blend-mode: normal"><tspan x="0" dy="0">Tactigun!</tspan></text><path d="M197.52852,261.26228c-40.41803,5.99894 -77.93375,-21.14418 -83.79374,-60.62591c-5.85998,-39.48169 22.15486,-76.35107 62.57289,-82.34999c40.41803,-5.99895 77.93376,21.14418 83.79374,60.62591c5.85998,39.48169 -22.15486,76.35107 -62.57289,82.34999z" data-paper-data="{&quot;index&quot;:null}" fill="#ffffff" stroke="#000000" stroke-width="4.5" stroke-linecap="butt"/><path d="M187.57661,204.45487c0,0 -2.84098,-17.63884 -4.32585,-26.85805c-1.57601,-9.78499 -4.87309,-30.25571 -4.87309,-30.25571" data-paper-data="{&quot;index&quot;:null}" fill="none" stroke="#000000" stroke-width="4.5" stroke-linecap="round"/><path d="M216.56558,199.88013l-7.46277,-54.82051" data-paper-data="{&quot;index&quot;:null}" fill="none" stroke="#000000" stroke-width="4.5" stroke-linecap="round"/><path d="M166.28921,238.46641l60.86542,-10.18893" data-paper-data="{&quot;index&quot;:null}" fill="none" stroke="#000000" stroke-width="4.5" stroke-linecap="round"/><path d="M354.24333,203.60581c-17.8849,2.75881 -34.56813,-9.16741 -37.26304,-26.638c-2.69491,-17.47057 9.61901,-33.86974 27.50391,-36.62856c17.8849,-2.75881 34.56813,9.16741 37.26304,26.638c2.69491,17.47057 -9.61901,33.86974 -27.50391,36.62856z" data-paper-data="{&quot;index&quot;:null}" fill="#ffffff" stroke="#000000" stroke-width="3" stroke-linecap="butt"/><path d="M334.47529,159.79992l3.37453,20.21672" data-paper-data="{&quot;index&quot;:null}" fill="none" stroke="#000000" stroke-width="3" stroke-linecap="round"/><path d="M350.23658,178.40695l-2.95155,-20.794" data-paper-data="{&quot;index&quot;:null}" fill="none" stroke="#000000" stroke-width="3" stroke-linecap="round"/><path d="M367.28064,188.92294l-26.92991,4.66607" data-paper-data="{&quot;index&quot;:null}" fill="none" stroke="#000000" stroke-width="3" stroke-linecap="round"/><path d="M349.70292,148.06469l-9.87148,9.53059l-9.88314,-4.62329" data-paper-data="{&quot;index&quot;:null}" fill="none" stroke="#000000" stroke-width="3" stroke-linecap="round"/><path d="M400.09048,175.20202l-8.05715,-20.31222l33.55777,-13.07822l3.6433,8.48l-23.82566,9.23181l4.69652,11.71078z" data-paper-data="{&quot;index&quot;:null}" fill="#000000" stroke="#000000" stroke-width="4" stroke-linecap="round"/><path d="M79.21084,348.33946c-11.65927,3.81793 -24.09714,-2.19329 -27.78078,-13.42645c-3.68363,-11.23314 2.7819,-23.43445 14.44117,-27.25237c11.65927,-3.81793 24.09714,2.19329 27.78078,13.42645c3.68363,11.23314 -2.7819,23.43445 -14.44117,27.25237z" fill="#ffffff" stroke="#000000" stroke-width="2.5" stroke-linecap="butt"/><path d="M71.2005,329.80681l-4.43381,-12.97027" fill="none" stroke="#000000" stroke-width="2.5" stroke-linecap="round"/><path d="M77.33437,313.94279l4.21322,13.3986" fill="none" stroke="#000000" stroke-width="2.5" stroke-linecap="round"/><path d="M86.34489,332.69049l-17.50061,6.08682" fill="none" stroke="#000000" stroke-width="2.5" stroke-linecap="round"/><path d="M58.7866,221.95622l9.76009,-24.33678l-49.51338,-19.18511l7.57134,-17.62274l69.73818,27.17854l-16.74399,42.2119z" data-paper-data="{&quot;index&quot;:null}" fill="#000000" stroke="#000000" stroke-width="4" stroke-linecap="round"/><path d="M127.3482,330.4695c-0.51093,-11.81068 9.01094,-21.81913 21.26772,-22.35454c12.25677,-0.53542 22.60704,8.60498 23.11797,20.41564c0.51093,11.81068 -9.01095,21.81913 -21.26772,22.35454c-12.25677,0.53542 -22.60704,-8.60498 -23.11797,-20.41564z" data-paper-data="{&quot;index&quot;:null}" fill="#ffffff" stroke="#000000" stroke-width="2.5" stroke-linecap="butt"/><path d="M151.01127,317.01785l0.421,13.7007" data-paper-data="{&quot;index&quot;:null}" fill="none" stroke="#000000" stroke-width="2.5" stroke-linecap="round"/><path d="M140.88008,332.05733l-0.77837,-14.02383" data-paper-data="{&quot;index&quot;:null}" fill="none" stroke="#000000" stroke-width="2.5" stroke-linecap="round"/><path d="M156.79833,338.28339l-18.52294,0.47039" data-paper-data="{&quot;index&quot;:null}" fill="none" stroke="#000000" stroke-width="2.5" stroke-linecap="round"/><path d="M-120.27553,456.96697v-122.07281h723.003v122.07281z" fill="#e7d6ff" stroke="#000000" stroke-width="0" stroke-linecap="butt"/><path d="M415.59534,294.35362c99.20395,0 179.62463,32.26776 179.62463,72.07207c0,39.8043 -80.42069,72.07207 -179.62463,72.07207c-99.20395,0 -179.62462,-32.26776 -179.62462,-72.07207c0,-39.8043 80.42069,-72.07207 179.62463,-72.07207z" fill="#e5ffd7" stroke="#000000" stroke-width="2.5" stroke-linecap="butt"/><path d="M361.44967,294.91492c1.46336,-14.41411 14.77666,-24.87304 29.73613,-23.36068c14.95946,1.51234 25.90022,14.42329 24.43687,28.83738c-1.46336,14.41411 -14.77667,24.87304 -29.73614,23.36069c-14.95946,-1.51234 -25.90021,-14.42329 -24.43686,-28.83738z" data-paper-data="{&quot;index&quot;:null}" fill="#ffffff" stroke="#000000" stroke-width="2.5" stroke-linecap="butt"/><path d="M379.11047,282.08182l-1.52934,17.14541" data-paper-data="{&quot;index&quot;:null}" fill="none" stroke="#000000" stroke-width="2.5" stroke-linecap="round"/><path d="M395.78874,309.58567l-22.54762,-2.69635" data-paper-data="{&quot;index&quot;:null}" fill="none" stroke="#000000" stroke-width="2.5" stroke-linecap="round"/><path d="M376.72891,280.32261l7,4.6" fill="none" stroke="#000000" stroke-width="2.5" stroke-linecap="round"/><path d="M389.32892,292.52261l-0.8,6.8" fill="none" stroke="#000000" stroke-width="2.5" stroke-linecap="round"/><path d="M387.52893,291.32261l8.6,-2.8" fill="none" stroke="#000000" stroke-width="2.5" stroke-linecap="round"/><path d="M334.49577,296.23417l4.69652,-11.71078l-34.32566,-12.23181l3.6433,-9.23l44.05777,16.82822l-8.05715,20.31222z" data-paper-data="{&quot;index&quot;:null}" fill="#000000" stroke="#000000" stroke-width="4" stroke-linecap="round"/><path d="M328.68372,270.8801l2.25,-7" fill="none" stroke="#000000" stroke-width="4" stroke-linecap="round"/><path d="M334.14257,261.35415c-0.38081,2.17607 -1.90231,3.72788 -3.39836,3.46608c-1.49605,-0.26181 -2.40012,-2.2381 -2.01931,-4.41417c0.38081,-2.17607 1.90231,-3.72788 3.39836,-3.46608c1.49605,0.26181 2.40012,2.2381 2.01931,4.41417z" fill="#b3afaf" stroke="#000000" stroke-width="2.5" stroke-linecap="butt"/><text transform="translate(184.50002,84) scale(0.5,0.5)" font-size="40" xml:space="preserve" fill="#000000" fill-rule="nonzero" stroke="none" stroke-width="1" stroke-linecap="butt" stroke-linejoin="miter" stroke-miterlimit="10" stroke-dasharray="" stroke-dashoffset="0" font-family="Pixel" font-weight="normal" text-anchor="start" style="mix-blend-mode: normal"><tspan x="0" dy="0">Season 2</tspan></text><path d="M101.16811,103.4l29,26.2l-13,16.4l-12,-8l-9,10l-12,-11l13.8,-28.2z" fill="#ffffff" stroke="#000000" stroke-width="2" stroke-linecap="round"/><path d="M81.93479,140.06667l18.53334,-38.46667l32.4619,29.85715" fill="none" stroke="#000000" stroke-width="1.75" stroke-linecap="round"/><path d="M309.25002,268.25489c0,0 -18.03449,-6.54701 -24.602,-8.98637" fill="none" stroke="#000000" stroke-width="7.5" stroke-linecap="round"/><path d="M283.37502,256.50489l-1.5,4.125" fill="none" stroke="#000000" stroke-width="3" stroke-linecap="round"/><path d="M329.78397,289.28602l3.02182,-6.97342l8.80853,3.81703l-3.02182,6.97342z" fill="none" stroke="#000000" stroke-width="2" stroke-linecap="butt"/><path d="M72.55903,34.88257c7.99505,-1.98506 17.13996,-2.91587 25.0481,0.46444c2.77877,1.34975 -0.92834,8.17443 0.97846,11.05405c1.05123,1.58656 3.70791,-2.53868 5.04875,-0.97538c5.36497,5.40256 13.11584,11.3513 13.15028,19.87873c0.03598,8.76337 -6.20103,17.76173 -12.96165,21.50617c-9.46662,5.23256 -20.91281,2.55724 -31.34227,1.8095c-9.74605,-0.69856 -19.21421,-4.10581 -28.84446,-6.03793c-4.77636,-0.745 -10.17577,0.77006 -14.40267,-1.99712c-2.57292,-1.68412 -4.04289,-6.18475 -3.3267,-9.70718c1.04419,-4.09368 7.5223,-3.9088 8.68859,-8.03505c1.19215,-4.22374 -4.10239,-9.23618 -2.66138,-13.74786c1.09117,-3.06262 5.35089,-2.82394 8.37546,-3.34412c5.18344,-0.88337 10.69556,1.594 15.73339,0c6.06708,-1.94606 10.36051,-9.34018 16.51611,-10.86824z" fill="url(#color-1)" stroke="none" stroke-width="1.28185" stroke-linecap="round"/><path d="M399.55906,70.88257c7.99505,-1.98506 17.13996,-2.91587 25.0481,0.46444c2.77877,1.34975 -0.92834,8.17443 0.97845,11.05405c1.05123,1.58656 3.70792,-2.53869 5.04876,-0.97537c5.36496,5.40256 13.11584,11.35131 13.15028,19.87874c0.03598,8.76337 -6.20103,17.76173 -12.96165,21.50616c-9.46662,5.23256 -20.9128,2.55724 -31.34227,1.80949c-9.74605,-0.69857 -19.21421,-4.10581 -28.84447,-6.03793c-4.77636,-0.745 -10.17577,0.77006 -14.40267,-1.99712c-2.57292,-1.68412 -4.04289,-6.18474 -3.3267,-9.70718c1.0442,-4.09368 7.52231,-3.90881 8.68859,-8.03506c1.19215,-4.22374 -4.10239,-9.23618 -2.66138,-13.74786c1.09116,-3.06262 5.35089,-2.82394 8.37545,-3.34413c5.18344,-0.88338 10.69556,1.594 15.73338,0c6.06708,-1.94606 10.36052,-9.34018 16.51612,-10.86823z" fill="url(#color-2)" stroke="none" stroke-width="1.28185" stroke-linecap="round"/><path d="M-56.0746,5.34804c7.99505,-1.98506 17.13996,-2.91587 25.0481,0.46444c2.77877,1.34975 -0.92834,8.17443 0.97846,11.05405c1.05123,1.58656 3.70791,-2.53868 5.04875,-0.97538c5.36497,5.40256 13.11584,11.3513 13.15028,19.87873c0.03598,8.76337 -6.20103,17.76173 -12.96165,21.50617c-9.46662,5.23256 -20.91281,2.55724 -31.34227,1.8095c-9.74605,-0.69856 -19.21421,-4.10581 -28.84446,-6.03793c-4.77636,-0.745 -10.17577,0.77006 -14.40267,-1.99712c-2.57292,-1.68412 -4.04289,-6.18475 -3.3267,-9.70718c1.04419,-4.09368 7.5223,-3.9088 8.68859,-8.03505c1.19215,-4.22374 -4.10239,-9.23618 -2.66138,-13.74786c1.09117,-3.06262 5.35089,-2.82394 8.37546,-3.34412c5.18344,-0.88337 10.69556,1.594 15.73339,0c6.06708,-1.94606 10.36051,-9.34018 16.51611,-10.86824z" fill="url(#color-3)" stroke="none" stroke-width="1.28185" stroke-linecap="round"/><path d="M540.51699,-52.71503c7.99505,-1.98506 17.13996,-2.91587 25.0481,0.46444c2.77877,1.34975 -0.92834,8.17443 0.97846,11.05405c1.05123,1.58656 3.70791,-2.53868 5.04875,-0.97538c5.36497,5.40256 13.11584,11.3513 13.15028,19.87873c0.03598,8.76337 -6.20103,17.76173 -12.96165,21.50617c-9.46662,5.23256 -20.91281,2.55724 -31.34227,1.8095c-9.74605,-0.69856 -19.21421,-4.10581 -28.84446,-6.03793c-4.77636,-0.745 -10.17577,0.77006 -14.40267,-1.99712c-2.57292,-1.68412 -4.04289,-6.18475 -3.3267,-9.70718c1.04419,-4.09368 7.5223,-3.9088 8.68859,-8.03505c1.19215,-4.22374 -4.10239,-9.23618 -2.66138,-13.74786c1.09117,-3.06262 5.35089,-2.82394 8.37546,-3.34412c5.18344,-0.88337 10.69556,1.594 15.73339,0c6.06708,-1.94606 10.36051,-9.34018 16.51611,-10.86824z" fill="url(#color-4)" stroke="none" stroke-width="1.28185" stroke-linecap="round"/><path d="M542.51399,114.44713c7.99505,-1.98506 17.13996,-2.91587 25.0481,0.46444c2.77877,1.34975 -0.92834,8.17443 0.97846,11.05405c1.05123,1.58656 3.70791,-2.53868 5.04875,-0.97538c5.36497,5.40256 13.11584,11.3513 13.15028,19.87873c0.03598,8.76337 -6.20103,17.76173 -12.96165,21.50617c-9.46662,5.23256 -20.91281,2.55724 -31.34227,1.8095c-9.74605,-0.69856 -19.21421,-4.10581 -28.84446,-6.03793c-4.77636,-0.745 -10.17577,0.77006 -14.40267,-1.99712c-2.57292,-1.68412 -4.04289,-6.18475 -3.3267,-9.70718c1.04419,-4.09368 7.5223,-3.9088 8.68859,-8.03505c1.19215,-4.22374 -4.10239,-9.23618 -2.66138,-13.74786c1.09117,-3.06262 5.35089,-2.82394 8.37546,-3.34412c5.18344,-0.88337 10.69556,1.594 15.73339,0c6.06708,-1.94606 10.36051,-9.34018 16.51611,-10.86824z" fill="url(#color-5)" stroke="none" stroke-width="1.28185" stroke-linecap="round"/><path d="M-66.60013,140.46815c7.99505,-1.98506 17.13996,-2.91587 25.0481,0.46444c2.77877,1.34975 -0.92834,8.17443 0.97846,11.05405c1.05123,1.58656 3.70791,-2.53868 5.04875,-0.97538c5.36497,5.40256 13.11584,11.3513 13.15028,19.87873c0.03598,8.76337 -6.20103,17.76173 -12.96165,21.50617c-9.46662,5.23256 -20.91281,2.55724 -31.34227,1.8095c-9.74605,-0.69856 -19.21421,-4.10581 -28.84446,-6.03793c-4.77636,-0.745 -10.17577,0.77006 -14.40267,-1.99712c-2.57292,-1.68412 -4.04289,-6.18475 -3.3267,-9.70718c1.04419,-4.09368 7.5223,-3.9088 8.68859,-8.03505c1.19215,-4.22374 -4.10239,-9.23618 -2.66138,-13.74786c1.09117,-3.06262 5.35089,-2.82394 8.37546,-3.34412c5.18344,-0.88337 10.69556,1.594 15.73339,0c6.06708,-1.94606 10.36051,-9.34018 16.51611,-10.86824z" fill="url(#color-6)" stroke="none" stroke-width="1.28185" stroke-linecap="round"/></g></g></svg>