<svg version="1.1" xmlns="http://www.w3.org/2000/svg" xmlns:xlink="http://www.w3.org/1999/xlink" width="1124" height="726" viewBox="0,0,1124,726"><defs><linearGradient x1="4.21868" y1="8.62316" x2="4.21868" y2="64.81806" gradientUnits="userSpaceOnUse" id="color-1"><stop offset="0" stop-color="#ffffff"/><stop offset="1" stop-color="#cccccc"/></linearGradient><linearGradient x1="244.81543" y1="107.14963" x2="244.81543" y2="163.34453" gradientUnits="userSpaceOnUse" id="color-2"><stop offset="0" stop-color="#ffffff"/><stop offset="1" stop-color="#cccccc"/></linearGradient><linearGradient x1="32.94789" y1="118.74098" x2="32.94789" y2="174.93588" gradientUnits="userSpaceOnUse" id="color-3"><stop offset="0" stop-color="#ffffff"/><stop offset="1" stop-color="#cccccc"/></linearGradient><linearGradient x1="229.60343" y1="31.59319" x2="229.60343" y2="79.28667" gradientTransform="translate(-108.579,-67.79622) scale(1.00642,1.00642)" gradientUnits="userSpaceOnUse" id="color-4"><stop offset="0" stop-color="#ffffff"/><stop offset="1" stop-color="#b8b7b7"/></linearGradient><linearGradient x1="237.66667" y1="95" x2="237.66667" y2="302" gradientUnits="userSpaceOnUse" id="color-5"><stop offset="0" stop-color="#00dada"/><stop offset="1" stop-color="#585757"/></linearGradient><linearGradient x1="158.77874" y1="118.03308" x2="158.77874" y2="238.35513" gradientUnits="userSpaceOnUse" id="color-6"><stop offset="0" stop-color="#ffffff"/><stop offset="1" stop-color="#ffffff"/></linearGradient><linearGradient x1="240.058" y1="302.00601" x2="240.058" y2="494.5" gradientUnits="userSpaceOnUse" id="color-7"><stop offset="0" stop-color="#00d922"/><stop offset="1" stop-color="#8b8504"/></linearGradient><linearGradient x1="355.77933" y1="272.75016" x2="413.30621" y2="272.75016" gradientUnits="userSpaceOnUse" id="color-8"><stop offset="0" stop-color="#fcf2ff"/><stop offset="1" stop-color="#ffffff"/></linearGradient><linearGradient x1="268.30622" y1="273.25016" x2="210.77933" y2="273.25016" gradientUnits="userSpaceOnUse" id="color-9"><stop offset="0" stop-color="#fcf2ff"/><stop offset="1" stop-color="#ffffff"/></linearGradient><linearGradient x1="435.01122" y1="104.83136" x2="435.01122" y2="161.02626" gradientUnits="userSpaceOnUse" id="color-10"><stop offset="0" stop-color="#ffffff"/><stop offset="1" stop-color="#cccccc"/></linearGradient><linearGradient x1="435.01122" y1="-7.60473" x2="435.01122" y2="48.59017" gradientUnits="userSpaceOnUse" id="color-11"><stop offset="0" stop-color="#ffffff"/><stop offset="1" stop-color="#cccccc"/></linearGradient><linearGradient x1="390.20087" y1="73.8681" x2="408.90717" y2="192.72714" gradientUnits="userSpaceOnUse" id="color-12"><stop offset="0" stop-color="#ffffff"/><stop offset="1" stop-color="#ffffff"/></linearGradient><linearGradient x1="-103.88943" y1="-25.91137" x2="-103.88943" y2="30.28353" gradientUnits="userSpaceOnUse" id="color-13"><stop offset="0" stop-color="#ffffff"/><stop offset="1" stop-color="#cccccc"/></linearGradient><linearGradient x1="-103.88943" y1="74.68922" x2="-103.88943" y2="130.88413" gradientUnits="userSpaceOnUse" id="color-14"><stop offset="0" stop-color="#ffffff"/><stop offset="1" stop-color="#cccccc"/></linearGradient><linearGradient x1="508.72319" y1="198.65257" x2="508.72319" y2="254.84747" gradientUnits="userSpaceOnUse" id="color-15"><stop offset="0" stop-color="#ffffff"/><stop offset="1" stop-color="#cccccc"/></linearGradient><linearGradient x1="217.84146" y1="-67.1132" x2="217.84146" y2="-10.9183" gradientUnits="userSpaceOnUse" id="color-16"><stop offset="0" stop-color="#ffffff"/><stop offset="1" stop-color="#cccccc"/></linearGradient><linearGradient x1="-103.88943" y1="194.14806" x2="-103.88943" y2="250.34296" gradientUnits="userSpaceOnUse" id="color-17"><stop offset="0" stop-color="#ffffff"/><stop offset="1" stop-color="#cccccc"/></linearGradient></defs><g transform="translate(226.5,101.74981)"><g data-paper-data="{&quot;isPaintingLayer&quot;:true}" stroke-linejoin="miter" stroke-miterlimit="10" stroke-dasharray="" stroke-dashoffset="0" style="mix-blend-mode: normal"><path d="M-226.5,624.25019v-726h1124v726z" fill="#c4a5f1" fill-rule="nonzero" stroke="none" stroke-width="0" stroke-linecap="butt"/><path d="M50.49571,10.38554c7.9001,-1.96148 16.93641,-2.88125 24.75063,0.45892c2.74577,1.33372 -0.91731,8.07735 0.96684,10.92278c1.03875,1.56772 3.66388,-2.50854 4.98879,-0.9638c5.30125,5.3384 12.96007,11.2165 12.99411,19.64266c0.03556,8.6593 -6.12739,17.5508 -12.80772,21.25076c-9.3542,5.17042 -20.66445,2.52687 -30.97006,1.788c-9.6303,-0.69026 -18.98602,-4.05705 -28.5019,-5.96622c-4.71964,-0.73615 -10.05493,0.76092 -14.23162,-1.9734c-2.54237,-1.66412 -3.99487,-6.1113 -3.28719,-9.5919c1.03179,-4.04507 7.43297,-3.86239 8.5854,-7.93963c1.17799,-4.17359 -4.05367,-9.12649 -2.62977,-13.58459c1.07821,-3.02625 5.28735,-2.7904 8.27599,-3.30441c5.12188,-0.87288 10.56853,1.57506 15.54653,0c5.99503,-1.92295 10.23748,-9.22925 16.31997,-10.73916z" fill="url(#color-1)" fill-rule="nonzero" stroke="none" stroke-width="1.28185" stroke-linecap="round"/><path d="M291.09246,108.91201c7.9001,-1.96148 16.93641,-2.88124 24.75063,0.45892c2.74577,1.33372 -0.91731,8.07735 0.96684,10.92278c1.03875,1.56772 3.66388,-2.50854 4.98879,-0.9638c5.30125,5.3384 12.96007,11.21649 12.99411,19.64266c0.03555,8.6593 -6.12739,17.55079 -12.80772,21.25076c-9.3542,5.17041 -20.66445,2.52687 -30.97005,1.788c-9.63031,-0.69027 -18.98602,-4.05705 -28.50191,-5.96622c-4.71964,-0.73615 -10.05493,0.76092 -14.23163,-1.9734c-2.54237,-1.66413 -3.99487,-6.1113 -3.28719,-9.5919c1.03179,-4.04506 7.43297,-3.86238 8.5854,-7.93963c1.17799,-4.17359 -4.05367,-9.12649 -2.62977,-13.58459c1.0782,-3.02625 5.28735,-2.7904 8.27599,-3.30441c5.12188,-0.87288 10.56853,1.57506 15.54654,0c5.99503,-1.92295 10.23748,-9.22925 16.31997,-10.73916z" fill="url(#color-2)" fill-rule="nonzero" stroke="none" stroke-width="1.28185" stroke-linecap="round"/><path d="M182.73977,239.51225c-2.32122,10.66198 -11.94286,16.98821 -17.35504,25.91229c-1.49486,2.36283 -2.53691,4.98324 -3.07291,7.72738c-0.56527,3.2473 0.24054,6.29015 0.73365,9.47732c0.60737,3.96893 0.18642,8.89401 -3.88474,10.87847c-1.02831,0.50514 -2.21298,0.67351 -3.07291,1.5996c-0.85993,0.92608 -0.98622,2.29717 -1.08845,3.49987c-0.16838,1.99048 -0.20446,3.90278 -0.92007,5.80305c-1.56352,4.17339 -4.60636,7.78752 -7.31846,11.26334c-2.44149,3.13305 -4.3117,7.31846 -7.71535,9.53144c-2.18291,1.43122 -5.14758,1.59358 -7.67927,1.80406c-2.24906,0.18041 -5.39413,0.64946 -7.53495,-0.30068c-1.42521,-0.63142 -2.18291,-2.72413 -2.78426,-4.02906c-0.90089,-1.96424 -1.63121,-4.00232 -2.18291,-6.0917c-1.34102,-4.87697 -2.59183,-9.69982 -4.05312,-14.58882c-1.46129,-4.889 -2.4896,-9.9584 -1.74994,-15.06388c0.41493,-2.87447 1.21473,-5.6888 0.9321,-8.61738c-0.24604,-2.46243 -1.07023,-4.83194 -2.40541,-6.91556c-1.19669,-1.86419 -3.25332,-3.21122 -4.15535,-5.23778c-0.90203,-2.02656 -0.12628,-4.01102 0.60135,-5.94738c0.46304,-1.18466 1.04034,-2.63392 0.60135,-3.90879c-0.48108,-1.40115 -1.98446,-1.37108 -3.1571,-1.80406c-1.53946,-0.56527 -2.72413,-1.66575 -3.99298,-2.66399c-0.96818,-0.76372 -2.14683,-1.7319 -3.48183,-1.41919c-0.91406,0.21649 -1.63568,0.99223 -2.40541,1.52744c-1.68379,1.17264 -3.52393,1.26284 -5.50839,1.13054c-1.53946,-0.10824 -3.0248,-0.25858 -4.51015,0.27662c-0.98622,0.3548 -1.89426,0.90804 -2.8444,1.34703c-1.56953,0.71561 -3.23528,1.19669 -4.95515,0.71561c-1.96642,-0.54723 -3.47582,-2.05663 -4.85292,-3.47582c-1.80406,-1.85818 -3.71636,-3.68028 -5.37008,-5.66474c-1.5094,-1.80406 -1.45527,-3.6021 -2.05663,-5.74893c-0.57129,-1.9544 -2.40541,-2.62791 -3.60812,-4.11927c-0.99085,-1.15944 -1.0604,-2.8461 -0.16838,-4.08318c0.60737,-0.95615 1.45527,-1.67777 1.50338,-2.88048c0.02487,-1.28527 -0.7108,-2.46424 -1.87622,-3.00676c-0.28835,-0.17208 -0.46612,-0.48206 -0.46906,-0.81784c-0.17862,-3.38715 1.05104,-6.69745 3.39764,-9.14657c0.6675,-0.67953 1.49737,-1.17264 2.15284,-1.84615c0.90804,-0.9321 0.72162,-1.81007 0.90804,-2.92859c0.18302,-1.13062 1.04804,-2.02919 2.17088,-2.25507c1.3771,-0.38487 2.74217,-0.16237 3.69231,-1.44325c0.71561,-0.97419 0.94412,-2.29717 1.20271,-3.45778c0.51716,-2.40541 1.05838,-4.78075 2.92257,-6.54873c4.63042,-4.38386 11.45577,-2.5798 17.12051,-2.9767c2.15331,-0.17976 4.24296,-0.81957 6.12778,-1.87622c1.16662,-0.60135 2.42946,-1.28689 3.78251,-1.28689c2.88048,-0.06014 3.63818,2.41744 4.78075,4.51015c0.97419,1.79203 2.54372,2.0446 4.34778,2.64595c1.22971,0.40557 2.37357,1.0356 3.37359,1.85818c1.35304,1.08845 2.70609,2.76622 4.47406,3.15109c0.89602,0.19243 2.53169,-0.09622 3.07893,-0.9802c-0.65547,-1.64771 0.7096,-3.36757 2.47757,-3.55399c1.60561,-0.18041 3.32548,0.58331 4.81082,1.0223l5.35805,1.57554c2.72413,0.80581 5.84515,1.40115 7.84765,3.39764c2.0025,1.99649 3.67426,4.45602 5.37609,6.7111c1.8836,2.45006 3.60705,5.01918 5.15961,7.6913c1.4673,2.59784 2.4896,5.38211 3.87271,8.01002c1.44926,2.7542 3.84264,4.43197 5.69481,6.83738c1.44325,1.87021 2.32723,5.03934 4.81082,5.779c2.20696,0.64946 4.65447,-0.91406 6.61488,-1.6898c1.85818,-0.73365 3.78852,-1.20271 5.71285,-0.42696c0.44276,0.17941 0.69171,0.65188 0.58933,1.11852z" fill="#74b140" fill-rule="evenodd" stroke="none" stroke-width="1" stroke-linecap="butt"/><path d="M180.82145,289.70115c-0.45567,1.94799 -1.18236,3.82244 -2.15886,5.56853c-1.1125,2.1769 -2.49561,3.999 -3.04886,6.44049c-0.41493,1.82811 -0.68554,3.7344 -1.71987,5.34603c-1.27487,1.97845 -5.15359,4.04109 -6.3563,0.77574c-1.03433,-2.8444 -0.54122,-6.47055 1.58757,-8.61738c-0.7519,-2.752 -0.18553,-5.69709 1.53345,-7.97394c1.18466,-1.53345 2.82636,-2.12277 4.28764,-3.42771c1.46129,-1.30494 2.34528,-3.10899 3.21122,-4.81082c0.22011,-0.3621 0.65338,-0.53468 1.06217,-0.42307c0.40878,0.11161 0.69425,0.48044 0.69979,0.90415c-0.11426,2.15886 1.30494,3.9569 0.90203,6.21799z" fill="#74b140" fill-rule="evenodd" stroke="none" stroke-width="1" stroke-linecap="butt"/><path d="M236.5909,244.3772c0.36873,0.95659 0.49876,1.98861 0.37885,3.00676c0.05364,1.04102 -0.01702,2.08471 -0.21047,3.10899c-0.42095,1.67176 -2.32122,2.4896 -3.60812,1.07041c-0.67351,-0.73966 -0.74568,-1.7319 -0.74568,-2.68203c-0.04209,-1.41919 0,-2.8444 0,-4.2696c0.00256,-0.15334 0.04173,-0.30385 0.11426,-0.43899c0.01739,-0.20696 0.10429,-0.40194 0.24655,-0.55324c1.14257,-1.27487 3.11501,-0.68554 3.8246,0.7577z" fill="#74b140" fill-rule="evenodd" stroke="none" stroke-width="1" stroke-linecap="butt"/><path d="M79.22493,120.50336c7.9001,-1.96148 16.93641,-2.88124 24.75063,0.45892c2.74577,1.33372 -0.91731,8.07735 0.96684,10.92277c1.03875,1.56772 3.66387,-2.50853 4.98879,-0.9638c5.30125,5.33839 12.96008,11.2165 12.99411,19.64266c0.03556,8.65929 -6.12739,17.55079 -12.80772,21.25076c-9.3542,5.17041 -20.66445,2.52687 -30.97005,1.788c-9.63031,-0.69027 -18.98602,-4.05705 -28.5019,-5.96622c-4.71964,-0.73615 -10.05493,0.76092 -14.23162,-1.9734c-2.54237,-1.66413 -3.99487,-6.1113 -3.28719,-9.5919c1.03179,-4.04506 7.43297,-3.86238 8.5854,-7.93963c1.17799,-4.17359 -4.05367,-9.12649 -2.62977,-13.58459c1.0782,-3.02625 5.28735,-2.7904 8.27599,-3.30441c5.12188,-0.87288 10.56853,1.57506 15.54653,0c5.99503,-1.92295 10.23748,-9.22925 16.31997,-10.73916z" fill="url(#color-3)" fill-rule="nonzero" stroke="none" stroke-width="1.28185" stroke-linecap="round"/><path d="M268.5107,256.96952c-0.3548,0.92608 -0.67953,1.79804 -1.07642,2.77224c-0.39689,0.97419 -0.79379,1.94838 -1.20271,2.91055c-0.7096,-1.08243 -1.41318,-2.16487 -2.12879,-3.2473l-2.81433,-4.26359c-0.85993,-1.29892 -1.68379,-2.76021 -3.21724,-3.33149c-0.99223,-0.01203 -1.34102,-1.58757 -0.24655,-1.84615h0.07216c0.08127,-0.02868 0.16644,-0.04491 0.25257,-0.04811c2.38737,-0.40291 4.15535,1.01027 5.72488,2.73014c1.45681,1.53348 3.00512,2.97737 4.63643,4.32373z" fill="#74b140" fill-rule="evenodd" stroke="none" stroke-width="1" stroke-linecap="butt"/><text transform="translate(107.88627,67.36368) scale(0.99362,0.99362)" font-size="40" xml:space="preserve" fill="url(#color-4)" fill-rule="nonzero" stroke="none" stroke-width="1" stroke-linecap="butt" stroke-linejoin="miter" stroke-miterlimit="10" stroke-dasharray="" stroke-dashoffset="0" font-family="Pixel" font-weight="normal" text-anchor="start" style="mix-blend-mode: normal"><tspan x="0" dy="0">Tactigun!: 2:</tspan></text><path d="M-39.83333,301l189,-206l121,98l80,-92l165,201" fill="url(#color-5)" fill-rule="nonzero" stroke="#fb7373" stroke-width="5" stroke-linecap="round"/><path d="M175.61413,235.81713c-32.57905,9.51843 -66.52704,-8.56404 -75.82498,-40.38838c-9.29793,-31.82431 9.57514,-65.33925 42.15419,-74.85767c32.57905,-9.51843 66.52704,8.56405 75.82498,40.38839c9.29793,31.82431 -9.57514,65.33925 -42.15419,74.85767z" fill="url(#color-6)" fill-rule="nonzero" stroke="#000000" stroke-width="5" stroke-linecap="butt"/><path d="M150.58634,150.26448l0.1292,39.64411" fill="none" fill-rule="nonzero" stroke="#000000" stroke-width="5" stroke-linecap="round"/><path d="M180.8097,183.48022l0.45059,-36.74918" fill="none" fill-rule="nonzero" stroke="#000000" stroke-width="5" stroke-linecap="round"/><path d="M-120.61149,494.5v-192.49399h721.33898v192.49399z" fill="url(#color-7)" fill-rule="nonzero" stroke="#000000" stroke-width="3.5" stroke-linecap="butt"/><path d="M384.97616,300.84403c-15.88378,0.24502 -28.95415,-12.13438 -29.1935,-27.6502c-0.23935,-15.5158 12.44296,-28.2925 28.32674,-28.53752c15.88378,-0.24502 28.95414,12.13438 29.19349,27.65021c0.23935,15.51581 -12.44295,28.29249 -28.32673,28.53751z" fill="url(#color-8)" fill-rule="nonzero" stroke="#000000" stroke-width="2.5" stroke-linecap="butt"/><path d="M376.3556,299.24069c0,0 -5.80687,-2.09184 -10.4694,-5.86909c-4.38468,-3.55215 -8.06365,-12.62869 -8.39561,-16.30797c-0.19729,-2.18663 -0.53677,-6.21688 0.34364,-9.81275c1.93628,-7.90841 3.79805,-10.05714 5.52694,-11.81093c0.31833,-0.32291 4.34985,-3.89302 4.34985,-3.89302" fill="#bdebff" fill-rule="nonzero" stroke="#000000" stroke-width="0.5" stroke-linecap="round"/><path d="M371.80693,277.37986v-18.555" fill="none" fill-rule="nonzero" stroke="#000000" stroke-width="2.5" stroke-linecap="round"/><path d="M386.93946,278.20205l0.25418,-17.19939" fill="none" fill-rule="nonzero" stroke="#000000" stroke-width="2.5" stroke-linecap="round"/><path d="M395.68412,289.03863l-22.4524,-0.16945" fill="none" fill-rule="nonzero" stroke="#000000" stroke-width="2.5" stroke-linecap="round"/><path d="M210.78266,272.80652c0.23935,-15.51582 13.30972,-27.89523 29.19349,-27.6502c15.88377,0.24502 28.56609,13.02171 28.32674,28.53752c-0.23935,15.51582 -13.30973,27.89523 -29.1935,27.6502c-15.88377,-0.24502 -28.56608,-13.02171 -28.32673,-28.53751z" data-paper-data="{&quot;index&quot;:null}" fill="url(#color-9)" fill-rule="nonzero" stroke="#000000" stroke-width="2.5" stroke-linecap="butt"/><path d="M250.80963,277.37986v-18.555" data-paper-data="{&quot;index&quot;:null}" fill="none" fill-rule="nonzero" stroke="#000000" stroke-width="2.5" stroke-linecap="round"/><path d="M234.57283,260.53145l0.25418,17.19939" data-paper-data="{&quot;index&quot;:null}" fill="none" fill-rule="nonzero" stroke="#000000" stroke-width="2.5" stroke-linecap="round"/><path d="M139.55011,153.67055c0,0 8.54653,-5.11017 12.57627,-5.46574c3.24048,-0.28592 9.7546,3.49536 9.7546,3.49536" fill="none" fill-rule="nonzero" stroke="#000000" stroke-width="5" stroke-linecap="round"/><path d="M169.64427,149.579c0,0 8.54653,-5.11017 12.57627,-5.46574c3.24048,-0.28592 9.7546,3.49536 9.7546,3.49536" fill="none" fill-rule="nonzero" stroke="#000000" stroke-width="5" stroke-linecap="round"/><path d="M278.74037,268.55242l21.08812,-4.8l2.07911,10.48889l-14.55377,3.55555l1.33657,7.64445l-8.16793,2.31111l-2.82165,-18.84445l5.34628,-1.42222" fill="#000000" fill-rule="nonzero" stroke="#000000" stroke-width="1.5" stroke-linecap="round"/><path d="M291.68403,277.65765l0.60201,3.01004l-3.61205,0.90301" fill="none" fill-rule="nonzero" stroke="#000000" stroke-width="2" stroke-linecap="round"/><path d="M299.51015,265.91846l5.11708,-1.20401l0.90301,4.21406l-4.06356,0.75251" fill="#000000" fill-rule="nonzero" stroke="#000000" stroke-width="2" stroke-linecap="round"/><path d="M229.94361,257.84005l9.25842,5.3828" fill="none" fill-rule="nonzero" stroke="#000000" stroke-width="2.5" stroke-linecap="round"/><path d="M255.43884,254.21373l-9.25842,9.60133" fill="none" fill-rule="nonzero" stroke="#000000" stroke-width="2.5" stroke-linecap="round"/><path d="M340.94358,264.98352l5.34629,1.42222l-2.82165,18.84445l-8.16793,-2.31111l1.33658,-7.64445l-14.55378,-3.55555l2.07911,-10.48889l21.08812,4.8" data-paper-data="{&quot;index&quot;:null}" fill="#000000" fill-rule="nonzero" stroke="#000000" stroke-width="1.5" stroke-linecap="round"/><path d="M335.3167,279.06846l-3.61205,-0.90302l0.602,-3.01004" data-paper-data="{&quot;index&quot;:null}" fill="none" fill-rule="nonzero" stroke="#000000" stroke-width="2" stroke-linecap="round"/><path d="M322.52401,267.17878l-4.06356,-0.75251l0.90301,-4.21407l5.11708,1.20402" data-paper-data="{&quot;index&quot;:null}" fill="#000000" fill-rule="nonzero" stroke="#000000" stroke-width="2" stroke-linecap="round"/><path d="M368.40985,251.38828l6.79416,4.52944" fill="none" fill-rule="nonzero" stroke="#000000" stroke-width="2.5" stroke-linecap="round"/><path d="M382.4113,257.39216c0,0 1.46148,-1.13837 2.78485,-1.06684c1.68971,0.09134 6.52566,1.57011 6.52566,1.57011" fill="none" fill-rule="nonzero" stroke="#000000" stroke-width="2.5" stroke-linecap="round"/><path d="M481.28825,106.59374c7.9001,-1.96148 16.93641,-2.88124 24.75063,0.45892c2.74577,1.33372 -0.91731,8.07735 0.96684,10.92278c1.03875,1.56772 3.66388,-2.50854 4.98879,-0.9638c5.30125,5.3384 12.96007,11.21649 12.99411,19.64265c0.03556,8.65929 -6.12739,17.5508 -12.80772,21.25076c-9.3542,5.17041 -20.66445,2.52687 -30.97005,1.788c-9.63031,-0.69027 -18.98602,-4.05705 -28.50191,-5.96623c-4.71964,-0.73615 -10.05493,0.76092 -14.23163,-1.9734c-2.54237,-1.66413 -3.99487,-6.1113 -3.28719,-9.5919c1.03179,-4.04506 7.43297,-3.86238 8.5854,-7.93963c1.17799,-4.17359 -4.05367,-9.12649 -2.62977,-13.58459c1.07821,-3.02625 5.28735,-2.7904 8.27599,-3.30441c5.12188,-0.87288 10.56853,1.57506 15.54654,0c5.99503,-1.92295 10.23748,-9.22925 16.31997,-10.73916z" fill="url(#color-10)" fill-rule="nonzero" stroke="none" stroke-width="1.28185" stroke-linecap="round"/><path d="M481.28825,-5.84234c7.9001,-1.96148 16.93641,-2.88124 24.75063,0.45892c2.74577,1.33372 -0.91731,8.07735 0.96684,10.92278c1.03875,1.56772 3.66388,-2.50854 4.98879,-0.9638c5.30125,5.3384 12.96007,11.2165 12.99411,19.64265c0.03556,8.6593 -6.12739,17.5508 -12.80772,21.25076c-9.3542,5.17041 -20.66445,2.52687 -30.97005,1.788c-9.63031,-0.69026 -18.98602,-4.05705 -28.50191,-5.96622c-4.71964,-0.73615 -10.05493,0.76092 -14.23163,-1.9734c-2.54237,-1.66412 -3.99487,-6.1113 -3.28719,-9.5919c1.03179,-4.04507 7.43297,-3.86238 8.5854,-7.93963c1.17799,-4.17358 -4.05367,-9.12649 -2.62977,-13.58459c1.07821,-3.02625 5.28735,-2.7904 8.27599,-3.30441c5.12188,-0.87288 10.56853,1.57507 15.54654,0c5.99503,-1.92295 10.23748,-9.22925 16.31997,-10.73916z" fill="url(#color-11)" fill-rule="nonzero" stroke="none" stroke-width="1.28185" stroke-linecap="round"/><path d="M56.04168,175.45799l12.95254,-3.7769l17.88623,42.88999l-19.96302,5.48165l-6.85513,-17.64096l-34.86091,10.94115l-8.89412,-24.51437l50.06873,-16.58798" data-paper-data="{&quot;index&quot;:null}" fill="#000000" fill-rule="nonzero" stroke="#000000" stroke-width="1.5" stroke-linecap="round"/><path d="M62.06827,211.9537l-8.67796,2.6725l-2.54122,-7.04174" data-paper-data="{&quot;index&quot;:null}" fill="none" fill-rule="nonzero" stroke="#000000" stroke-width="2" stroke-linecap="round"/><path d="M20.36808,203.27889l-9.43041,3.55628l-3.43206,-9.93443l12.19887,-3.94312" data-paper-data="{&quot;index&quot;:null}" fill="#000000" fill-rule="nonzero" stroke="#000000" stroke-width="2" stroke-linecap="round"/><path d="M138.36129,232.47924c0,0 -11.74129,-4.29322 -21.16875,-12.04553c-8.86566,-7.29033 -16.30441,-25.91875 -16.97563,-33.47001c-0.39892,-4.48777 -1.08532,-12.75936 0.69482,-20.1394c3.91509,-16.23099 7.67951,-20.64097 11.17527,-24.24042c0.64365,-0.66274 8.79525,-7.98993 8.79525,-7.98993" fill="#bdebff" fill-rule="nonzero" stroke="#000000" stroke-width="0.5" stroke-linecap="round"/><path d="M183.77943,201.79479c0,0 -29.64275,7.92628 -37.76875,10.09912c-3.87213,1.03538 -9.23263,-1.31922 -9.23263,-1.31922" fill="none" fill-rule="nonzero" stroke="#000000" stroke-width="5" stroke-linecap="round"/><path d="M230.98388,299.24069c0,0 -5.80686,-2.09184 -10.46939,-5.86908c-4.38467,-3.55215 -8.06365,-12.62869 -8.39562,-16.30797c-0.19729,-2.18663 -0.53677,-6.21688 0.34364,-9.81275c1.93628,-7.90841 3.79805,-10.05714 5.52694,-11.81093c0.31833,-0.32291 4.34986,-3.89302 4.34986,-3.89302" fill="#bdebff" fill-rule="nonzero" stroke="#000000" stroke-width="0.5" stroke-linecap="round"/><path d="M252.62686,285.32674l-23.25372,-0.21531" fill="none" fill-rule="nonzero" stroke="#000000" stroke-width="2.5" stroke-linecap="round"/><path d="M391.88191,192.83738c-33.66273,-4.33767 -57.51684,-34.51092 -53.27964,-67.39381c4.2372,-32.88292 34.96115,-56.02338 68.62389,-51.6857c33.66273,4.33767 57.51684,34.51092 53.27964,67.39381c-4.2372,32.88292 -34.96116,56.02337 -68.62389,51.68569z" data-paper-data="{&quot;index&quot;:null}" fill="url(#color-12)" fill-rule="nonzero" stroke="#000000" stroke-width="5" stroke-linecap="butt"/><path d="M409.34041,143.61609l-6.03578,-39.18216" data-paper-data="{&quot;index&quot;:null}" fill="none" fill-rule="nonzero" stroke="#000000" stroke-width="5" stroke-linecap="round"/><path d="M372.45431,105.71228l6.15845,36.23229" data-paper-data="{&quot;index&quot;:null}" fill="none" fill-rule="nonzero" stroke="#000000" stroke-width="5" stroke-linecap="round"/><path d="M299.88465,128.71967l13.01988,-3.53778l17.09349,43.21204l-20.06057,5.11317l-6.52916,-17.76419l-35.05645,10.29743l-8.44125,-24.67397l50.36566,-15.66329" data-paper-data="{&quot;index&quot;:null}" fill="#000000" fill-rule="nonzero" stroke="#000000" stroke-width="1.5" stroke-linecap="round"/><path d="M305.23825,165.32016l-8.7257,2.51227l-2.41113,-7.08733" data-paper-data="{&quot;index&quot;:null}" fill="none" fill-rule="nonzero" stroke="#000000" stroke-width="2" stroke-linecap="round"/><path d="M263.70485,155.87903l-9.49429,3.38203l-3.24855,-9.99593l12.26939,-3.71783" data-paper-data="{&quot;index&quot;:null}" fill="#000000" fill-rule="nonzero" stroke="#000000" stroke-width="2" stroke-linecap="round"/><path d="M370.16285,183.58448c0,0 -10.70132,-5.97322 -18.63852,-14.95678c-7.46421,-8.44821 -11.8228,-27.70614 -11.32262,-35.15374c0.29726,-4.42616 0.8924,-12.57672 3.73719,-19.48253c6.25657,-15.18799 10.56827,-18.90117 14.4968,-21.86709c0.72333,-0.54609 9.72179,-8.17514 9.72179,-8.17514" data-paper-data="{&quot;index&quot;:null}" fill="#bdebff" fill-rule="nonzero" stroke="#000000" stroke-width="0.5" stroke-linecap="round"/><path d="M424.48826,151.57208c0,0 -3.648,4.57943 -7.55695,5.46574c-8.20326,1.86001 -38.12785,8.6451 -38.12785,8.6451" data-paper-data="{&quot;index&quot;:null}" fill="none" fill-rule="nonzero" stroke="#000000" stroke-width="5" stroke-linecap="round"/><path d="M362.55865,100.33893l18.06552,5.25542" fill="none" fill-rule="nonzero" stroke="#000000" stroke-width="5" stroke-linecap="round"/><path d="M408.21515,98.36815l-13.13856,7.55467" fill="none" fill-rule="nonzero" stroke="#000000" stroke-width="5" stroke-linecap="round"/><path d="M-57.6124,-24.14899c7.9001,-1.96148 16.93641,-2.88125 24.75063,0.45892c2.74577,1.33372 -0.91731,8.07735 0.96684,10.92278c1.03875,1.56772 3.66388,-2.50854 4.98879,-0.9638c5.30125,5.3384 12.96007,11.2165 12.99411,19.64266c0.03556,8.6593 -6.12739,17.5508 -12.80772,21.25076c-9.3542,5.17042 -20.66445,2.52687 -30.97006,1.788c-9.6303,-0.69026 -18.98602,-4.05705 -28.5019,-5.96622c-4.71964,-0.73615 -10.05493,0.76092 -14.23162,-1.9734c-2.54237,-1.66412 -3.99487,-6.1113 -3.28719,-9.5919c1.03179,-4.04507 7.43297,-3.86239 8.5854,-7.93963c1.17799,-4.17359 -4.05367,-9.12649 -2.62977,-13.58459c1.07821,-3.02625 5.28735,-2.7904 8.27599,-3.30441c5.12188,-0.87288 10.56853,1.57506 15.54653,0c5.99503,-1.92295 10.23748,-9.22925 16.31997,-10.73916z" fill="url(#color-13)" fill-rule="nonzero" stroke="none" stroke-width="1.28185" stroke-linecap="round"/><path d="M-57.6124,76.45161c7.9001,-1.96148 16.93641,-2.88125 24.75063,0.45892c2.74577,1.33372 -0.91731,8.07735 0.96684,10.92278c1.03875,1.56772 3.66388,-2.50854 4.98879,-0.9638c5.30125,5.3384 12.96007,11.2165 12.99411,19.64266c0.03556,8.6593 -6.12739,17.5508 -12.80772,21.25076c-9.3542,5.17042 -20.66445,2.52687 -30.97006,1.788c-9.6303,-0.69026 -18.98602,-4.05705 -28.5019,-5.96622c-4.71964,-0.73615 -10.05493,0.76092 -14.23162,-1.9734c-2.54237,-1.66412 -3.99487,-6.1113 -3.28719,-9.5919c1.03179,-4.04507 7.43297,-3.86239 8.5854,-7.93963c1.17799,-4.17359 -4.05367,-9.12649 -2.62977,-13.58459c1.07821,-3.02625 5.28735,-2.7904 8.27599,-3.30441c5.12188,-0.87288 10.56853,1.57506 15.54653,0c5.99503,-1.92295 10.23748,-9.22925 16.31997,-10.73916z" fill="url(#color-14)" fill-rule="nonzero" stroke="none" stroke-width="1.28185" stroke-linecap="round"/><path d="M555.00022,200.41495c7.9001,-1.96148 16.93641,-2.88125 24.75063,0.45892c2.74577,1.33372 -0.91731,8.07735 0.96684,10.92278c1.03875,1.56772 3.66388,-2.50854 4.98879,-0.9638c5.30125,5.3384 12.96007,11.2165 12.99411,19.64266c0.03556,8.6593 -6.12739,17.5508 -12.80772,21.25076c-9.3542,5.17042 -20.66445,2.52687 -30.97006,1.788c-9.6303,-0.69026 -18.98602,-4.05705 -28.5019,-5.96622c-4.71964,-0.73615 -10.05493,0.76092 -14.23162,-1.9734c-2.54237,-1.66412 -3.99487,-6.1113 -3.28719,-9.5919c1.03179,-4.04507 7.43297,-3.86239 8.5854,-7.93963c1.17799,-4.17359 -4.05367,-9.12649 -2.62977,-13.58459c1.07821,-3.02625 5.28735,-2.7904 8.27599,-3.30441c5.12188,-0.87288 10.56853,1.57506 15.54653,0c5.99503,-1.92295 10.23748,-9.22925 16.31997,-10.73916z" fill="url(#color-15)" fill-rule="nonzero" stroke="none" stroke-width="1.28185" stroke-linecap="round"/><path d="M264.11849,-65.35082c7.9001,-1.96148 16.93641,-2.88125 24.75063,0.45892c2.74577,1.33372 -0.91731,8.07735 0.96684,10.92278c1.03875,1.56772 3.66388,-2.50854 4.98879,-0.9638c5.30125,5.3384 12.96007,11.2165 12.99411,19.64266c0.03556,8.6593 -6.12739,17.5508 -12.80772,21.25076c-9.3542,5.17042 -20.66445,2.52687 -30.97006,1.788c-9.6303,-0.69026 -18.98602,-4.05705 -28.5019,-5.96622c-4.71964,-0.73615 -10.05493,0.76092 -14.23162,-1.9734c-2.54237,-1.66412 -3.99487,-6.1113 -3.28719,-9.5919c1.03179,-4.04507 7.43297,-3.86239 8.5854,-7.93963c1.17799,-4.17359 -4.05367,-9.12649 -2.62977,-13.58459c1.07821,-3.02625 5.28735,-2.7904 8.27599,-3.30441c5.12188,-0.87288 10.56853,1.57506 15.54653,0c5.99503,-1.92295 10.23748,-9.22925 16.31997,-10.73916z" fill="url(#color-16)" fill-rule="nonzero" stroke="none" stroke-width="1.28185" stroke-linecap="round"/><path d="M-57.6124,195.91044c7.9001,-1.96148 16.93641,-2.88125 24.75063,0.45892c2.74577,1.33372 -0.91731,8.07735 0.96684,10.92278c1.03875,1.56772 3.66388,-2.50854 4.98879,-0.9638c5.30125,5.3384 12.96007,11.2165 12.99411,19.64266c0.03556,8.6593 -6.12739,17.5508 -12.80772,21.25076c-9.3542,5.17042 -20.66445,2.52687 -30.97006,1.788c-9.6303,-0.69026 -18.98602,-4.05705 -28.5019,-5.96622c-4.71964,-0.73615 -10.05493,0.76092 -14.23162,-1.9734c-2.54237,-1.66412 -3.99487,-6.1113 -3.28719,-9.5919c1.03179,-4.04507 7.43297,-3.86239 8.5854,-7.93963c1.17799,-4.17359 -4.05367,-9.12649 -2.62977,-13.58459c1.07821,-3.02625 5.28735,-2.7904 8.27599,-3.30441c5.12188,-0.87288 10.56853,1.57506 15.54653,0c5.99503,-1.92295 10.23748,-9.22925 16.31997,-10.73916z" fill="url(#color-17)" fill-rule="nonzero" stroke="none" stroke-width="1.28185" stroke-linecap="round"/></g></g></svg>