<svg version="1.1" xmlns="http://www.w3.org/2000/svg" xmlns:xlink="http://www.w3.org/1999/xlink" width="962.69616" height="670.37362" viewBox="0,0,962.69616,670.37362"><g transform="translate(183.02738,93.1685)"><g data-paper-data="{&quot;isPaintingLayer&quot;:true}" fill-rule="nonzero" stroke-linejoin="miter" stroke-miterlimit="10" stroke-dasharray="" stroke-dashoffset="0" style="mix-blend-mode: normal"><path d="M-182.27738,576.45512v-668.87362h961.19616v668.87362z" fill="#0063d4" stroke="#000000" stroke-width="1.5" stroke-linecap="butt"/><path d="M-12.27941,361.93553v-374.01505h272.41503c0,0 -9.5819,-3.70629 -15.23054,1.16587c-1.99015,1.71658 -2.36548,-0.37285 -4.35034,2.23142c-7.53049,9.88051 -15.90521,29.28145 -15.83936,40.41793c0.04679,7.91485 7.32571,15.01494 14.00869,22.80201c4.28949,4.99815 7.35342,10.67133 11.33661,15.73075c5.68235,7.21768 12.52668,13.66804 12.16194,22.46093c-0.39154,9.43877 -10.2938,18.61614 -10.07493,27.68623c0.46001,19.06341 15.73461,30.18779 15.73461,44.97155c0,14.73515 -26.43032,33.403 -26.84405,52.90221c-0.21103,9.94578 26.75534,32.89457 27.40943,43.12328c0.59266,9.26808 -24.64487,26.47167 -24.7882,34.95911c-0.04766,2.82229 28.55475,47.46375 28.64773,50.10433c1.3447,38.18991 -12.17158,15.45943 -12.17158,15.45943z" fill="#0077ff" stroke="#000000" stroke-width="1.5" stroke-linecap="butt"/><path d="M-157.57009,529.30666v-249.98435c0,0 116.75505,-57.77109 204.14041,-36.39349c66.3284,16.22631 112.93073,89.4562 166.73046,89.4562c57.45715,0 138.82662,-53.06271 214.71472,-53.06271c20.35789,0 73.13825,22.40425 91.5916,22.40425c67.11743,0 84.08408,-22.40425 84.08408,-22.40425v249.98436z" fill="#25402f" stroke="#000000" stroke-width="1" stroke-linecap="butt"/><path d="M-158.07009,529.30666v-249.98435c0,0 116.75505,-57.77109 204.14041,-36.39349c66.3284,16.22631 112.93073,89.4562 166.73046,89.4562c57.45715,0 138.82662,-53.06271 214.71472,-53.06271c20.35789,0 73.13825,22.40425 91.5916,22.40425c67.11743,0 84.08408,-22.40425 84.08408,-22.40425v249.98436z" fill="#25402f" stroke="#000000" stroke-width="1" stroke-linecap="butt"/><path d="M-157.07009,529.30666v-249.98435c0,0 116.75505,-57.77109 204.14041,-36.39349c66.3284,16.22631 112.93073,89.4562 166.73046,89.4562c57.45715,0 138.82662,-53.06271 214.71472,-53.06271c20.35789,0 73.13825,22.40425 91.5916,22.40425c67.11743,0 84.08408,-22.40425 84.08408,-22.40425v249.98436z" fill="#25402f" stroke="#000000" stroke-width="1" stroke-linecap="butt"/><path d="M258.11827,376.79296l7.41446,-9.47967l4.30894,3.37021l-7.41446,9.47967z" fill="none" stroke="#000000" stroke-width="2" stroke-linecap="butt"/><path d="M267.83306,368.27912l4.85311,-6.20487l0.51707,0.40443l-4.85311,6.20487z" fill="none" stroke="#000000" stroke-width="2" stroke-linecap="butt"/><path d="M271.69072,359.03167l7.41447,-9.47967l4.30895,3.37022l-7.41447,9.47967z" fill="none" stroke="#000000" stroke-width="2" stroke-linecap="butt"/><path d="M281.4056,350.51782l4.85311,-6.20487l0.51707,0.40442l-4.85311,6.20487z" fill="none" stroke="#000000" stroke-width="2" stroke-linecap="butt"/><path d="M285.64547,341.84716l7.41447,-9.47967l4.30895,3.37022l-7.41447,9.47967z" fill="none" stroke="#000000" stroke-width="2" stroke-linecap="butt"/><path d="M295.3603,333.33324l4.85311,-6.20487l0.51707,0.40443l-4.85311,6.20487z" fill="none" stroke="#000000" stroke-width="2" stroke-linecap="butt"/><path d="M298.89988,325.30922l7.41446,-9.47967l4.30895,3.37022l-7.41446,9.47967z" fill="none" stroke="#000000" stroke-width="2" stroke-linecap="butt"/><path d="M308.61476,316.79535l4.85311,-6.20487l0.51707,0.40442l-4.85311,6.20487z" fill="none" stroke="#000000" stroke-width="2" stroke-linecap="butt"/><path d="M312.47238,307.54787l7.41447,-9.47967l4.30895,3.37022l-7.41447,9.47967z" fill="none" stroke="#000000" stroke-width="2" stroke-linecap="butt"/><path d="M322.18721,299.03409l4.85311,-6.20487l0.51707,0.40443l-4.85311,6.20487z" fill="none" stroke="#000000" stroke-width="2" stroke-linecap="butt"/><path d="M326.42717,290.36343l7.41447,-9.47967l4.30895,3.37022l-7.41447,9.47967z" fill="none" stroke="#000000" stroke-width="2" stroke-linecap="butt"/><path d="M336.14204,281.84961l4.85311,-6.20487l0.51707,0.40443l-4.85311,6.20487z" fill="none" stroke="#000000" stroke-width="2" stroke-linecap="butt"/><path d="M339.58227,273.65049l7.41446,-9.47967l4.30895,3.37022l-7.41446,9.47967z" fill="none" stroke="#000000" stroke-width="2" stroke-linecap="butt"/><path d="M349.2971,265.13671l4.85311,-6.20487l0.51707,0.40442l-4.85311,6.20487z" fill="none" stroke="#000000" stroke-width="2" stroke-linecap="butt"/><path d="M353.15472,255.88933l7.41447,-9.47967l4.30895,3.37022l-7.41447,9.47967z" fill="none" stroke="#000000" stroke-width="2" stroke-linecap="butt"/><path d="M362.86959,247.3755l4.8531,-6.20487l0.51707,0.40443l-4.8531,6.20487z" fill="none" stroke="#000000" stroke-width="2" stroke-linecap="butt"/><path d="M367.10951,238.70484l7.41447,-9.47967l4.30895,3.37022l-7.41447,9.47967z" fill="none" stroke="#000000" stroke-width="2" stroke-linecap="butt"/><path d="M376.8243,230.19101l4.8531,-6.20487l0.51707,0.40443l-4.8531,6.20487z" fill="none" stroke="#000000" stroke-width="2" stroke-linecap="butt"/><path d="M380.36391,222.16697l7.41447,-9.47967l4.30895,3.37022l-7.41447,9.47967z" fill="none" stroke="#000000" stroke-width="2" stroke-linecap="butt"/><path d="M390.07871,213.65311l4.85311,-6.20487l0.51707,0.40442l-4.85311,6.20487z" fill="none" stroke="#000000" stroke-width="2" stroke-linecap="butt"/><path d="M393.93641,204.40567l7.41447,-9.47967l4.30895,3.37022l-7.41447,9.47967z" fill="none" stroke="#000000" stroke-width="2" stroke-linecap="butt"/><path d="M403.6512,195.89184l4.85311,-6.20487l0.51707,0.40443l-4.85311,6.20487z" fill="none" stroke="#000000" stroke-width="2" stroke-linecap="butt"/><path d="M407.89112,187.22118l7.41447,-9.47967l4.30895,3.37022l-7.41447,9.47967z" fill="none" stroke="#000000" stroke-width="2" stroke-linecap="butt"/><path d="M200.68983,406.38548l-5.9688,-10.45045l4.7502,-2.7131l5.9688,10.45045z" fill="none" stroke="#000000" stroke-width="2" stroke-linecap="butt"/><path d="M200.68983,406.38548l-5.9688,-10.45045l4.7502,-2.7131l5.9688,10.45045z" fill="none" stroke="#000000" stroke-width="2" stroke-linecap="butt"/><path d="M196.48555,394.17126l-3.90685,-6.84029l0.57003,-0.32557l3.90684,6.84029z" fill="none" stroke="#000000" stroke-width="2" stroke-linecap="butt"/><path d="M196.48555,394.17126l-3.90685,-6.84029l0.57003,-0.32557l3.90684,6.84029z" fill="none" stroke="#000000" stroke-width="2" stroke-linecap="butt"/><path d="M196.48555,394.17126l-3.90685,-6.84029l0.57003,-0.32557l3.90684,6.84029z" fill="none" stroke="#000000" stroke-width="2" stroke-linecap="butt"/><path d="M189.3857,387.10098l-5.9688,-10.45045l4.7502,-2.71309l5.9688,10.45045z" fill="none" stroke="#000000" stroke-width="2" stroke-linecap="butt"/><path d="M189.3857,387.10098l-5.9688,-10.45045l4.7502,-2.71309l5.9688,10.45045z" fill="none" stroke="#000000" stroke-width="2" stroke-linecap="butt"/><path d="M189.3857,387.10098l-5.9688,-10.45045l4.7502,-2.71309l5.9688,10.45045z" fill="none" stroke="#000000" stroke-width="2" stroke-linecap="butt"/><path d="M189.3857,387.10098l-5.9688,-10.45045l4.7502,-2.71309l5.9688,10.45045z" fill="none" stroke="#000000" stroke-width="2" stroke-linecap="butt"/><path d="M185.18141,374.88674l-3.90685,-6.84029l0.57002,-0.32557l3.90685,6.84029z" fill="none" stroke="#000000" stroke-width="2" stroke-linecap="butt"/><path d="M178.76012,367.68091l-5.96879,-10.45045l4.7502,-2.7131l5.9688,10.45045z" fill="none" stroke="#000000" stroke-width="2" stroke-linecap="butt"/><path d="M178.76012,367.68091l-5.96879,-10.45045l4.7502,-2.7131l5.9688,10.45045z" fill="none" stroke="#000000" stroke-width="2" stroke-linecap="butt"/><path d="M178.76012,367.68091l-5.96879,-10.45045l4.7502,-2.7131l5.9688,10.45045z" fill="none" stroke="#000000" stroke-width="2" stroke-linecap="butt"/><path d="M178.76012,367.68091l-5.96879,-10.45045l4.7502,-2.7131l5.9688,10.45045z" fill="none" stroke="#000000" stroke-width="2" stroke-linecap="butt"/><path d="M178.76012,367.68091l-5.96879,-10.45045l4.7502,-2.7131l5.9688,10.45045z" fill="none" stroke="#000000" stroke-width="2" stroke-linecap="butt"/><path d="M174.55587,355.46668l-3.90685,-6.84029l0.57002,-0.32557l3.90685,6.84029z" fill="none" stroke="#000000" stroke-width="2" stroke-linecap="butt"/><path d="M168.46806,349.1538l-5.9688,-10.45045l4.75021,-2.71309l5.9688,10.45045z" fill="none" stroke="#000000" stroke-width="2" stroke-linecap="butt"/><path d="M168.46806,349.1538l-5.9688,-10.45045l4.75021,-2.71309l5.9688,10.45045z" fill="none" stroke="#000000" stroke-width="2" stroke-linecap="butt"/><path d="M168.46806,349.1538l-5.9688,-10.45045l4.75021,-2.71309l5.9688,10.45045z" fill="none" stroke="#000000" stroke-width="2" stroke-linecap="butt"/><path d="M168.46806,349.1538l-5.9688,-10.45045l4.75021,-2.71309l5.9688,10.45045z" fill="none" stroke="#000000" stroke-width="2" stroke-linecap="butt"/><path d="M168.46806,349.1538l-5.9688,-10.45045l4.75021,-2.71309l5.9688,10.45045z" fill="none" stroke="#000000" stroke-width="2" stroke-linecap="butt"/><path d="M168.46806,349.1538l-5.9688,-10.45045l4.75021,-2.71309l5.9688,10.45045z" fill="none" stroke="#000000" stroke-width="2" stroke-linecap="butt"/><path d="M164.26371,336.93956l-3.90685,-6.84029l0.57002,-0.32557l3.90685,6.84029z" fill="none" stroke="#000000" stroke-width="2" stroke-linecap="butt"/><path d="M164.26371,336.93956l-3.90685,-6.84029l0.57002,-0.32557l3.90685,6.84029z" fill="none" stroke="#000000" stroke-width="2" stroke-linecap="butt"/><path d="M164.26371,336.93956l-3.90685,-6.84029l0.57002,-0.32557l3.90685,6.84029z" fill="none" stroke="#000000" stroke-width="2" stroke-linecap="butt"/><path d="M164.26371,336.93956l-3.90685,-6.84029l0.57002,-0.32557l3.90685,6.84029z" fill="none" stroke="#000000" stroke-width="2" stroke-linecap="butt"/><path d="M164.26371,336.93956l-3.90685,-6.84029l0.57002,-0.32557l3.90685,6.84029z" fill="none" stroke="#000000" stroke-width="2" stroke-linecap="butt"/><path d="M164.26371,336.93956l-3.90685,-6.84029l0.57002,-0.32557l3.90685,6.84029z" fill="none" stroke="#000000" stroke-width="2" stroke-linecap="butt"/><path d="M164.26371,336.93956l-3.90685,-6.84029l0.57002,-0.32557l3.90685,6.84029z" fill="none" stroke="#000000" stroke-width="2" stroke-linecap="butt"/><path d="M164.26371,336.93956l-3.90685,-6.84029l0.57002,-0.32557l3.90685,6.84029z" fill="none" stroke="#000000" stroke-width="2" stroke-linecap="butt"/><path d="M157.16387,329.86915l-5.96879,-10.45045l4.7502,-2.7131l5.9688,10.45045z" fill="none" stroke="#000000" stroke-width="2" stroke-linecap="butt"/><path d="M157.16387,329.86915l-5.96879,-10.45045l4.7502,-2.7131l5.9688,10.45045z" fill="none" stroke="#000000" stroke-width="2" stroke-linecap="butt"/><path d="M157.16387,329.86915l-5.96879,-10.45045l4.7502,-2.7131l5.9688,10.45045z" fill="none" stroke="#000000" stroke-width="2" stroke-linecap="butt"/><path d="M156.66387,329.86915l-5.96879,-10.45045l4.7502,-2.7131l5.9688,10.45045z" fill="none" stroke="#000000" stroke-width="2" stroke-linecap="butt"/><path d="M156.66387,329.86915l-5.96879,-10.45045l4.7502,-2.7131l5.9688,10.45045z" fill="none" stroke="#000000" stroke-width="2" stroke-linecap="butt"/><path d="M156.66387,329.86915l-5.96879,-10.45045l4.7502,-2.7131l5.9688,10.45045z" fill="none" stroke="#000000" stroke-width="2" stroke-linecap="butt"/><path d="M156.66387,329.86915l-5.96879,-10.45045l4.7502,-2.7131l5.9688,10.45045z" fill="none" stroke="#000000" stroke-width="2" stroke-linecap="butt"/><path d="M156.66387,329.86915l-5.96879,-10.45045l4.7502,-2.7131l5.9688,10.45045z" fill="none" stroke="#000000" stroke-width="2" stroke-linecap="butt"/><path d="M156.66387,329.86915l-5.96879,-10.45045l4.7502,-2.7131l5.9688,10.45045z" fill="none" stroke="#000000" stroke-width="2" stroke-linecap="butt"/><path d="M156.66387,329.86915l-5.96879,-10.45045l4.7502,-2.7131l5.9688,10.45045z" fill="none" stroke="#000000" stroke-width="2" stroke-linecap="butt"/><path d="M156.66387,329.86915l-5.96879,-10.45045l4.7502,-2.7131l5.9688,10.45045z" fill="none" stroke="#000000" stroke-width="2" stroke-linecap="butt"/><path d="M152.95964,317.65486l-3.90685,-6.84029l0.57002,-0.32557l3.90685,6.84029z" fill="none" stroke="#000000" stroke-width="2" stroke-linecap="butt"/><path d="M152.95964,317.65486l-3.90685,-6.84029l0.57002,-0.32557l3.90685,6.84029z" fill="none" stroke="#000000" stroke-width="2" stroke-linecap="butt"/><path d="M152.45964,317.65486l-3.90685,-6.84029l0.57002,-0.32557l3.90685,6.84029z" fill="none" stroke="#000000" stroke-width="2" stroke-linecap="butt"/><path d="M152.45964,317.65486l-3.90685,-6.84029l0.57002,-0.32557l3.90685,6.84029z" fill="none" stroke="#000000" stroke-width="2" stroke-linecap="butt"/><path d="M152.45964,317.65486l-3.90685,-6.84029l0.57002,-0.32557l3.90685,6.84029z" fill="none" stroke="#000000" stroke-width="2" stroke-linecap="butt"/><path d="M152.45964,317.65486l-3.90685,-6.84029l0.57002,-0.32557l3.90685,6.84029z" fill="none" stroke="#000000" stroke-width="2" stroke-linecap="butt"/><path d="M152.45964,317.65486l-3.90685,-6.84029l0.57002,-0.32557l3.90685,6.84029z" fill="none" stroke="#000000" stroke-width="2" stroke-linecap="butt"/><path d="M152.45964,317.65486l-3.90685,-6.84029l0.57002,-0.32557l3.90685,6.84029z" fill="none" stroke="#000000" stroke-width="2" stroke-linecap="butt"/><path d="M152.45964,317.65486l-3.90685,-6.84029l0.57002,-0.32557l3.90685,6.84029z" fill="none" stroke="#000000" stroke-width="2" stroke-linecap="butt"/><path d="M152.45964,317.65486l-3.90685,-6.84029l0.57002,-0.32557l3.90685,6.84029z" fill="none" stroke="#000000" stroke-width="2" stroke-linecap="butt"/><path d="M146.53824,310.44903l-5.9688,-10.45045l4.7502,-2.71309l5.9688,10.45045z" fill="none" stroke="#000000" stroke-width="2" stroke-linecap="butt"/><path d="M146.53824,310.44903l-5.9688,-10.45045l4.7502,-2.71309l5.9688,10.45045z" fill="none" stroke="#000000" stroke-width="2" stroke-linecap="butt"/><path d="M146.53824,310.44903l-5.9688,-10.45045l4.7502,-2.71309l5.9688,10.45045z" fill="none" stroke="#000000" stroke-width="2" stroke-linecap="butt"/><path d="M146.53824,310.44903l-5.9688,-10.45045l4.7502,-2.71309l5.9688,10.45045z" fill="none" stroke="#000000" stroke-width="2" stroke-linecap="butt"/><path d="M146.03824,310.44903l-5.9688,-10.45045l4.7502,-2.71309l5.9688,10.45045z" fill="none" stroke="#000000" stroke-width="2" stroke-linecap="butt"/><path d="M146.03824,310.44903l-5.9688,-10.45045l4.7502,-2.71309l5.9688,10.45045z" fill="none" stroke="#000000" stroke-width="2" stroke-linecap="butt"/><path d="M146.03824,310.44903l-5.9688,-10.45045l4.7502,-2.71309l5.9688,10.45045z" fill="none" stroke="#000000" stroke-width="2" stroke-linecap="butt"/><path d="M146.03824,310.44903l-5.9688,-10.45045l4.7502,-2.71309l5.9688,10.45045z" fill="none" stroke="#000000" stroke-width="2" stroke-linecap="butt"/><path d="M146.03824,310.44903l-5.9688,-10.45045l4.7502,-2.71309l5.9688,10.45045z" fill="none" stroke="#000000" stroke-width="2" stroke-linecap="butt"/><path d="M146.03824,310.44903l-5.9688,-10.45045l4.7502,-2.71309l5.9688,10.45045z" fill="none" stroke="#000000" stroke-width="2" stroke-linecap="butt"/><path d="M146.03824,310.44903l-5.9688,-10.45045l4.7502,-2.71309l5.9688,10.45045z" fill="none" stroke="#000000" stroke-width="2" stroke-linecap="butt"/><path d="M146.03824,310.44903l-5.9688,-10.45045l4.7502,-2.71309l5.9688,10.45045z" fill="none" stroke="#000000" stroke-width="2" stroke-linecap="butt"/><path d="M142.334,298.23483l-3.90685,-6.84029l0.57002,-0.32557l3.90685,6.84029z" fill="none" stroke="#000000" stroke-width="2" stroke-linecap="butt"/><path d="M142.334,298.23483l-3.90685,-6.84029l0.57002,-0.32557l3.90685,6.84029z" fill="none" stroke="#000000" stroke-width="2" stroke-linecap="butt"/><path d="M142.334,298.23483l-3.90685,-6.84029l0.57002,-0.32557l3.90685,6.84029z" fill="none" stroke="#000000" stroke-width="2" stroke-linecap="butt"/><path d="M142.334,298.23483l-3.90685,-6.84029l0.57002,-0.32557l3.90685,6.84029z" fill="none" stroke="#000000" stroke-width="2" stroke-linecap="butt"/><path d="M142.334,298.23483l-3.90685,-6.84029l0.57002,-0.32557l3.90685,6.84029z" fill="none" stroke="#000000" stroke-width="2" stroke-linecap="butt"/><path d="M141.834,298.23483l-3.90685,-6.84029l0.57002,-0.32557l3.90685,6.84029z" fill="none" stroke="#000000" stroke-width="2" stroke-linecap="butt"/><path d="M141.834,298.23483l-3.90685,-6.84029l0.57002,-0.32557l3.90685,6.84029z" fill="none" stroke="#000000" stroke-width="2" stroke-linecap="butt"/><path d="M141.834,298.23483l-3.90685,-6.84029l0.57002,-0.32557l3.90685,6.84029z" fill="none" stroke="#000000" stroke-width="2" stroke-linecap="butt"/><path d="M141.834,298.23483l-3.90685,-6.84029l0.57002,-0.32557l3.90685,6.84029z" fill="none" stroke="#000000" stroke-width="2" stroke-linecap="butt"/><path d="M141.834,298.23483l-3.90685,-6.84029l0.57002,-0.32557l3.90685,6.84029z" fill="none" stroke="#000000" stroke-width="2" stroke-linecap="butt"/><path d="M141.834,298.23483l-3.90685,-6.84029l0.57002,-0.32557l3.90685,6.84029z" fill="none" stroke="#000000" stroke-width="2" stroke-linecap="butt"/><path d="M141.834,298.23483l-3.90685,-6.84029l0.57002,-0.32557l3.90685,6.84029z" fill="none" stroke="#000000" stroke-width="2" stroke-linecap="butt"/><path d="M141.834,298.23483l-3.90685,-6.84029l0.57002,-0.32557l3.90685,6.84029z" fill="none" stroke="#000000" stroke-width="2" stroke-linecap="butt"/><path d="M136.04666,291.94768l-5.96879,-10.45045l4.7502,-2.7131l5.9688,10.45045z" fill="none" stroke="#000000" stroke-width="2" stroke-linecap="butt"/><path d="M136.04666,291.94768l-5.96879,-10.45045l4.7502,-2.7131l5.9688,10.45045z" fill="none" stroke="#000000" stroke-width="2" stroke-linecap="butt"/><path d="M136.04666,291.94768l-5.96879,-10.45045l4.7502,-2.7131l5.9688,10.45045z" fill="none" stroke="#000000" stroke-width="2" stroke-linecap="butt"/><path d="M136.04666,291.94768l-5.96879,-10.45045l4.7502,-2.7131l5.9688,10.45045z" fill="none" stroke="#000000" stroke-width="2" stroke-linecap="butt"/><path d="M136.04666,291.94768l-5.96879,-10.45045l4.7502,-2.7131l5.9688,10.45045z" fill="none" stroke="#000000" stroke-width="2" stroke-linecap="butt"/><path d="M136.04666,291.94768l-5.96879,-10.45045l4.7502,-2.7131l5.9688,10.45045z" fill="none" stroke="#000000" stroke-width="2" stroke-linecap="butt"/><path d="M135.54666,291.94768l-5.96879,-10.45045l4.7502,-2.7131l5.9688,10.45045z" fill="none" stroke="#000000" stroke-width="2" stroke-linecap="butt"/><path d="M135.54666,291.94768l-5.96879,-10.45045l4.7502,-2.7131l5.9688,10.45045z" fill="none" stroke="#000000" stroke-width="2" stroke-linecap="butt"/><path d="M135.54666,291.94768l-5.96879,-10.45045l4.7502,-2.7131l5.9688,10.45045z" fill="none" stroke="#000000" stroke-width="2" stroke-linecap="butt"/><path d="M135.54666,291.94768l-5.96879,-10.45045l4.7502,-2.7131l5.9688,10.45045z" fill="none" stroke="#000000" stroke-width="2" stroke-linecap="butt"/><path d="M135.54666,291.94768l-5.96879,-10.45045l4.7502,-2.7131l5.9688,10.45045z" fill="none" stroke="#000000" stroke-width="2" stroke-linecap="butt"/><path d="M135.54666,291.94768l-5.96879,-10.45045l4.7502,-2.7131l5.9688,10.45045z" fill="none" stroke="#000000" stroke-width="2" stroke-linecap="butt"/><path d="M135.54666,291.94768l-5.96879,-10.45045l4.7502,-2.7131l5.9688,10.45045z" fill="none" stroke="#000000" stroke-width="2" stroke-linecap="butt"/><path d="M135.54666,291.94768l-5.96879,-10.45045l4.7502,-2.7131l5.9688,10.45045z" fill="none" stroke="#000000" stroke-width="2" stroke-linecap="butt"/><path d="M131.84243,279.73348l-3.90685,-6.84029l0.57002,-0.32557l3.90685,6.84029z" fill="none" stroke="#000000" stroke-width="2" stroke-linecap="butt"/><path d="M131.84243,279.73348l-3.90685,-6.84029l0.57002,-0.32557l3.90685,6.84029z" fill="none" stroke="#000000" stroke-width="2" stroke-linecap="butt"/><path d="M131.84243,279.73348l-3.90685,-6.84029l0.57002,-0.32557l3.90685,6.84029z" fill="none" stroke="#000000" stroke-width="2" stroke-linecap="butt"/><path d="M131.84243,279.73348l-3.90685,-6.84029l0.57002,-0.32557l3.90685,6.84029z" fill="none" stroke="#000000" stroke-width="2" stroke-linecap="butt"/><path d="M131.84243,279.73348l-3.90685,-6.84029l0.57002,-0.32557l3.90685,6.84029z" fill="none" stroke="#000000" stroke-width="2" stroke-linecap="butt"/><path d="M131.84243,279.73348l-3.90685,-6.84029l0.57002,-0.32557l3.90685,6.84029z" fill="none" stroke="#000000" stroke-width="2" stroke-linecap="butt"/><path d="M131.84243,279.73348l-3.90685,-6.84029l0.57002,-0.32557l3.90685,6.84029z" fill="none" stroke="#000000" stroke-width="2" stroke-linecap="butt"/><path d="M131.34243,279.73348l-3.90685,-6.84029l0.57002,-0.32557l3.90685,6.84029z" fill="none" stroke="#000000" stroke-width="2" stroke-linecap="butt"/><path d="M131.34243,279.73348l-3.90685,-6.84029l0.57002,-0.32557l3.90685,6.84029z" fill="none" stroke="#000000" stroke-width="2" stroke-linecap="butt"/><path d="M131.34243,279.73348l-3.90685,-6.84029l0.57002,-0.32557l3.90685,6.84029z" fill="none" stroke="#000000" stroke-width="2" stroke-linecap="butt"/><path d="M131.34243,279.73348l-3.90685,-6.84029l0.57002,-0.32557l3.90685,6.84029z" fill="none" stroke="#000000" stroke-width="2" stroke-linecap="butt"/><path d="M131.34243,279.73348l-3.90685,-6.84029l0.57002,-0.32557l3.90685,6.84029z" fill="none" stroke="#000000" stroke-width="2" stroke-linecap="butt"/><path d="M131.34243,279.73348l-3.90685,-6.84029l0.57002,-0.32557l3.90685,6.84029z" fill="none" stroke="#000000" stroke-width="2" stroke-linecap="butt"/><path d="M131.34243,279.73348l-3.90685,-6.84029l0.57002,-0.32557l3.90685,6.84029z" fill="none" stroke="#000000" stroke-width="2" stroke-linecap="butt"/><path d="M131.34243,279.73348l-3.90685,-6.84029l0.57002,-0.32557l3.90685,6.84029z" fill="none" stroke="#000000" stroke-width="2" stroke-linecap="butt"/><path d="M124.74259,272.66319l-5.9688,-10.45045l4.7502,-2.71309l5.9688,10.45045z" fill="none" stroke="#000000" stroke-width="2" stroke-linecap="butt"/><path d="M125.24259,272.66319l-5.9688,-10.45045l4.7502,-2.71309l5.9688,10.45045z" fill="none" stroke="#000000" stroke-width="2" stroke-linecap="butt"/><path d="M125.24259,272.66319l-5.9688,-10.45045l4.7502,-2.71309l5.9688,10.45045z" fill="none" stroke="#000000" stroke-width="2" stroke-linecap="butt"/><path d="M125.24259,272.66319l-5.9688,-10.45045l4.7502,-2.71309l5.9688,10.45045z" fill="none" stroke="#000000" stroke-width="2" stroke-linecap="butt"/><path d="M125.24259,272.66319l-5.9688,-10.45045l4.7502,-2.71309l5.9688,10.45045z" fill="none" stroke="#000000" stroke-width="2" stroke-linecap="butt"/><path d="M125.24259,272.66319l-5.9688,-10.45045l4.7502,-2.71309l5.9688,10.45045z" fill="none" stroke="#000000" stroke-width="2" stroke-linecap="butt"/><path d="M125.24259,272.66319l-5.9688,-10.45045l4.7502,-2.71309l5.9688,10.45045z" fill="none" stroke="#000000" stroke-width="2" stroke-linecap="butt"/><path d="M125.24259,272.66319l-5.9688,-10.45045l4.7502,-2.71309l5.9688,10.45045z" fill="none" stroke="#000000" stroke-width="2" stroke-linecap="butt"/><path d="M125.24259,272.66319l-5.9688,-10.45045l4.7502,-2.71309l5.9688,10.45045z" fill="none" stroke="#000000" stroke-width="2" stroke-linecap="butt"/><path d="M124.74259,272.66319l-5.9688,-10.45045l4.7502,-2.71309l5.9688,10.45045z" fill="none" stroke="#000000" stroke-width="2" stroke-linecap="butt"/><path d="M124.74259,272.66319l-5.9688,-10.45045l4.7502,-2.71309l5.9688,10.45045z" fill="none" stroke="#000000" stroke-width="2" stroke-linecap="butt"/><path d="M124.74259,272.66319l-5.9688,-10.45045l4.7502,-2.71309l5.9688,10.45045z" fill="none" stroke="#000000" stroke-width="2" stroke-linecap="butt"/><path d="M124.74259,272.66319l-5.9688,-10.45045l4.7502,-2.71309l5.9688,10.45045z" fill="none" stroke="#000000" stroke-width="2" stroke-linecap="butt"/><path d="M124.74259,272.66319l-5.9688,-10.45045l4.7502,-2.71309l5.9688,10.45045z" fill="none" stroke="#000000" stroke-width="2" stroke-linecap="butt"/><path d="M124.74259,272.66319l-5.9688,-10.45045l4.7502,-2.71309l5.9688,10.45045z" fill="none" stroke="#000000" stroke-width="2" stroke-linecap="butt"/><path d="M124.74259,272.66319l-5.9688,-10.45045l4.7502,-2.71309l5.9688,10.45045z" fill="none" stroke="#000000" stroke-width="2" stroke-linecap="butt"/><path d="M124.74259,272.66319l-5.9688,-10.45045l4.7502,-2.71309l5.9688,10.45045z" fill="none" stroke="#000000" stroke-width="2" stroke-linecap="butt"/><path d="M120.53832,260.44894l-3.90685,-6.84029l0.57003,-0.32557l3.90684,6.84029z" fill="none" stroke="#000000" stroke-width="2" stroke-linecap="butt"/><path d="M120.53832,260.44894l-3.90685,-6.84029l0.57003,-0.32557l3.90684,6.84029z" fill="none" stroke="#000000" stroke-width="2" stroke-linecap="butt"/><path d="M120.53832,260.44894l-3.90685,-6.84029l0.57003,-0.32557l3.90684,6.84029z" fill="none" stroke="#000000" stroke-width="2" stroke-linecap="butt"/><path d="M120.53832,260.44894l-3.90685,-6.84029l0.57003,-0.32557l3.90684,6.84029z" fill="none" stroke="#000000" stroke-width="2" stroke-linecap="butt"/><path d="M120.53832,260.44894l-3.90685,-6.84029l0.57003,-0.32557l3.90684,6.84029z" fill="none" stroke="#000000" stroke-width="2" stroke-linecap="butt"/><path d="M120.53832,260.44894l-3.90685,-6.84029l0.57003,-0.32557l3.90684,6.84029z" fill="none" stroke="#000000" stroke-width="2" stroke-linecap="butt"/><path d="M120.53832,260.44894l-3.90685,-6.84029l0.57003,-0.32557l3.90684,6.84029z" fill="none" stroke="#000000" stroke-width="2" stroke-linecap="butt"/><path d="M120.53832,260.44894l-3.90685,-6.84029l0.57003,-0.32557l3.90684,6.84029z" fill="none" stroke="#000000" stroke-width="2" stroke-linecap="butt"/><path d="M120.03832,260.44894l-3.90685,-6.84029l0.57003,-0.32557l3.90684,6.84029z" fill="none" stroke="#000000" stroke-width="2" stroke-linecap="butt"/><path d="M120.03832,260.44894l-3.90685,-6.84029l0.57003,-0.32557l3.90684,6.84029z" fill="none" stroke="#000000" stroke-width="2" stroke-linecap="butt"/><path d="M120.03832,260.44894l-3.90685,-6.84029l0.57003,-0.32557l3.90684,6.84029z" fill="none" stroke="#000000" stroke-width="2" stroke-linecap="butt"/><path d="M120.03832,260.44894l-3.90685,-6.84029l0.57003,-0.32557l3.90684,6.84029z" fill="none" stroke="#000000" stroke-width="2" stroke-linecap="butt"/><path d="M120.03832,260.44894l-3.90685,-6.84029l0.57003,-0.32557l3.90684,6.84029z" fill="none" stroke="#000000" stroke-width="2" stroke-linecap="butt"/><path d="M120.03832,260.44894l-3.90685,-6.84029l0.57003,-0.32557l3.90684,6.84029z" fill="none" stroke="#000000" stroke-width="2" stroke-linecap="butt"/><path d="M120.03832,260.44894l-3.90685,-6.84029l0.57003,-0.32557l3.90684,6.84029z" fill="none" stroke="#000000" stroke-width="2" stroke-linecap="butt"/><path d="M120.03832,260.44894l-3.90685,-6.84029l0.57003,-0.32557l3.90684,6.84029z" fill="none" stroke="#000000" stroke-width="2" stroke-linecap="butt"/><path d="M114.11702,253.24321l-5.9688,-10.45045l4.75021,-2.7131l5.9688,10.45045z" fill="none" stroke="#000000" stroke-width="2" stroke-linecap="butt"/><path d="M114.11702,253.24321l-5.9688,-10.45045l4.75021,-2.7131l5.9688,10.45045z" fill="none" stroke="#000000" stroke-width="2" stroke-linecap="butt"/><path d="M114.61702,253.24321l-5.9688,-10.45045l4.75021,-2.7131l5.9688,10.45045z" fill="none" stroke="#000000" stroke-width="2" stroke-linecap="butt"/><path d="M114.61702,253.24321l-5.9688,-10.45045l4.75021,-2.7131l5.9688,10.45045z" fill="none" stroke="#000000" stroke-width="2" stroke-linecap="butt"/><path d="M114.61702,253.24321l-5.9688,-10.45045l4.75021,-2.7131l5.9688,10.45045z" fill="none" stroke="#000000" stroke-width="2" stroke-linecap="butt"/><path d="M114.61702,253.24321l-5.9688,-10.45045l4.75021,-2.7131l5.9688,10.45045z" fill="none" stroke="#000000" stroke-width="2" stroke-linecap="butt"/><path d="M114.61702,253.24321l-5.9688,-10.45045l4.75021,-2.7131l5.9688,10.45045z" fill="none" stroke="#000000" stroke-width="2" stroke-linecap="butt"/><path d="M114.61702,253.24321l-5.9688,-10.45045l4.75021,-2.7131l5.9688,10.45045z" fill="none" stroke="#000000" stroke-width="2" stroke-linecap="butt"/><path d="M114.61702,253.24321l-5.9688,-10.45045l4.75021,-2.7131l5.9688,10.45045z" fill="none" stroke="#000000" stroke-width="2" stroke-linecap="butt"/><path d="M114.61702,253.24321l-5.9688,-10.45045l4.75021,-2.7131l5.9688,10.45045z" fill="none" stroke="#000000" stroke-width="2" stroke-linecap="butt"/><path d="M114.11702,253.24321l-5.9688,-10.45045l4.75021,-2.7131l5.9688,10.45045z" fill="none" stroke="#000000" stroke-width="2" stroke-linecap="butt"/><path d="M114.11702,253.24321l-5.9688,-10.45045l4.75021,-2.7131l5.9688,10.45045z" fill="none" stroke="#000000" stroke-width="2" stroke-linecap="butt"/><path d="M114.11702,253.24321l-5.9688,-10.45045l4.75021,-2.7131l5.9688,10.45045z" fill="none" stroke="#000000" stroke-width="2" stroke-linecap="butt"/><path d="M114.11702,253.24321l-5.9688,-10.45045l4.75021,-2.7131l5.9688,10.45045z" fill="none" stroke="#000000" stroke-width="2" stroke-linecap="butt"/><path d="M114.11702,253.24321l-5.9688,-10.45045l4.75021,-2.7131l5.9688,10.45045z" fill="none" stroke="#000000" stroke-width="2" stroke-linecap="butt"/><path d="M114.11702,253.24321l-5.9688,-10.45045l4.75021,-2.7131l5.9688,10.45045z" fill="none" stroke="#000000" stroke-width="2" stroke-linecap="butt"/><path d="M114.11702,253.24321l-5.9688,-10.45045l4.75021,-2.7131l5.9688,10.45045z" fill="none" stroke="#000000" stroke-width="2" stroke-linecap="butt"/><path d="M114.11702,253.24321l-5.9688,-10.45045l4.75021,-2.7131l5.9688,10.45045z" fill="none" stroke="#000000" stroke-width="2" stroke-linecap="butt"/><path d="M109.91272,241.02897l-3.90685,-6.84029l0.57002,-0.32557l3.90685,6.84029z" fill="none" stroke="#000000" stroke-width="2" stroke-linecap="butt"/><path d="M109.91272,241.02897l-3.90685,-6.84029l0.57002,-0.32557l3.90685,6.84029z" fill="none" stroke="#000000" stroke-width="2" stroke-linecap="butt"/><path d="M109.91272,241.02897l-3.90685,-6.84029l0.57002,-0.32557l3.90685,6.84029z" fill="none" stroke="#000000" stroke-width="2" stroke-linecap="butt"/><path d="M110.41272,241.02897l-3.90685,-6.84029l0.57002,-0.32557l3.90685,6.84029z" fill="none" stroke="#000000" stroke-width="2" stroke-linecap="butt"/><path d="M110.41272,241.02897l-3.90685,-6.84029l0.57002,-0.32557l3.90685,6.84029z" fill="none" stroke="#000000" stroke-width="2" stroke-linecap="butt"/><path d="M110.41272,241.02897l-3.90685,-6.84029l0.57002,-0.32557l3.90685,6.84029z" fill="none" stroke="#000000" stroke-width="2" stroke-linecap="butt"/><path d="M110.41272,241.02897l-3.90685,-6.84029l0.57002,-0.32557l3.90685,6.84029z" fill="none" stroke="#000000" stroke-width="2" stroke-linecap="butt"/><path d="M110.41272,241.02897l-3.90685,-6.84029l0.57002,-0.32557l3.90685,6.84029z" fill="none" stroke="#000000" stroke-width="2" stroke-linecap="butt"/><path d="M110.41272,241.02897l-3.90685,-6.84029l0.57002,-0.32557l3.90685,6.84029z" fill="none" stroke="#000000" stroke-width="2" stroke-linecap="butt"/><path d="M110.41272,241.02897l-3.90685,-6.84029l0.57002,-0.32557l3.90685,6.84029z" fill="none" stroke="#000000" stroke-width="2" stroke-linecap="butt"/><path d="M110.41272,241.02897l-3.90685,-6.84029l0.57002,-0.32557l3.90685,6.84029z" fill="none" stroke="#000000" stroke-width="2" stroke-linecap="butt"/><path d="M109.91272,241.02897l-3.90685,-6.84029l0.57002,-0.32557l3.90685,6.84029z" fill="none" stroke="#000000" stroke-width="2" stroke-linecap="butt"/><path d="M109.91272,241.02897l-3.90685,-6.84029l0.57002,-0.32557l3.90685,6.84029z" fill="none" stroke="#000000" stroke-width="2" stroke-linecap="butt"/><path d="M109.91272,241.02897l-3.90685,-6.84029l0.57002,-0.32557l3.90685,6.84029z" fill="none" stroke="#000000" stroke-width="2" stroke-linecap="butt"/><path d="M109.91272,241.02897l-3.90685,-6.84029l0.57002,-0.32557l3.90685,6.84029z" fill="none" stroke="#000000" stroke-width="2" stroke-linecap="butt"/><path d="M109.91272,241.02897l-3.90685,-6.84029l0.57002,-0.32557l3.90685,6.84029z" fill="none" stroke="#000000" stroke-width="2" stroke-linecap="butt"/><path d="M109.91272,241.02897l-3.90685,-6.84029l0.57002,-0.32557l3.90685,6.84029z" fill="none" stroke="#000000" stroke-width="2" stroke-linecap="butt"/><path d="M109.91272,241.02897l-3.90685,-6.84029l0.57002,-0.32557l3.90685,6.84029z" fill="none" stroke="#000000" stroke-width="2" stroke-linecap="butt"/><path d="M109.91272,241.02897l-3.90685,-6.84029l0.57002,-0.32557l3.90685,6.84029z" fill="none" stroke="#000000" stroke-width="2" stroke-linecap="butt"/><path d="M103.82495,234.7161l-5.9688,-10.45045l4.75021,-2.71309l5.9688,10.45045z" fill="none" stroke="#000000" stroke-width="2" stroke-linecap="butt"/><path d="M103.82495,234.7161l-5.9688,-10.45045l4.75021,-2.71309l5.9688,10.45045z" fill="none" stroke="#000000" stroke-width="2" stroke-linecap="butt"/><path d="M103.82495,234.7161l-5.9688,-10.45045l4.75021,-2.71309l5.9688,10.45045z" fill="none" stroke="#000000" stroke-width="2" stroke-linecap="butt"/><path d="M103.82495,234.7161l-5.9688,-10.45045l4.75021,-2.71309l5.9688,10.45045z" fill="none" stroke="#000000" stroke-width="2" stroke-linecap="butt"/><path d="M104.32495,234.7161l-5.9688,-10.45045l4.75021,-2.71309l5.9688,10.45045z" fill="none" stroke="#000000" stroke-width="2" stroke-linecap="butt"/><path d="M104.32495,234.7161l-5.9688,-10.45045l4.75021,-2.71309l5.9688,10.45045z" fill="none" stroke="#000000" stroke-width="2" stroke-linecap="butt"/><path d="M104.32495,234.7161l-5.9688,-10.45045l4.75021,-2.71309l5.9688,10.45045z" fill="none" stroke="#000000" stroke-width="2" stroke-linecap="butt"/><path d="M104.32495,234.7161l-5.9688,-10.45045l4.75021,-2.71309l5.9688,10.45045z" fill="none" stroke="#000000" stroke-width="2" stroke-linecap="butt"/><path d="M104.32495,234.7161l-5.9688,-10.45045l4.75021,-2.71309l5.9688,10.45045z" fill="none" stroke="#000000" stroke-width="2" stroke-linecap="butt"/><path d="M104.32495,234.7161l-5.9688,-10.45045l4.75021,-2.71309l5.9688,10.45045z" fill="none" stroke="#000000" stroke-width="2" stroke-linecap="butt"/><path d="M104.32495,234.7161l-5.9688,-10.45045l4.75021,-2.71309l5.9688,10.45045z" fill="none" stroke="#000000" stroke-width="2" stroke-linecap="butt"/><path d="M104.32495,234.7161l-5.9688,-10.45045l4.75021,-2.71309l5.9688,10.45045z" fill="none" stroke="#000000" stroke-width="2" stroke-linecap="butt"/><path d="M103.82495,234.7161l-5.9688,-10.45045l4.75021,-2.71309l5.9688,10.45045z" fill="none" stroke="#000000" stroke-width="2" stroke-linecap="butt"/><path d="M103.82495,234.7161l-5.9688,-10.45045l4.75021,-2.71309l5.9688,10.45045z" fill="none" stroke="#000000" stroke-width="2" stroke-linecap="butt"/><path d="M103.82495,234.7161l-5.9688,-10.45045l4.75021,-2.71309l5.9688,10.45045z" fill="none" stroke="#000000" stroke-width="2" stroke-linecap="butt"/><path d="M103.82495,234.7161l-5.9688,-10.45045l4.75021,-2.71309l5.9688,10.45045z" fill="none" stroke="#000000" stroke-width="2" stroke-linecap="butt"/><path d="M103.82495,234.7161l-5.9688,-10.45045l4.75021,-2.71309l5.9688,10.45045z" fill="none" stroke="#000000" stroke-width="2" stroke-linecap="butt"/><path d="M103.82495,234.7161l-5.9688,-10.45045l4.75021,-2.71309l5.9688,10.45045z" fill="none" stroke="#000000" stroke-width="2" stroke-linecap="butt"/><path d="M103.82495,234.7161l-5.9688,-10.45045l4.75021,-2.71309l5.9688,10.45045z" fill="none" stroke="#000000" stroke-width="2" stroke-linecap="butt"/><path d="M103.82495,234.7161l-5.9688,-10.45045l4.75021,-2.71309l5.9688,10.45045z" fill="none" stroke="#000000" stroke-width="2" stroke-linecap="butt"/><path d="M99.62066,222.50186l-3.90685,-6.84029l0.57002,-0.32557l3.90685,6.84029z" fill="none" stroke="#000000" stroke-width="2" stroke-linecap="butt"/><path d="M92.52082,215.4316l-5.9688,-10.45045l4.75021,-2.71309l5.9688,10.45045z" fill="none" stroke="#000000" stroke-width="2" stroke-linecap="butt"/><path d="M88.31653,203.21736l-3.90685,-6.84029l0.57002,-0.32557l3.90685,6.84029z" fill="none" stroke="#000000" stroke-width="2" stroke-linecap="butt"/><path d="M81.89517,196.01153l-5.96879,-10.45045l4.7502,-2.71309l5.9688,10.45045z" fill="none" stroke="#000000" stroke-width="2" stroke-linecap="butt"/><path d="M77.6909,183.79729l-3.90685,-6.84029l0.57002,-0.32557l3.90685,6.84029z" fill="none" stroke="#000000" stroke-width="2" stroke-linecap="butt"/><path d="M131.19503,166.80444c-1.05031,35.19249 -30.20715,62.87686 -65.12361,61.83479c-34.91646,-1.04208 -62.3704,-30.41598 -61.32009,-65.60847c1.05031,-35.19249 30.20714,-62.87686 65.12361,-61.83478c34.91647,1.04207 62.37041,30.41599 61.3201,65.60847z" fill="#00ff08" stroke="#000000" stroke-width="3.5" stroke-linecap="butt"/><path d="M131.19503,166.80444c-1.05031,35.19249 -30.20715,62.87686 -65.12361,61.83479c-34.91646,-1.04208 -62.3704,-30.41598 -61.32009,-65.60847c1.05031,-35.19249 30.20714,-62.87686 65.12361,-61.83478c34.91647,1.04207 62.37041,30.41599 61.3201,65.60847z" fill="#00ff08" stroke="#000000" stroke-width="3.5" stroke-linecap="butt"/><path d="M131.19503,166.80444c-1.05031,35.19249 -30.20715,62.87686 -65.12361,61.83479c-34.91646,-1.04208 -62.3704,-30.41598 -61.32009,-65.60847c1.05031,-35.19249 30.20714,-62.87686 65.12361,-61.83478c34.91647,1.04207 62.37041,30.41599 61.3201,65.60847z" fill="#00ff08" stroke="#000000" stroke-width="3.5" stroke-linecap="butt"/><path d="M131.19503,166.80444c-1.05031,35.19249 -30.20715,62.87686 -65.12361,61.83479c-34.91646,-1.04208 -62.3704,-30.41598 -61.32009,-65.60847c1.05031,-35.19249 30.20714,-62.87686 65.12361,-61.83478c34.91647,1.04207 62.37041,30.41599 61.3201,65.60847z" fill="#00ff08" stroke="#000000" stroke-width="3.5" stroke-linecap="butt"/><path d="M131.19503,166.80444c-1.05031,35.19249 -30.20715,62.87686 -65.12361,61.83479c-34.91646,-1.04208 -62.3704,-30.41598 -61.32009,-65.60847c1.05031,-35.19249 30.20714,-62.87686 65.12361,-61.83478c34.91647,1.04207 62.37041,30.41599 61.3201,65.60847z" fill="#00ff08" stroke="#000000" stroke-width="3.5" stroke-linecap="butt"/><path d="M131.19503,166.80444c-1.05031,35.19249 -30.20715,62.87686 -65.12361,61.83479c-34.91646,-1.04208 -62.3704,-30.41598 -61.32009,-65.60847c1.05031,-35.19249 30.20714,-62.87686 65.12361,-61.83478c34.91647,1.04207 62.37041,30.41599 61.3201,65.60847z" fill="#00ff08" stroke="#000000" stroke-width="3.5" stroke-linecap="butt"/><path d="M131.19503,166.80444c-1.05031,35.19249 -30.20715,62.87686 -65.12361,61.83479c-34.91646,-1.04208 -62.3704,-30.41598 -61.32009,-65.60847c1.05031,-35.19249 30.20714,-62.87686 65.12361,-61.83478c34.91647,1.04207 62.37041,30.41599 61.3201,65.60847z" fill="#00ff08" stroke="#000000" stroke-width="3.5" stroke-linecap="butt"/><path d="M131.19503,166.80444c-1.05031,35.19249 -30.20715,62.87686 -65.12361,61.83479c-34.91646,-1.04208 -62.3704,-30.41598 -61.32009,-65.60847c1.05031,-35.19249 30.20714,-62.87686 65.12361,-61.83478c34.91647,1.04207 62.37041,30.41599 61.3201,65.60847z" fill="#00ff08" stroke="#000000" stroke-width="3.5" stroke-linecap="butt"/><path d="M131.69503,166.80444c-1.05031,35.19249 -30.20715,62.87686 -65.12361,61.83479c-34.91646,-1.04208 -62.3704,-30.41598 -61.32009,-65.60847c1.05031,-35.19249 30.20714,-62.87686 65.12361,-61.83478c34.91647,1.04207 62.37041,30.41599 61.3201,65.60847z" fill="#00ff08" stroke="#000000" stroke-width="3.5" stroke-linecap="butt"/><path d="M131.69503,166.80444c-1.05031,35.19249 -30.20715,62.87686 -65.12361,61.83479c-34.91646,-1.04208 -62.3704,-30.41598 -61.32009,-65.60847c1.05031,-35.19249 30.20714,-62.87686 65.12361,-61.83478c34.91647,1.04207 62.37041,30.41599 61.3201,65.60847z" fill="#00ff08" stroke="#000000" stroke-width="3.5" stroke-linecap="butt"/><path d="M131.69503,166.80444c-1.05031,35.19249 -30.20715,62.87686 -65.12361,61.83479c-34.91646,-1.04208 -62.3704,-30.41598 -61.32009,-65.60847c1.05031,-35.19249 30.20714,-62.87686 65.12361,-61.83478c34.91647,1.04207 62.37041,30.41599 61.3201,65.60847z" fill="#00ff08" stroke="#000000" stroke-width="3.5" stroke-linecap="butt"/><path d="M131.69503,166.80444c-1.05031,35.19249 -30.20715,62.87686 -65.12361,61.83479c-34.91646,-1.04208 -62.3704,-30.41598 -61.32009,-65.60847c1.05031,-35.19249 30.20714,-62.87686 65.12361,-61.83478c34.91647,1.04207 62.37041,30.41599 61.3201,65.60847z" fill="#00ff08" stroke="#000000" stroke-width="3.5" stroke-linecap="butt"/><path d="M131.69503,166.80444c-1.05031,35.19249 -30.20715,62.87686 -65.12361,61.83479c-34.91646,-1.04208 -62.3704,-30.41598 -61.32009,-65.60847c1.05031,-35.19249 30.20714,-62.87686 65.12361,-61.83478c34.91647,1.04207 62.37041,30.41599 61.3201,65.60847z" fill="#00ff08" stroke="#000000" stroke-width="3.5" stroke-linecap="butt"/><path d="M131.69503,166.80444c-1.05031,35.19249 -30.20715,62.87686 -65.12361,61.83479c-34.91646,-1.04208 -62.3704,-30.41598 -61.32009,-65.60847c1.05031,-35.19249 30.20714,-62.87686 65.12361,-61.83478c34.91647,1.04207 62.37041,30.41599 61.3201,65.60847z" fill="#00ff08" stroke="#000000" stroke-width="3.5" stroke-linecap="butt"/><path d="M131.69503,166.80444c-1.05031,35.19249 -30.20715,62.87686 -65.12361,61.83479c-34.91646,-1.04208 -62.3704,-30.41598 -61.32009,-65.60847c1.05031,-35.19249 30.20714,-62.87686 65.12361,-61.83478c34.91647,1.04207 62.37041,30.41599 61.3201,65.60847z" fill="#00ff08" stroke="#000000" stroke-width="3.5" stroke-linecap="butt"/><path d="M131.69503,166.80444c-1.05031,35.19249 -30.20715,62.87686 -65.12361,61.83479c-34.91646,-1.04208 -62.3704,-30.41598 -61.32009,-65.60847c1.05031,-35.19249 30.20714,-62.87686 65.12361,-61.83478c34.91647,1.04207 62.37041,30.41599 61.3201,65.60847z" fill="#00ff08" stroke="#000000" stroke-width="3.5" stroke-linecap="butt"/><path d="M131.19503,166.80444c-1.05031,35.19249 -30.20715,62.87686 -65.12361,61.83479c-34.91646,-1.04208 -62.3704,-30.41598 -61.32009,-65.60847c1.05031,-35.19249 30.20714,-62.87686 65.12361,-61.83478c34.91647,1.04207 62.37041,30.41599 61.3201,65.60847z" fill="#00ff08" stroke="#000000" stroke-width="3.5" stroke-linecap="butt"/><path d="M131.19503,166.80444c-1.05031,35.19249 -30.20715,62.87686 -65.12361,61.83479c-34.91646,-1.04208 -62.3704,-30.41598 -61.32009,-65.60847c1.05031,-35.19249 30.20714,-62.87686 65.12361,-61.83478c34.91647,1.04207 62.37041,30.41599 61.3201,65.60847z" fill="#00ff08" stroke="#000000" stroke-width="3.5" stroke-linecap="butt"/><path d="M131.19503,166.80444c-1.05031,35.19249 -30.20715,62.87686 -65.12361,61.83479c-34.91646,-1.04208 -62.3704,-30.41598 -61.32009,-65.60847c1.05031,-35.19249 30.20714,-62.87686 65.12361,-61.83478c34.91647,1.04207 62.37041,30.41599 61.3201,65.60847z" fill="#00ff08" stroke="#000000" stroke-width="3.5" stroke-linecap="butt"/><path d="M131.19503,166.80444c-1.05031,35.19249 -30.20715,62.87686 -65.12361,61.83479c-34.91646,-1.04208 -62.3704,-30.41598 -61.32009,-65.60847c1.05031,-35.19249 30.20714,-62.87686 65.12361,-61.83478c34.91647,1.04207 62.37041,30.41599 61.3201,65.60847z" fill="#00ff08" stroke="#000000" stroke-width="3.5" stroke-linecap="butt"/><path d="M131.19503,166.80444c-1.05031,35.19249 -30.20715,62.87686 -65.12361,61.83479c-34.91646,-1.04208 -62.3704,-30.41598 -61.32009,-65.60847c1.05031,-35.19249 30.20714,-62.87686 65.12361,-61.83478c34.91647,1.04207 62.37041,30.41599 61.3201,65.60847z" fill="#00ff08" stroke="#000000" stroke-width="3.5" stroke-linecap="butt"/><path d="M131.19503,166.80444c-1.05031,35.19249 -30.20715,62.87686 -65.12361,61.83479c-34.91646,-1.04208 -62.3704,-30.41598 -61.32009,-65.60847c1.05031,-35.19249 30.20714,-62.87686 65.12361,-61.83478c34.91647,1.04207 62.37041,30.41599 61.3201,65.60847z" fill="#00ff08" stroke="#000000" stroke-width="3.5" stroke-linecap="butt"/><path d="M131.19503,166.80444c-1.05031,35.19249 -30.20715,62.87686 -65.12361,61.83479c-34.91646,-1.04208 -62.3704,-30.41598 -61.32009,-65.60847c1.05031,-35.19249 30.20714,-62.87686 65.12361,-61.83478c34.91647,1.04207 62.37041,30.41599 61.3201,65.60847z" fill="#00ff08" stroke="#000000" stroke-width="3.5" stroke-linecap="butt"/><path d="M131.19503,166.80444c-1.05031,35.19249 -30.20715,62.87686 -65.12361,61.83479c-34.91646,-1.04208 -62.3704,-30.41598 -61.32009,-65.60847c1.05031,-35.19249 30.20714,-62.87686 65.12361,-61.83478c34.91647,1.04207 62.37041,30.41599 61.3201,65.60847z" fill="#00ff08" stroke="#000000" stroke-width="3.5" stroke-linecap="butt"/><path d="M110.45752,115.58837c1.39617,-0.38984 0.88903,-2.46224 2.24317,-2.79568c21.3273,-5.25169 33.47093,-0.61037 37.69624,9.24667c7.29474,17.01758 -23.01266,51.67639 -67.69349,77.41257c-44.68083,25.73619 -86.81535,32.80399 -94.11009,15.78639c-4.18322,-9.75887 -3.58215,-17.91647 11.93915,-33.83665c0.66846,-0.68564 2.60383,-2.54948 3.87762,-3.77447c0.36628,-0.35225 0.67784,-0.65167 0.88886,-0.85507" fill="none" stroke="#cf8608" stroke-width="7.5" stroke-linecap="butt"/><path d="M110.45752,115.58837c1.39617,-0.38984 0.88903,-2.46224 2.24317,-2.79568c21.3273,-5.25169 33.47093,-0.61037 37.69624,9.24667c7.29474,17.01758 -23.01266,51.67639 -67.69349,77.41257c-44.68083,25.73619 -86.81535,32.80399 -94.11009,15.78639c-4.18322,-9.75887 -3.58215,-17.91647 11.93915,-33.83665c0.66846,-0.68564 2.60383,-2.54948 3.87762,-3.77447c0.36628,-0.35225 0.67784,-0.65167 0.88886,-0.85507" fill="none" stroke="#cf8608" stroke-width="7.5" stroke-linecap="butt"/><path d="M110.45752,115.58837c1.39617,-0.38984 0.88903,-2.46224 2.24317,-2.79568c21.3273,-5.25169 33.47093,-0.61037 37.69624,9.24667c7.29474,17.01758 -23.01266,51.67639 -67.69349,77.41257c-44.68083,25.73619 -86.81535,32.80399 -94.11009,15.78639c-4.18322,-9.75887 -3.58215,-17.91647 11.93915,-33.83665c0.66846,-0.68564 2.60383,-2.54948 3.87762,-3.77447c0.36628,-0.35225 0.67784,-0.65167 0.88886,-0.85507" fill="none" stroke="#cf8608" stroke-width="7.5" stroke-linecap="butt"/><path d="M110.45752,115.58837c1.39617,-0.38984 0.88903,-2.46224 2.24317,-2.79568c21.3273,-5.25169 33.47093,-0.61037 37.69624,9.24667c7.29474,17.01758 -23.01266,51.67639 -67.69349,77.41257c-44.68083,25.73619 -86.81535,32.80399 -94.11009,15.78639c-4.18322,-9.75887 -3.58215,-17.91647 11.93915,-33.83665c0.66846,-0.68564 2.60383,-2.54948 3.87762,-3.77447c0.36628,-0.35225 0.67784,-0.65167 0.88886,-0.85507" fill="none" stroke="#cf8608" stroke-width="7.5" stroke-linecap="butt"/><path d="M110.45752,115.58837c1.39617,-0.38984 0.88903,-2.46224 2.24317,-2.79568c21.3273,-5.25169 33.47093,-0.61037 37.69624,9.24667c7.29474,17.01758 -23.01266,51.67639 -67.69349,77.41257c-44.68083,25.73619 -86.81535,32.80399 -94.11009,15.78639c-4.18322,-9.75887 -3.58215,-17.91647 11.93915,-33.83665c0.66846,-0.68564 2.60383,-2.54948 3.87762,-3.77447c0.36628,-0.35225 0.67784,-0.65167 0.88886,-0.85507" fill="none" stroke="#cf8608" stroke-width="7.5" stroke-linecap="butt"/><path d="M110.45752,115.58837c1.39617,-0.38984 0.88903,-2.46224 2.24317,-2.79568c21.3273,-5.25169 33.47093,-0.61037 37.69624,9.24667c7.29474,17.01758 -23.01266,51.67639 -67.69349,77.41257c-44.68083,25.73619 -86.81535,32.80399 -94.11009,15.78639c-4.18322,-9.75887 -3.58215,-17.91647 11.93915,-33.83665c0.66846,-0.68564 2.60383,-2.54948 3.87762,-3.77447c0.36628,-0.35225 0.67784,-0.65167 0.88886,-0.85507" fill="none" stroke="#cf8608" stroke-width="7.5" stroke-linecap="butt"/><path d="M110.45752,115.58837c1.39617,-0.38984 0.88903,-2.46224 2.24317,-2.79568c21.3273,-5.25169 33.47093,-0.61037 37.69624,9.24667c7.29474,17.01758 -23.01266,51.67639 -67.69349,77.41257c-44.68083,25.73619 -86.81535,32.80399 -94.11009,15.78639c-4.18322,-9.75887 -3.58215,-17.91647 11.93915,-33.83665c0.66846,-0.68564 2.60383,-2.54948 3.87762,-3.77447c0.36628,-0.35225 0.67784,-0.65167 0.88886,-0.85507" fill="none" stroke="#cf8608" stroke-width="7.5" stroke-linecap="butt"/><path d="M110.95752,115.58837c1.39617,-0.38984 0.88903,-2.46224 2.24317,-2.79568c21.3273,-5.25169 33.47093,-0.61037 37.69624,9.24667c7.29474,17.01758 -23.01266,51.67639 -67.69349,77.41257c-44.68083,25.73619 -86.81535,32.80399 -94.11009,15.78639c-4.18322,-9.75887 -3.58215,-17.91647 11.93915,-33.83665c0.66846,-0.68564 2.60383,-2.54948 3.87762,-3.77447c0.36628,-0.35225 0.67784,-0.65167 0.88886,-0.85507" fill="none" stroke="#cf8608" stroke-width="7.5" stroke-linecap="butt"/><path d="M110.95752,115.58837c1.39617,-0.38984 0.88903,-2.46224 2.24317,-2.79568c21.3273,-5.25169 33.47093,-0.61037 37.69624,9.24667c7.29474,17.01758 -23.01266,51.67639 -67.69349,77.41257c-44.68083,25.73619 -86.81535,32.80399 -94.11009,15.78639c-4.18322,-9.75887 -3.58215,-17.91647 11.93915,-33.83665c0.66846,-0.68564 2.60383,-2.54948 3.87762,-3.77447c0.36628,-0.35225 0.67784,-0.65167 0.88886,-0.85507" fill="none" stroke="#cf8608" stroke-width="7.5" stroke-linecap="butt"/><path d="M110.95752,115.58837c1.39617,-0.38984 0.88903,-2.46224 2.24317,-2.79568c21.3273,-5.25169 33.47093,-0.61037 37.69624,9.24667c7.29474,17.01758 -23.01266,51.67639 -67.69349,77.41257c-44.68083,25.73619 -86.81535,32.80399 -94.11009,15.78639c-4.18322,-9.75887 -3.58215,-17.91647 11.93915,-33.83665c0.66846,-0.68564 2.60383,-2.54948 3.87762,-3.77447c0.36628,-0.35225 0.67784,-0.65167 0.88886,-0.85507" fill="none" stroke="#cf8608" stroke-width="7.5" stroke-linecap="butt"/><path d="M110.95752,115.58837c1.39617,-0.38984 0.88903,-2.46224 2.24317,-2.79568c21.3273,-5.25169 33.47093,-0.61037 37.69624,9.24667c7.29474,17.01758 -23.01266,51.67639 -67.69349,77.41257c-44.68083,25.73619 -86.81535,32.80399 -94.11009,15.78639c-4.18322,-9.75887 -3.58215,-17.91647 11.93915,-33.83665c0.66846,-0.68564 2.60383,-2.54948 3.87762,-3.77447c0.36628,-0.35225 0.67784,-0.65167 0.88886,-0.85507" fill="none" stroke="#cf8608" stroke-width="7.5" stroke-linecap="butt"/><path d="M110.95752,115.58837c1.39617,-0.38984 0.88903,-2.46224 2.24317,-2.79568c21.3273,-5.25169 33.47093,-0.61037 37.69624,9.24667c7.29474,17.01758 -23.01266,51.67639 -67.69349,77.41257c-44.68083,25.73619 -86.81535,32.80399 -94.11009,15.78639c-4.18322,-9.75887 -3.58215,-17.91647 11.93915,-33.83665c0.66846,-0.68564 2.60383,-2.54948 3.87762,-3.77447c0.36628,-0.35225 0.67784,-0.65167 0.88886,-0.85507" fill="none" stroke="#cf8608" stroke-width="7.5" stroke-linecap="butt"/><path d="M110.95752,115.58837c1.39617,-0.38984 0.88903,-2.46224 2.24317,-2.79568c21.3273,-5.25169 33.47093,-0.61037 37.69624,9.24667c7.29474,17.01758 -23.01266,51.67639 -67.69349,77.41257c-44.68083,25.73619 -86.81535,32.80399 -94.11009,15.78639c-4.18322,-9.75887 -3.58215,-17.91647 11.93915,-33.83665c0.66846,-0.68564 2.60383,-2.54948 3.87762,-3.77447c0.36628,-0.35225 0.67784,-0.65167 0.88886,-0.85507" fill="none" stroke="#cf8608" stroke-width="7.5" stroke-linecap="butt"/><path d="M110.95752,115.58837c1.39617,-0.38984 0.88903,-2.46224 2.24317,-2.79568c21.3273,-5.25169 33.47093,-0.61037 37.69624,9.24667c7.29474,17.01758 -23.01266,51.67639 -67.69349,77.41257c-44.68083,25.73619 -86.81535,32.80399 -94.11009,15.78639c-4.18322,-9.75887 -3.58215,-17.91647 11.93915,-33.83665c0.66846,-0.68564 2.60383,-2.54948 3.87762,-3.77447c0.36628,-0.35225 0.67784,-0.65167 0.88886,-0.85507" fill="none" stroke="#cf8608" stroke-width="7.5" stroke-linecap="butt"/><path d="M110.95752,115.58837c1.39617,-0.38984 0.88903,-2.46224 2.24317,-2.79568c21.3273,-5.25169 33.47093,-0.61037 37.69624,9.24667c7.29474,17.01758 -23.01266,51.67639 -67.69349,77.41257c-44.68083,25.73619 -86.81535,32.80399 -94.11009,15.78639c-4.18322,-9.75887 -3.58215,-17.91647 11.93915,-33.83665c0.66846,-0.68564 2.60383,-2.54948 3.87762,-3.77447c0.36628,-0.35225 0.67784,-0.65167 0.88886,-0.85507" fill="none" stroke="#cf8608" stroke-width="7.5" stroke-linecap="butt"/><path d="M110.45752,115.58837c1.39617,-0.38984 0.88903,-2.46224 2.24317,-2.79568c21.3273,-5.25169 33.47093,-0.61037 37.69624,9.24667c7.29474,17.01758 -23.01266,51.67639 -67.69349,77.41257c-44.68083,25.73619 -86.81535,32.80399 -94.11009,15.78639c-4.18322,-9.75887 -3.58215,-17.91647 11.93915,-33.83665c0.66846,-0.68564 2.60383,-2.54948 3.87762,-3.77447c0.36628,-0.35225 0.67784,-0.65167 0.88886,-0.85507" fill="none" stroke="#cf8608" stroke-width="7.5" stroke-linecap="butt"/><path d="M110.45752,115.58837c1.39617,-0.38984 0.88903,-2.46224 2.24317,-2.79568c21.3273,-5.25169 33.47093,-0.61037 37.69624,9.24667c7.29474,17.01758 -23.01266,51.67639 -67.69349,77.41257c-44.68083,25.73619 -86.81535,32.80399 -94.11009,15.78639c-4.18322,-9.75887 -3.58215,-17.91647 11.93915,-33.83665c0.66846,-0.68564 2.60383,-2.54948 3.87762,-3.77447c0.36628,-0.35225 0.67784,-0.65167 0.88886,-0.85507" fill="none" stroke="#cf8608" stroke-width="7.5" stroke-linecap="butt"/><path d="M110.45752,115.58837c1.39617,-0.38984 0.88903,-2.46224 2.24317,-2.79568c21.3273,-5.25169 33.47093,-0.61037 37.69624,9.24667c7.29474,17.01758 -23.01266,51.67639 -67.69349,77.41257c-44.68083,25.73619 -86.81535,32.80399 -94.11009,15.78639c-4.18322,-9.75887 -3.58215,-17.91647 11.93915,-33.83665c0.66846,-0.68564 2.60383,-2.54948 3.87762,-3.77447c0.36628,-0.35225 0.67784,-0.65167 0.88886,-0.85507" fill="none" stroke="#cf8608" stroke-width="7.5" stroke-linecap="butt"/><path d="M110.45752,115.58837c1.39617,-0.38984 0.88903,-2.46224 2.24317,-2.79568c21.3273,-5.25169 33.47093,-0.61037 37.69624,9.24667c7.29474,17.01758 -23.01266,51.67639 -67.69349,77.41257c-44.68083,25.73619 -86.81535,32.80399 -94.11009,15.78639c-4.18322,-9.75887 -3.58215,-17.91647 11.93915,-33.83665c0.66846,-0.68564 2.60383,-2.54948 3.87762,-3.77447c0.36628,-0.35225 0.67784,-0.65167 0.88886,-0.85507" fill="none" stroke="#cf8608" stroke-width="7.5" stroke-linecap="butt"/><path d="M110.45752,115.58837c1.39617,-0.38984 0.88903,-2.46224 2.24317,-2.79568c21.3273,-5.25169 33.47093,-0.61037 37.69624,9.24667c7.29474,17.01758 -23.01266,51.67639 -67.69349,77.41257c-44.68083,25.73619 -86.81535,32.80399 -94.11009,15.78639c-4.18322,-9.75887 -3.58215,-17.91647 11.93915,-33.83665c0.66846,-0.68564 2.60383,-2.54948 3.87762,-3.77447c0.36628,-0.35225 0.67784,-0.65167 0.88886,-0.85507" fill="none" stroke="#cf8608" stroke-width="7.5" stroke-linecap="butt"/><path d="M110.45752,115.58837c1.39617,-0.38984 0.88903,-2.46224 2.24317,-2.79568c21.3273,-5.25169 33.47093,-0.61037 37.69624,9.24667c7.29474,17.01758 -23.01266,51.67639 -67.69349,77.41257c-44.68083,25.73619 -86.81535,32.80399 -94.11009,15.78639c-4.18322,-9.75887 -3.58215,-17.91647 11.93915,-33.83665c0.66846,-0.68564 2.60383,-2.54948 3.87762,-3.77447c0.36628,-0.35225 0.67784,-0.65167 0.88886,-0.85507" fill="none" stroke="#cf8608" stroke-width="7.5" stroke-linecap="butt"/><path d="M110.45752,115.58837c1.39617,-0.38984 0.88903,-2.46224 2.24317,-2.79568c21.3273,-5.25169 33.47093,-0.61037 37.69624,9.24667c7.29474,17.01758 -23.01266,51.67639 -67.69349,77.41257c-44.68083,25.73619 -86.81535,32.80399 -94.11009,15.78639c-4.18322,-9.75887 -3.58215,-17.91647 11.93915,-33.83665c0.66846,-0.68564 2.60383,-2.54948 3.87762,-3.77447c0.36628,-0.35225 0.67784,-0.65167 0.88886,-0.85507" fill="none" stroke="#cf8608" stroke-width="7.5" stroke-linecap="butt"/><path d="M109.45752,116.58837c1.39617,-0.38984 1.88903,-3.46224 3.24317,-3.79568c21.3273,-5.25169 33.47093,-0.61037 37.69624,9.24667c7.29474,17.01758 -23.01266,51.67639 -67.69349,77.41257c-44.68083,25.73619 -86.81535,32.80399 -94.11009,15.78639c-4.18322,-9.75887 -3.58215,-17.91647 11.93915,-33.83665c0.66846,-0.68564 2.60383,-2.54948 3.87762,-3.77447c0.36628,-0.35225 0.67784,-0.65167 0.88886,-0.85507" fill="none" stroke="#cf8608" stroke-width="7.5" stroke-linecap="butt"/><path d="M153.32573,185.97186l316.36577,47.56995l-80.82365,78.88768l-37.36435,-64.38501l-61.0034,27.27667l-23.23141,-44.42041l-88.24396,52.93482l-18.16073,-66.5873z" fill="#d2b7b7" stroke="#000000" stroke-width="3" stroke-linecap="round"/><path d="M220.58279,196.16962c-10.0286,-1.43742 -17.02012,-10.54412 -15.616,-20.3404c1.40412,-9.79627 10.67216,-16.57247 20.70076,-15.13505c10.0286,1.43742 17.02012,10.54412 15.616,20.3404c-1.40412,9.79627 -10.67216,16.57247 -20.70076,15.13505z" fill="#ffffff" stroke="#000000" stroke-width="1.5" stroke-linecap="butt"/><path d="M221.1317,181.48709l1.48771,-11.37785" fill="none" stroke="#000000" stroke-width="1.5" stroke-linecap="round"/><path d="M199.53565,-68.18067l44.31345,39.80699l-20.27903,63.09033l40.55807,54.07743l-12.76828,32.29624l18.02581,46.56667l-33.79839,51.8242l33.79839,42.8113l-26.98409,35.70588l24.73086,41.30914l-45.8156,36.05162l33.79839,33.79839" fill="none" stroke="#000000" stroke-width="4" stroke-linecap="round"/><path d="M229.94777,183.77712l1.80834,-11.61809" fill="none" stroke="#000000" stroke-width="1.5" stroke-linecap="round"/><path d="M229.95856,190.43056l-15.18386,-1.89013" fill="none" stroke="#000000" stroke-width="1.5" stroke-linecap="round"/><path d="M247.89799,183.91785l15.82672,-14.55215c0,0 2.6351,-0.45835 3.17918,0.13338c0.62825,0.68328 0.37425,3.73128 0.37425,3.73128l-15.82672,14.55215z" fill="#cacaca" stroke="#000000" stroke-width="1" stroke-linecap="butt"/><path d="M246.7938,184.9331l3.89186,4.23272l-6.62513,6.0916l-3.95795,-3.93526z" fill="#827100" stroke="#000000" stroke-width="1" stroke-linecap="round"/><path d="M242.23992,179.61101l3.31257,-3.0458l12.86004,13.9864l-3.31256,3.04579z" fill="#000000" stroke="#000000" stroke-width="1" stroke-linecap="butt"/><path d="M268.92595,189.66333l-13.21136,-16.96201c0,0 -0.24167,-2.66373 0.39251,-3.15768c0.73229,-0.57037 3.74937,-0.06835 3.74937,-0.06835l13.21137,16.96201z" fill="#cacaca" stroke="#000000" stroke-width="1" stroke-linecap="butt"/><path d="M269.84769,190.84669l4.53635,-3.53327l5.53034,7.10038l-4.24527,3.62344z" fill="#827100" stroke="#000000" stroke-width="1" stroke-linecap="round"/><path d="M264.17154,194.95084l-2.76517,-3.55019l14.98969,-11.67516l2.76517,3.55018z" fill="#000000" stroke="#000000" stroke-width="1" stroke-linecap="butt"/><path d="M285.94743,189.4675c1.32952,-9.80668 10.54573,-16.65321 20.58497,-15.29216c10.03925,1.36105 17.09987,10.41428 15.77035,20.22096c-1.32952,9.80668 -10.54573,16.65321 -20.58497,15.29216c-10.03925,-1.36105 -17.09987,-10.41428 -15.77035,-20.22096z" data-paper-data="{&quot;index&quot;:null}" fill="#ffffff" stroke="#000000" stroke-width="1.5" stroke-linecap="butt"/><path d="M305.20674,195.41589l1.6818,-11.35078" data-paper-data="{&quot;index&quot;:null}" fill="none" stroke="#000000" stroke-width="1.5" stroke-linecap="round"/><path d="M297.53965,183.53711l-1.43914,11.66957" data-paper-data="{&quot;index&quot;:null}" fill="none" stroke="#000000" stroke-width="1.5" stroke-linecap="round"/><path d="M309.39155,203.93927l-15.12169,-2.33598" data-paper-data="{&quot;index&quot;:null}" fill="none" stroke="#000000" stroke-width="1.5" stroke-linecap="round"/><path d="M296.06829,179.50014l4,7.5" fill="none" stroke="#000000" stroke-width="1.5" stroke-linecap="round"/><path d="M304.06829,186.00014l6,-4" fill="none" stroke="#000000" stroke-width="1.5" stroke-linecap="round"/><path d="M271.53542,106.5089c0,-2.07107 1.67893,-3.75 3.75,-3.75c2.07107,0 3.75,1.67893 3.75,3.75c0,2.07107 -1.67893,3.75 -3.75,3.75c-2.07107,0 -3.75,-1.67893 -3.75,-3.75z" fill="#ffffff" stroke="none" stroke-width="0.5" stroke-linecap="butt"/><path d="M303.06694,100.50286c0,-2.07107 1.67893,-3.75 3.75,-3.75c2.07107,0 3.75,1.67893 3.75,3.75c0,2.07107 -1.67893,3.75 -3.75,3.75c-2.07107,0 -3.75,-1.67893 -3.75,-3.75z" fill="#ffffff" stroke="none" stroke-width="0.5" stroke-linecap="butt"/><path d="M351.115,86.98938c0,-2.07107 1.67893,-3.75 3.75,-3.75c2.07107,0 3.75,1.67893 3.75,3.75c0,2.07107 -1.67893,3.75 -3.75,3.75c-2.07107,0 -3.75,-1.67893 -3.75,-3.75z" fill="#ffffff" stroke="none" stroke-width="0.5" stroke-linecap="butt"/><path d="M376.64054,145.54782c0,-2.07107 1.67893,-3.75 3.75,-3.75c2.07107,0 3.75,1.67893 3.75,3.75c0,2.07107 -1.67893,3.75 -3.75,3.75c-2.07107,0 -3.75,-1.67893 -3.75,-3.75z" fill="#ffffff" stroke="none" stroke-width="0.5" stroke-linecap="butt"/><path d="M297.06086,151.55381c0,-2.07107 1.67893,-3.75 3.75,-3.75c2.07107,0 3.75,1.67893 3.75,3.75c0,2.07107 -1.67893,3.75 -3.75,3.75c-2.07107,0 -3.75,-1.67893 -3.75,-3.75z" fill="#ffffff" stroke="none" stroke-width="0.5" stroke-linecap="butt"/><path d="M429.19308,178.58097c0,-2.07107 1.67893,-3.75 3.75,-3.75c2.07107,0 3.75,1.67893 3.75,3.75c0,2.07107 -1.67893,3.75 -3.75,3.75c-2.07107,0 -3.75,-1.67893 -3.75,-3.75z" fill="#ffffff" stroke="none" stroke-width="0.5" stroke-linecap="butt"/><path d="M429.19308,85.48785c0,-2.07107 1.67893,-3.75 3.75,-3.75c2.07107,0 3.75,1.67893 3.75,3.75c0,2.07107 -1.67893,3.75 -3.75,3.75c-2.07107,0 -3.75,-1.67893 -3.75,-3.75z" fill="#ffffff" stroke="none" stroke-width="0.5" stroke-linecap="butt"/><path d="M406.67057,70.47271c0,-2.07107 1.67893,-3.75 3.75,-3.75c2.07107,0 3.75,1.67893 3.75,3.75c0,2.07107 -1.67893,3.75 -3.75,3.75c-2.07107,0 -3.75,-1.67893 -3.75,-3.75z" fill="#ffffff" stroke="none" stroke-width="0.5" stroke-linecap="butt"/><path d="M387.15102,43.4458c0,-2.07107 1.67893,-3.75 3.75,-3.75c2.07107,0 3.75,1.67893 3.75,3.75c0,2.07107 -1.67893,3.75 -3.75,3.75c-2.07107,0 -3.75,-1.67893 -3.75,-3.75z" fill="#ffffff" stroke="none" stroke-width="0.5" stroke-linecap="butt"/><path d="M426.19007,22.42479c0,-2.07107 1.67893,-3.75 3.75,-3.75c2.07107,0 3.75,1.67893 3.75,3.75c0,2.07107 -1.67893,3.75 -3.75,3.75c-2.07107,0 -3.75,-1.67893 -3.75,-3.75z" fill="#ffffff" stroke="none" stroke-width="0.5" stroke-linecap="butt"/><path d="M448.71262,43.4458c0,-2.07107 1.67893,-3.75 3.75,-3.75c2.07107,0 3.75,1.67893 3.75,3.75c0,2.07107 -1.67893,3.75 -3.75,3.75c-2.07107,0 -3.75,-1.67893 -3.75,-3.75z" fill="#ffffff" stroke="none" stroke-width="0.5" stroke-linecap="butt"/><path d="M451.7156,142.54478c0,-2.07107 1.67893,-3.75 3.75,-3.75c2.07107,0 3.75,1.67893 3.75,3.75c0,2.07107 -1.67893,3.75 -3.75,3.75c-2.07107,0 -3.75,-1.67893 -3.75,-3.75z" fill="#ffffff" stroke="none" stroke-width="0.5" stroke-linecap="butt"/><path d="M378.14202,129.03134c0,-2.07107 1.67893,-3.75 3.75,-3.75c2.07107,0 3.75,1.67893 3.75,3.75c0,2.07107 -1.67893,3.75 -3.75,3.75c-2.07107,0 -3.75,-1.67893 -3.75,-3.75z" fill="#ffffff" stroke="none" stroke-width="0.5" stroke-linecap="butt"/><path d="M406.67057,142.54478c0,-2.07107 1.67893,-3.75 3.75,-3.75c2.07107,0 3.75,1.67893 3.75,3.75c0,2.07107 -1.67893,3.75 -3.75,3.75c-2.07107,0 -3.75,-1.67893 -3.75,-3.75z" fill="#ffffff" stroke="none" stroke-width="0.5" stroke-linecap="butt"/><path d="M366.13003,181.58399c0,-2.07107 1.67893,-3.75 3.75,-3.75c2.07107,0 3.75,1.67893 3.75,3.75c0,2.07107 -1.67893,3.75 -3.75,3.75c-2.07107,0 -3.75,-1.67893 -3.75,-3.75z" fill="#ffffff" stroke="none" stroke-width="0.5" stroke-linecap="butt"/><path d="M337.6015,151.55381c0,-2.07107 1.67893,-3.75 3.75,-3.75c2.07107,0 3.75,1.67893 3.75,3.75c0,2.07107 -1.67893,3.75 -3.75,3.75c-2.07107,0 -3.75,-1.67893 -3.75,-3.75z" fill="#ffffff" stroke="none" stroke-width="0.5" stroke-linecap="butt"/><path d="M331.59544,121.52389c0,-2.07107 1.67893,-3.75 3.75,-3.75c2.07107,0 3.75,1.67893 3.75,3.75c0,2.07107 -1.67893,3.75 -3.75,3.75c-2.07107,0 -3.75,-1.67893 -3.75,-3.75z" fill="#ffffff" stroke="none" stroke-width="0.5" stroke-linecap="butt"/><path d="M274.53839,126.02842c0,-2.07107 1.67893,-3.75 3.75,-3.75c2.07107,0 3.75,1.67893 3.75,3.75c0,2.07107 -1.67893,3.75 -3.75,3.75c-2.07107,0 -3.75,-1.67893 -3.75,-3.75z" fill="#ffffff" stroke="none" stroke-width="0.5" stroke-linecap="butt"/><path d="M382.64652,201.10348c0,-2.07107 1.67893,-3.75 3.75,-3.75c2.07107,0 3.75,1.67893 3.75,3.75c0,2.07107 -1.67893,3.75 -3.75,3.75c-2.07107,0 -3.75,-1.67893 -3.75,-3.75z" fill="#ffffff" stroke="none" stroke-width="0.5" stroke-linecap="butt"/><path d="M433.69758,202.60499c0,-2.07107 1.67893,-3.75 3.75,-3.75c2.07107,0 3.75,1.67893 3.75,3.75c0,2.07107 -1.67893,3.75 -3.75,3.75c-2.07107,0 -3.75,-1.67893 -3.75,-3.75z" fill="#ffffff" stroke="none" stroke-width="0.5" stroke-linecap="butt"/><path d="M285.04888,288.19043c0,-2.07107 1.67893,-3.75 3.75,-3.75c2.07107,0 3.75,1.67893 3.75,3.75c0,2.07107 -1.67893,3.75 -3.75,3.75c-2.07107,0 -3.75,-1.67893 -3.75,-3.75z" fill="#ffffff" stroke="none" stroke-width="0.5" stroke-linecap="butt"/><path d="M330.09391,276.1785c0,-2.07107 1.67893,-3.75 3.75,-3.75c2.07107,0 3.75,1.67893 3.75,3.75c0,2.07107 -1.67893,3.75 -3.75,3.75c-2.07107,0 -3.75,-1.67893 -3.75,-3.75z" fill="#ffffff" stroke="none" stroke-width="0.5" stroke-linecap="butt"/><path d="M290.91474,296.61262c0,-2.07107 1.67893,-3.75 3.75,-3.75c2.07107,0 3.75,1.67893 3.75,3.75c0,2.07107 -1.67893,3.75 -3.75,3.75c-2.07107,0 -3.75,-1.67893 -3.75,-3.75z" fill="#000000" stroke="none" stroke-width="0.5" stroke-linecap="butt"/><path d="M333.65371,271.38973c0,-2.07107 1.67893,-3.75 3.75,-3.75c2.07107,0 3.75,1.67893 3.75,3.75c0,2.07107 -1.67893,3.75 -3.75,3.75c-2.07107,0 -3.75,-1.67893 -3.75,-3.75z" fill="#000000" stroke="none" stroke-width="0.5" stroke-linecap="butt"/><path d="M346.96587,292.40882c0,-2.07107 1.67893,-3.75 3.75,-3.75c2.07107,0 3.75,1.67893 3.75,3.75c0,2.07107 -1.67893,3.75 -3.75,3.75c-2.07107,0 -3.75,-1.67893 -3.75,-3.75z" fill="#000000" stroke="none" stroke-width="0.5" stroke-linecap="butt"/><path d="M377.79395,310.62541c0,-2.07107 1.67893,-3.75 3.75,-3.75c2.07107,0 3.75,1.67893 3.75,3.75c0,2.07107 -1.67893,3.75 -3.75,3.75c-2.07107,0 -3.75,-1.67893 -3.75,-3.75z" fill="#000000" stroke="none" stroke-width="0.5" stroke-linecap="butt"/><path d="M401.61567,310.62541c0,-2.07107 1.67893,-3.75 3.75,-3.75c2.07107,0 3.75,1.67893 3.75,3.75c0,2.07107 -1.67893,3.75 -3.75,3.75c-2.07107,0 -3.75,-1.67893 -3.75,-3.75z" fill="#000000" stroke="none" stroke-width="0.5" stroke-linecap="butt"/><path d="M435.2463,282.59988c0,-2.07107 1.67893,-3.75 3.75,-3.75c2.07107,0 3.75,1.67893 3.75,3.75c0,2.07107 -1.67893,3.75 -3.75,3.75c-2.07107,0 -3.75,-1.67893 -3.75,-3.75z" fill="#000000" stroke="none" stroke-width="0.5" stroke-linecap="butt"/><path d="M440.8514,269.98843c0,-2.07107 1.67893,-3.75 3.75,-3.75c2.07107,0 3.75,1.67893 3.75,3.75c0,2.07107 -1.67893,3.75 -3.75,3.75c-2.07107,0 -3.75,-1.67893 -3.75,-3.75z" fill="#000000" stroke="none" stroke-width="0.5" stroke-linecap="butt"/><path d="M512.92558,118.45563c0,39.45384 -32.97871,71.4375 -73.66001,71.4375c-40.6813,0 -73.66001,-31.98366 -73.66001,-71.4375c0,-39.45384 32.9787,-71.43751 73.66001,-71.43751c40.6813,0 73.66001,31.98366 73.66001,71.43751z" fill="#fffad2" stroke="#000000" stroke-width="2.5" stroke-linecap="butt"/><text transform="translate(126.56971,51.76254) scale(1.13774,1.13774)" font-size="40" xml:space="preserve" data-paper-data="{&quot;index&quot;:null}" fill="#ffffff" fill-rule="nonzero" stroke="none" stroke-width="1" stroke-linecap="butt" stroke-linejoin="miter" stroke-miterlimit="10" stroke-dasharray="" stroke-dashoffset="0" font-family="Pixel" font-weight="normal" text-anchor="start" style="mix-blend-mode: normal"><tspan x="0" dy="0">Tactigun!</tspan></text><path d="M290.62687,137.10449l1.04116,-0.05511" fill="none" stroke="none" stroke-width="1.5" stroke-linecap="round"/><path d="M98.23936,108.1814c-10.03642,-1.38173 -17.07839,-10.44949 -15.72867,-20.2534c1.34972,-9.80392 10.58001,-16.63145 20.61643,-15.24972c10.03642,1.38173 17.07839,10.44949 15.72867,20.2534c-1.34972,9.80392 -10.58001,16.63145 -20.61643,15.24972z" fill="#ffffff" stroke="#000000" stroke-width="1.5" stroke-linecap="butt"/><path d="M95.68579,80.29085l-1.42453,11.38593" fill="none" stroke="#000000" stroke-width="1.5" stroke-linecap="round"/><path d="M103.92843,82.71664l-1.58464,11.6474" fill="none" stroke="#000000" stroke-width="1.5" stroke-linecap="round"/><path d="M93.75859,99.81915c0,0 2.68143,-1.24409 4.50632,-1.24649c3.08846,-0.00406 12.32155,1.2244 12.32155,1.2244" fill="none" stroke="#000000" stroke-width="1.5" stroke-linecap="round"/><path d="M106.77489,81.2391l-8.09058,1.72038l-4.68588,-5.99029" fill="none" stroke="#000000" stroke-width="1.5" stroke-linecap="round"/><path d="M125.77522,101.74973l-0.06734,-10.6944l17.62681,-0.00501l0.15562,4.51438l-12.50533,-0.02088l0.06221,6.17483z" data-paper-data="{&quot;index&quot;:null}" fill="#000000" stroke="#000000" stroke-width="4" stroke-linecap="round"/><path d="M45.78776,103.79587c-9.80537,2.35408 -19.61834,-3.50224 -21.91788,-13.08047c-2.29953,-9.57821 3.78513,-19.25126 13.5905,-21.60533c9.80537,-2.35408 19.61834,3.50225 21.91788,13.08048c2.29953,9.57822 -3.78513,19.25126 -13.5905,21.60532z" fill="#ffffff" stroke="#000000" stroke-width="1.5" stroke-linecap="butt"/><path d="M36.07543,80.23386l2.80318,11.07202" fill="none" stroke="#000000" stroke-width="1.5" stroke-linecap="round"/><path d="M45.52794,78.1646l2.59481,11.41204" fill="none" stroke="#000000" stroke-width="1.5" stroke-linecap="round"/><path d="M52.10406,93.93028c0,0 -0.23987,0.9098 -1.03561,1.55997c-0.45236,0.3696 -1.35475,0.58815 -1.81947,0.67572c-2.63941,0.49737 -12.10885,2.28177 -12.10885,2.28177" data-paper-data="{&quot;index&quot;:null}" fill="none" stroke="#000000" stroke-width="1.5" stroke-linecap="round"/><path d="M31.83228,81.15342c0,0 2.13869,-1.29292 3.19835,-1.38101c0.24146,-0.02007 3.37749,0.1052 3.37749,0.1052" fill="none" stroke="#000000" stroke-width="1.5" stroke-linecap="round"/><path d="M40.72348,79.13541c0,0 2.1545,-1.17848 3.19835,-1.38101c1.23889,-0.6206 3.3775,0.1052 3.3775,0.1052" fill="none" stroke="#000000" stroke-width="1.5" stroke-linecap="round"/><path d="M22.10618,93.02445l-0.95844,0.09214" fill="none" stroke="none" stroke-width="1.5" stroke-linecap="round"/><path d="M15.20367,104.22446l-3.26778,-5.23966l-10.53244,6.74177l-2.29619,-3.8899l14.86445,-9.47378l5.69365,9.05302z" data-paper-data="{&quot;index&quot;:null}" fill="#000000" stroke="#000000" stroke-width="4" stroke-linecap="round"/><path d="M410.64273,51.78324c-7.70835,2.19575 -15.72488,-2.21733 -17.90545,-9.85692c-2.18057,-7.63957 2.30058,-15.6127 10.00893,-17.80843c7.70835,-2.19576 15.72488,2.21733 17.90545,9.85692c2.18057,7.63957 -2.30058,15.6127 -10.00893,17.80843z" data-paper-data="{&quot;index&quot;:null}" fill="#ffffff" stroke="#000000" stroke-width="1" stroke-linecap="butt"/><path d="M398.75202,31.71057c0,0 0.94703,3.17121 1.39971,4.68705c0.4265,1.4282 1.24252,4.16072 1.24252,4.16072" data-paper-data="{&quot;index&quot;:null}" fill="none" stroke="#000000" stroke-width="1" stroke-linecap="round"/><path d="M408.77161,38.50629l-2.29864,-8.43126" data-paper-data="{&quot;index&quot;:null}" fill="none" stroke="#000000" stroke-width="1" stroke-linecap="round"/><path d="M404.64355,49.43818c0,0 0.63436,-1.76956 1.67926,-2.08854c2.06474,-0.63032 9.21699,-2.81376 9.21699,-2.81376" data-paper-data="{&quot;index&quot;:null}" fill="none" stroke="#000000" stroke-width="1" stroke-linecap="round"/><path d="M395.65434,30.49847l5.9652,1.27131" fill="none" stroke="#000000" stroke-width="1" stroke-linecap="round"/><path d="M405.13526,30.97212l4.56821,-3.90014" fill="none" stroke="#000000" stroke-width="1" stroke-linecap="round"/><path d="M423.32896,44.12385c0.27162,0.65091 -4.06906,-3.10134 -8.28075,-1.45511c-1.78539,0.69787 -1.93029,-0.04681 -4.13486,0.64999c-1.69836,0.5368 -4.36331,2.10125 -6.72923,1.95611c-2.80648,-0.17216 -4.89191,5.48944 -6.51626,5.70317c-1.68673,0.22194 -0.71104,-4.73575 -0.86287,-5.09961c-0.38676,-0.92684 5.30271,-3.57556 12.70779,-5.91608c2.78164,-0.87919 5.37006,-1.24586 7.53841,-1.31189c1.90495,-0.058 4.42407,0.49445 5.5238,1.88526c0.98091,1.24054 0.64011,3.31534 0.75396,3.58816z" fill="#2c7543" stroke="#000000" stroke-width="1" stroke-linecap="butt"/><path d="M394.5003,26.32205c0,0 -0.89429,-2.21694 -0.91364,-3.28335c-0.02158,-1.18865 0.79013,-3.5217 0.79013,-3.5217c0,0 3.72792,-0.55923 5.48277,-1.06371c1.87648,-0.53946 5.78795,-2.18914 5.78795,-2.18914c0,0 1.72627,1.70864 2.3915,2.48311c0.71697,0.83469 1.76671,2.35793 1.76671,2.35793c0,0 2.24818,-1.30779 3.35146,-1.68835c0.92779,-0.32003 2.83345,-0.44503 2.83345,-0.44503c0,0 0.40523,1.58267 -0.0305,3.02079c-0.25571,0.84397 -1.00551,1.53175 -1.75149,2.1045c-2.98418,2.2912 -8.56727,4.01681 -11.34917,4.85183c-2.09604,0.62915 -6.2632,1.74645 -9.18572,2.01591c-1.30652,0.12047 -2.6956,0.25385 -3.7832,-0.17749c-1.90951,-0.75731 -2.43564,-2.18508 -2.43564,-2.18508c0,0 1.13971,-0.79355 1.97872,-1.0833c1.10781,-0.38258 4.08877,-1.01207 4.08877,-1.01207" fill="#854124" stroke="#854124" stroke-width="1" stroke-linecap="round"/><path d="M404.74139,25.28639c-0.45546,0.5319 -2.70542,-0.72733 -2.70542,-0.72733c0,0 -1.46334,2.11799 -2.10778,1.83968c-0.64487,-0.27815 -0.17406,-2.82442 -0.17406,-2.82442c0,0 -2.45334,-0.77094 -2.39599,-1.4751c0.0572,-0.70464 2.59851,-1.01828 2.59851,-1.01828c0,0 -0.05331,-2.59385 0.62643,-2.75141c0.68077,-0.15742 1.78084,2.19502 1.78084,2.19502c0,0 2.42031,-0.83277 2.78297,-0.22509c0.36383,0.6068 -1.49793,2.37485 -1.49793,2.37485c0,0 1.54925,2.07974 1.09244,2.61208z" fill="#ffff00" stroke="#000000" stroke-width="1" stroke-linecap="butt"/><path d="M403.08131,23.92965c-0.22944,0.26751 -1.36049,-0.36563 -1.36049,-0.36563c0,0 -0.7351,1.06434 -1.0588,0.92442c-0.32368,-0.13992 -0.08744,-1.41881 -0.08744,-1.41881c0,0 -1.23244,-0.38812 -1.20391,-0.74139c0.02884,-0.3539 1.30541,-0.51138 1.30541,-0.51138c0,0 -0.02662,-1.30369 0.31547,-1.38244c0.3415,-0.07908 0.89366,1.10296 0.89366,1.10296c0,0 1.21691,-0.41834 1.39911,-0.11328c0.18326,0.30522 -0.75202,1.19316 -0.75202,1.19316c0,0 0.77757,1.04518 0.54901,1.31239z" fill="#ffffff" stroke="none" stroke-width="1" stroke-linecap="butt"/><path d="M384.42905,54.88217l-3.21034,-7.11507l-11.90312,5.88486l-2.24212,-5.25339c0,0 9.52617,-4.68217 12.59991,-6.19293c1.77385,-0.87186 4.1963,-2.06251 4.1963,-2.06251l5.59857,12.30389z" data-paper-data="{&quot;index&quot;:null}" fill="#40cccc" stroke="#000000" stroke-width="1" stroke-linecap="round"/><path d="M382.71298,51.10223l-2.85683,1.54477l-1.67919,-3.22198" data-paper-data="{&quot;index&quot;:null}" fill="#40cccc" stroke="#000000" stroke-width="1" stroke-linecap="round"/><path d="M373.03485,46.96195l1.11434,2.8463" data-paper-data="{&quot;index&quot;:null}" fill="none" stroke="#000000" stroke-width="1" stroke-linecap="round"/><path d="M372.41662,50.33734l-1.19306,-2.66627" data-paper-data="{&quot;index&quot;:null}" fill="none" stroke="#000000" stroke-width="1" stroke-linecap="round"/><path d="M370.81345,50.81577l-1.22114,-2.35686" data-paper-data="{&quot;index&quot;:null}" fill="none" stroke="#000000" stroke-width="1" stroke-linecap="round"/><path d="M371.79034,45.31349l-0.50512,-0.97995l9.04781,-4.2373l0.85114,1.2921z" data-paper-data="{&quot;index&quot;:null}" fill="#000000" stroke="#000000" stroke-width="1" stroke-linecap="butt"/><text transform="translate(153.50014,69.94867) scale(0.33762,0.33762)" font-size="40" xml:space="preserve" fill="#ffffff" fill-rule="nonzero" stroke="none" stroke-width="1" stroke-linecap="butt" stroke-linejoin="miter" stroke-miterlimit="10" stroke-dasharray="" stroke-dashoffset="0" font-family="Pixel" font-weight="normal" text-anchor="start" style="mix-blend-mode: normal"><tspan x="0" dy="0">Season 4: Solar Collision</tspan></text></g></g></svg>