<svg version="1.1" xmlns="http://www.w3.org/2000/svg" xmlns:xlink="http://www.w3.org/1999/xlink" width="485.5" height="364.16667" viewBox="0,0,485.5,364.16667"><g transform="translate(1.41664,2.91666)"><g data-paper-data="{&quot;isPaintingLayer&quot;:true}" fill-rule="nonzero" stroke-linejoin="miter" stroke-miterlimit="10" stroke-dasharray="" stroke-dashoffset="0" style="mix-blend-mode: normal"><path d="M-0.16663,264.33334v-266h483v266z" fill="#6bb7ff" stroke="#000000" stroke-width="2.5" stroke-linecap="butt"/><path d="M1.50004,360.00001v-97h478v97z" fill="#00d01b" stroke="#000000" stroke-width="2.5" stroke-linecap="butt"/><text transform="translate(101.33337,74.21522) scale(1.08049,1.08049)" font-size="40" xml:space="preserve" data-paper-data="{&quot;index&quot;:null}" fill="#000000" fill-rule="nonzero" stroke="none" stroke-width="1" stroke-linecap="butt" stroke-linejoin="miter" stroke-miterlimit="10" stroke-dasharray="" stroke-dashoffset="0" font-family="Pixel" font-weight="normal" text-anchor="start" style="mix-blend-mode: normal"><tspan x="0" dy="0">Tactigun! </tspan></text><g stroke-linecap="round"><path d="M143.01096,255.10865c-1.27316,0.58102 -2.91718,0.68485 -4.29619,0.29099c-1.17368,-0.33568 -2.52223,-1.14502 -2.93587,-2.31974c-0.37382,-1.0666 0.55407,-2.32772 0.98514,-3.43668c0.34149,-0.88891 0.2897,-2.54508 1.27695,-2.79427c1.26368,-0.30747 2.44753,1.08198 3.7369,1.4023c0.94429,0.2353 2.53661,-0.75154 2.92802,0.1091c0.60868,1.46075 -0.52125,3.14181 -0.89364,4.61291c-0.1864,0.7361 -0.10803,1.8191 -0.80132,2.13537z" fill="#ff9400" stroke="none" stroke-width="1"/><path d="M144.05483,250.09535c-1.17071,0.71782 -2.77593,0.63219 -4.11431,0.31997c-1.06185,-0.24743 -2.57982,-0.81949 -2.81752,-1.93153c-0.38599,-1.81477 0.48651,-3.87044 1.33598,-5.58883c0.20782,-0.42476 0.86902,0.21679 1.343,0.27559c0.68951,0.18718 1.38542,0.38163 2.14542,0.46373c1.23909,0.13458 2.76811,-0.49049 3.73551,0.29672c0.74297,0.60707 0.37897,1.86756 0.12452,2.71117c-0.30707,1.28246 -0.68628,2.80095 -1.75259,3.45318z" fill="#b5b5b5" stroke="none" stroke-width="1"/><path d="M155.67635,208.17114c-0.80691,1.36073 -1.79434,3.76487 -3.32923,3.39443c-2.17921,-0.50108 -3.93003,-3.02746 -4.26991,-5.25642c-0.24276,-1.5911 1.87035,-2.68122 2.81217,-4.04522c0.62582,-0.78647 1.29048,-1.54498 1.89418,-2.4104c0.40575,-0.57978 0.66513,-1.21175 1.19331,-1.75989c0.14919,-0.15413 0.48589,-0.70652 0.63401,-0.06659c0.58779,2.55341 0.84323,5.19892 1.10772,7.80001c0.07641,0.74822 0.34856,1.66704 -0.04223,2.34409z" fill="#ffffcc" stroke="none" stroke-width="1"/><path d="M152.6622,220.0578c-2.0907,7.83456 -4.20083,15.69653 -6.3369,23.58137c-0.53867,1.97266 -0.12875,1.2763 -0.5593,1.6933c-0.5724,0.59215 -1.41501,0.93065 -2.29428,1.04223c-0.97938,0.13492 -2.02043,-0.01213 -2.96131,-0.42611c-0.90586,-0.3856 -1.87505,-1.00813 -2.41041,-1.89418c-0.31354,-0.54396 -0.36541,0.12171 0.11722,-1.93532c2.03226,-8.0529 4.29265,-16.11245 6.40375,-24.16529c0.88782,-3.38671 1.71947,-6.72843 2.63,-10.05151c0.18829,-0.86936 -0.02056,-1.18677 0.36736,-1.38469c0.3796,-0.18795 0.78718,0.34564 1.20114,0.45074c0.42434,0.10747 0.87788,0.2938 1.30131,0.18382c0.40194,-0.10465 0.61323,-0.57439 0.97619,-0.77558c0.38268,-0.21237 0.87883,-0.69061 1.23472,-0.45019c0.44412,0.30308 0.32438,1.13909 0.56686,1.73526c0.08739,0.28889 0.07756,0.70785 0.41689,0.91771c0.31025,0.16728 0.70499,-0.13162 1.04277,-0.14158c0.48504,-0.01044 1.55041,-1.06345 1.40147,-0.0831c-0.57989,3.93589 -2.04675,7.78802 -3.09752,11.70311z" fill="#ffff00" stroke="#000000" stroke-width="2"/><path d="M143.15611,240.31834l8.61658,-33.91657" fill="none" stroke="#000000" stroke-width="2"/><path d="M154.56078,198.16051c0,0 0.08741,0.33183 0.11667,0.50055c0.10671,0.618 0.20717,1.23883 0.29155,1.86033c0.05703,0.42092 0.08212,0.8466 0.13318,1.26801c0.10984,0.90664 0.21831,1.8161 0.34975,2.71957c0.05993,0.41073 0.16919,0.81502 0.22496,1.22633c0.08564,0.6311 0.19977,1.90202 0.19977,1.90202" fill="none" stroke="#000000" stroke-width="2"/><path d="M154.30225,197.83512c0,0 -0.13871,0.0329 -0.18354,0.08337c-0.1795,0.20243 -0.32877,0.43144 -0.47564,0.65891c-0.15645,0.24245 -0.2775,0.50822 -0.43395,0.75068c-0.14687,0.22747 -0.31576,0.44058 -0.47564,0.65891c-0.56823,0.77581 -1.1052,1.5795 -1.71063,2.32703c-0.43541,0.53789 -0.96389,0.99762 -1.41014,1.52626c-0.51327,0.60825 -0.98444,1.25361 -1.46862,1.88496c-0.21032,0.274 -0.6175,0.83406 -0.6175,0.83406" fill="none" stroke="#000000" stroke-width="2"/><path d="M154.51908,198.06874l-0.16016,-0.0601" fill="none" stroke="#000000" stroke-width="2"/><path d="M145.89108,245.60778c0,0 -0.55629,2.55679 -0.91014,3.84545c-0.07524,0.28571 -0.06654,0.46864 -0.2921,0.57554c-0.73644,0.35093 -1.53904,0.64689 -2.36927,0.63345c-1.15168,-0.02018 -2.34703,-0.32653 -3.39499,-0.89336c-0.82271,-0.37024 -1.35366,-1.20956 -2.05172,-1.8357c-0.17461,-0.15627 -0.15972,0.10268 -0.13346,-0.05008c0.0934,-0.58889 0.28131,-1.13835 0.42583,-1.74338c0.22522,-0.85337 0.68465,-2.63592 0.68465,-2.63592" fill="none" stroke="#000000" stroke-width="2"/><path d="M144.63674,250.16549c0,0 -0.55596,2.79861 -0.99848,4.1128c-0.085,0.32903 -0.10716,0.67937 -0.3918,0.8306c-0.62533,0.35864 -1.31778,0.65784 -2.05668,0.6546c-1.19541,-0.00558 -2.43669,-0.14609 -3.53861,-0.6067c-0.80982,-0.34296 -1.42181,-1.01591 -1.92093,-1.71448c-0.20491,-0.21411 -0.09187,-0.57265 -0.06301,-0.85706c0.0622,-0.61418 0.14275,-1.22694 0.30424,-1.793c0.2565,-1.03205 0.94726,-2.99412 0.94726,-2.99412" fill="none" stroke="#000000" stroke-width="2.10527"/><path d="M142.81228,248.33491c0,0 0.07164,-0.00509 0,0c-0.28617,0.01929 -0.57285,0.07645 -0.85924,0.0582c-0.28819,-0.01832 -0.57046,-0.09867 -0.85085,-0.16703c-0.30076,-0.07327 -0.59919,-0.16091 -0.89253,-0.2588c-0.31528,-0.10521 -0.64456,-0.18768 -0.93423,-0.35057c-0.26157,-0.14688 -0.47635,-0.36815 -0.7006,-0.56741c-0.2702,-0.23995 -0.78398,-0.75096 -0.78398,-0.75096" fill="none" stroke="#000000" stroke-width="2"/><path d="M154.01772,201.8392c-0.2452,0.08704 -0.5294,0.08727 -0.77687,0.01237c-0.27387,-0.08328 -0.50851,-0.25568 -0.72292,-0.43815c-0.14322,-0.12226 -0.29724,-0.30338 -0.30519,-0.52561c-0.0228,-0.11452 0.08928,-0.13002 0.22864,-0.32529c0.55875,-0.78302 1.12714,-2.35689 1.71063,-2.32703c0.54422,0.04771 0.65313,1.41044 0.86709,2.15243c0.07492,0.27507 0.22279,0.6162 0.05819,0.85924c-0.22795,0.32585 -0.69228,0.46373 -1.05956,0.59204z" fill="#000000" stroke="none" stroke-width="1"/></g><path d="M111.56835,260.84277c-20.83024,0.32133 -37.97094,-15.91323 -38.28483,-36.26093c-0.31389,-20.34768 16.3179,-37.10324 37.14814,-37.42456c20.83024,-0.32133 37.97094,15.91323 38.28483,36.26093c0.31389,20.34768 -16.3179,37.10324 -37.14814,37.42456z" fill="#ffffff" stroke="#000000" stroke-width="2.5" stroke-linecap="butt"/><path d="M106.69144,207.99774l0.65517,23.58651" fill="none" stroke="#000000" stroke-width="2.5" stroke-linecap="round"/><path d="M124.18224,232.42758l-0.08166,-24.17799" fill="none" stroke="#000000" stroke-width="2.5" stroke-linecap="round"/><path d="M128.75401,246.15861l-31.44568,1.06771" fill="none" stroke="#000000" stroke-width="2.5" stroke-linecap="round"/><text transform="translate(153.83337,100.16668) scale(0.5,0.5)" font-size="40" xml:space="preserve" fill="#000000" fill-rule="nonzero" stroke="none" stroke-width="1" stroke-linecap="butt" stroke-linejoin="miter" stroke-miterlimit="10" stroke-dasharray="" stroke-dashoffset="0" font-family="Pixel" font-weight="normal" text-anchor="start" style="mix-blend-mode: normal"><tspan x="0" dy="0">Creative!</tspan></text></g></g></svg>