<svg version="1.1" xmlns="http://www.w3.org/2000/svg" xmlns:xlink="http://www.w3.org/1999/xlink" width="485.5" height="364.16667" viewBox="0,0,485.5,364.16667"><g transform="translate(1.41665,2.91666)"><g data-paper-data="{&quot;isPaintingLayer&quot;:true}" fill-rule="nonzero" stroke-linejoin="miter" stroke-miterlimit="10" stroke-dasharray="" stroke-dashoffset="0" style="mix-blend-mode: normal"><path d="M-0.16664,264.33334v-266h483v266z" fill="#0061d1" stroke="#000000" stroke-width="2.5" stroke-linecap="butt"/><path d="M1.50003,360.00001v-97h478v97z" fill="#00d01b" stroke="#000000" stroke-width="2.5" stroke-linecap="butt"/><path d="M150.25001,239.50001l0.5,-46l61.5,0.5v17h-39l-0.5,28z" fill="#000000" stroke="#000000" stroke-width="2.5" stroke-linecap="round"/><path d="M173.25003,220.25001v-9.30682h9.75v9.30682z" fill="#0061d1" stroke="#000000" stroke-width="2.5" stroke-linecap="butt"/><path d="M212.25003,206.12501v-8.25h5v8.25z" fill="#000000" stroke="#000000" stroke-width="2.5" stroke-linecap="butt"/><path d="M169.25003,192.87501v-12.25h0.75v12.25z" fill="#000000" stroke="#000000" stroke-width="2.5" stroke-linecap="butt"/><path d="M75.34885,247.31982c-12.61923,-16.57579 -9.72308,-40.00606 6.46872,-52.33295c16.19181,-12.32689 39.54775,-8.88246 52.16698,7.69333c12.61923,16.5758 9.72308,40.00606 -6.46872,52.33296c-16.1918,12.32689 -39.54775,8.88247 -52.16698,-7.69333z" fill="#ffffff" stroke="#000000" stroke-width="2.5" stroke-linecap="butt"/><path d="M103.25551,211.66646l3.5281,23.33035" fill="none" stroke="#000000" stroke-width="2.5" stroke-linecap="round"/><path d="M121.76952,207.33567l3.03104,23.98739" fill="none" stroke="#000000" stroke-width="2.5" stroke-linecap="round"/><path d="M101.14743,243.12976l31.08048,-4.89647" fill="none" stroke="#000000" stroke-width="2.5" stroke-linecap="round"/><path d="M127.14572,194.48067l-15.10762,12.01082l-14.78186,-8.60214" fill="none" stroke="#000000" stroke-width="2.5" stroke-linecap="round"/><path d="M274.34215,261.84126c-20.8294,-0.37195 -37.42041,-17.16787 -37.05708,-37.51473c0.36334,-20.34686 17.54343,-36.53972 38.37283,-36.16777c20.8294,0.37195 37.42042,17.16787 37.05708,37.51474c-0.36334,20.34686 -17.54343,36.53973 -38.37283,36.16777z" fill="#ffffff" stroke="#000000" stroke-width="2.5" stroke-linecap="butt"/><path d="M255.70498,213.88173l-0.13001,23.59525" fill="none" stroke="#000000" stroke-width="2.5" stroke-linecap="round"/><path d="M274.9436,238.63968l0.72288,-24.16732" fill="none" stroke="#000000" stroke-width="2.5" stroke-linecap="round"/><path d="M291.71035,250.11745l-31.4638,0.0208" fill="none" stroke="#000000" stroke-width="2.5" stroke-linecap="round"/><path d="M323.21299,252.68162l6.33419,-45.56455l60.9392,8.30143l-2.15761,16.86252l-38.68462,-4.94981l-4.04966,27.71011z" fill="#000000" stroke="#000000" stroke-width="2.5" stroke-linecap="round"/><text transform="translate(116.33336,72.21522) scale(1.08049,1.08049)" font-size="40" xml:space="preserve" fill="#000000" fill-rule="nonzero" stroke="none" stroke-width="1" stroke-linecap="butt" stroke-linejoin="miter" stroke-miterlimit="10" stroke-dasharray="" stroke-dashoffset="0" font-family="Pixel" font-weight="normal" text-anchor="start" style="mix-blend-mode: normal"><tspan x="0" dy="0">Tactigun! </tspan></text></g></g></svg>