<svg version="1.1" xmlns="http://www.w3.org/2000/svg" xmlns:xlink="http://www.w3.org/1999/xlink" width="581.74732" height="409.5" viewBox="0,0,581.74732,409.5"><g transform="translate(33.08061,32.78603)"><g data-paper-data="{&quot;isPaintingLayer&quot;:true}" fill-rule="nonzero" stroke-linejoin="miter" stroke-miterlimit="10" stroke-dasharray="" stroke-dashoffset="0" style="mix-blend-mode: normal"><path d="M349.96846,262.62071c-9.2301,23.07526 -50.79942,28.14671 -92.84767,11.32742c-42.04825,-16.8193 -68.65261,-49.16023 -59.42251,-72.23549c9.2301,-23.07526 50.79942,-28.14671 92.84767,-11.32742c42.04825,16.8193 68.65261,49.16023 59.42251,72.23549z" fill="none" stroke="#000000" stroke-width="2.5" stroke-linecap="butt"/><path d="M349.16939,214.46397c0,36.72694 -30.89235,66.5 -69,66.5c-38.10765,0 -69,-29.77306 -69,-66.5c0,-36.72694 30.89235,-66.5 69,-66.5c38.10765,0 69,29.77306 69,66.5z" fill="#000000" stroke="#000000" stroke-width="3" stroke-linecap="butt"/><path d="M-31.33061,375.46397v-407h554v407z" fill="#cad0ff" stroke="#000000" stroke-width="2.5" stroke-linecap="butt"/><text transform="translate(116.33337,72.21522) scale(1.08049,1.08049)" font-size="40" xml:space="preserve" fill="#000000" fill-rule="nonzero" stroke="none" stroke-width="1" stroke-linecap="butt" stroke-linejoin="miter" stroke-miterlimit="10" stroke-dasharray="" stroke-dashoffset="0" font-family="Pixel" font-weight="normal" text-anchor="start" style="mix-blend-mode: normal"><tspan x="0" dy="0">Tactigun! </tspan></text><text transform="translate(176.66939,102.46397) scale(0.5,0.5)" font-size="40" xml:space="preserve" fill="#000000" fill-rule="nonzero" stroke="none" stroke-width="1" stroke-linecap="butt" stroke-linejoin="miter" stroke-miterlimit="10" stroke-dasharray="" stroke-dashoffset="0" font-family="Pixel" font-weight="normal" text-anchor="start" style="mix-blend-mode: normal"><tspan x="0" dy="0">Season 1</tspan></text><path d="M-30.83061,166.96397l292,208" fill="none" stroke="#000000" stroke-width="2.5" stroke-linecap="round"/><path d="M-31.83061,374.96397v-208l150,106l144,102z" fill="#64c74c" stroke="#000000" stroke-width="2.5" stroke-linecap="butt"/><path d="M73.67372,337.21611c-19.34517,7.73087 -41.14946,-1.32108 -48.70124,-20.21812c-7.55178,-18.89702 2.00865,-40.4832 21.35383,-48.21407c19.34518,-7.73087 41.14946,1.32108 48.70125,20.21812c7.55178,18.89702 -2.00866,40.48321 -21.35384,48.21407z" fill="#ffffff" stroke="#000000" stroke-width="2.5" stroke-linecap="butt"/><path d="M54.1543,313.35053l-9.02598,-21.80102" fill="none" stroke="#000000" stroke-width="2.5" stroke-linecap="round"/><path d="M72.16194,306.30665l-8.7012,-22.55817" fill="none" stroke="#000000" stroke-width="2.5" stroke-linecap="round"/><path d="M84.49051,317.36747c0,0 -10.31653,5.64122 -14.92015,8.15854c-3.96643,2.1689 -11.07582,6.0564 -11.07582,6.0564" fill="none" stroke="#000000" stroke-width="2.5" stroke-linecap="round"/><path d="M37.05148,285.30462l10,1" fill="none" stroke="#000000" stroke-width="2.5" stroke-linecap="round"/><path d="M56.71814,282.30462l4.66667,-6.66667" fill="none" stroke="#000000" stroke-width="2.5" stroke-linecap="round"/><path d="M261.57865,272.89411c-33.86307,-10.76357 -52.79105,-46.30464 -42.27684,-79.38326c10.51421,-33.07859 46.4891,-51.1685 80.35216,-40.40492c33.86307,10.76357 52.79105,46.30464 42.27684,79.38325c-10.51421,33.07859 -46.4891,51.16851 -80.35216,40.40493z" fill="#ffffff" stroke="#000000" stroke-width="2.5" stroke-linecap="butt"/><path d="M245.89145,243.14774l51.43584,15.30657" fill="none" stroke="#000000" stroke-width="2.5" stroke-linecap="round"/><path d="M340.16939,283.96397v0v0z" fill="none" stroke="#000000" stroke-width="2.5" stroke-linecap="butt"/><path d="M293.06082,230.52817l12.96458,-39.14759" fill="none" stroke="#000000" stroke-width="2.5" stroke-linecap="round"/><path d="M273.42084,181.80626l-11.71664,38.50164" fill="none" stroke="#000000" stroke-width="2.5" stroke-linecap="round"/><path d="M259.83337,373.16668l-95,-67l382.58333,17v52z" fill="#0084ff" stroke="#000000" stroke-width="2.5" stroke-linecap="butt"/></g></g></svg>